<svg width="550" height="132" viewBox="0 0 550 132" fill="none" xmlns="http://www.w3.org/2000/svg">
  <path d="M168.182 121.342H250.712V96.3958H194.197V76.7956H244.433V51.8499H194.197V34.0316H247.389L253.481 9.08586H168.182V121.342Z" fill="#124059"/>
  <path d="M266.782 121.342H291.003V75.0138C291.003 65.9264 296.385 60.7591 302.665 60.7591C308.944 60.7591 314.327 65.9264 314.327 75.0138V121.342H338.548V75.0138C338.548 65.9264 343.93 60.7591 350.21 60.7591C356.489 60.7591 361.872 65.9264 361.872 75.0138V121.342H386.092V72.341C386.092 50.0681 374.43 38.4861 356.489 38.4861C349.313 38.4861 343.212 41.1589 338.907 43.8317C336.395 45.4353 334.242 47.2171 332.268 49.1772C331.012 47.2171 329.218 45.4353 327.065 43.8317C323.298 41.1589 317.377 38.4861 308.944 38.4861C302.665 38.4861 297.462 40.8025 293.874 42.9407C291.721 44.188 289.927 45.7917 288.312 47.3953L284.724 39.3771H266.782V121.342Z" fill="#124059"/>
  <path d="M403.095 121.342H421.036L424.624 113.323C426.418 114.927 428.571 116.531 430.904 117.778C435.03 120.094 440.772 122.232 447.948 122.232C468.581 122.232 486.522 104.592 486.522 80.3593C486.522 56.1263 468.581 38.4861 447.948 38.4861C441.669 38.4861 436.466 40.0898 432.877 42.0498C430.724 43.1189 428.93 44.3662 427.316 45.6135V17.1678L403.095 9.08586V121.342ZM444.36 99.9595C434.313 99.9595 426.418 91.9412 426.418 80.3593C426.418 68.7774 434.313 60.7591 444.36 60.7591C454.407 60.7591 462.301 68.7774 462.301 80.3593C462.301 91.9412 454.407 99.9595 444.36 99.9595Z" fill="#124059"/>
  <path d="M501.558 121.342H525.779V79.4684C525.779 68.7774 531.879 62.5409 541.029 62.5409C543.72 62.5409 545.873 62.8973 547.488 63.4318L550 64.3228V39.3771L548.026 39.0207C546.77 38.8425 544.976 38.4861 542.823 38.4861C536.544 38.4861 531.7 40.8025 528.291 43.4753C526.317 44.9008 524.523 46.5044 523.088 48.2862L519.5 39.3771H501.558V121.342Z" fill="#124059"/>
  <path d="M65.9091 0H0V65.625C0 83.0298 6.94397 99.7218 19.3043 112.029C31.6647 124.336 48.4289 131.25 65.9091 131.25C74.564 131.25 83.1341 129.552 91.1301 126.254C99.1261 122.956 106.391 118.122 112.511 112.028C118.63 105.934 123.484 98.6999 126.796 90.7379C130.107 82.776 131.811 74.2426 131.81 65.625C131.81 48.2216 124.867 31.5309 112.508 19.2241C100.15 6.91727 83.3878 0.00223751 65.9091 0ZM97.4231 65.625C97.4253 69.7475 96.6119 73.83 95.0293 77.6394C93.4466 81.4488 91.1258 84.9104 88.1994 87.8266C85.2729 90.7428 81.7982 93.0564 77.9735 94.6353C74.1489 96.2141 70.0494 97.0274 65.9091 97.0285C57.5488 97.0285 49.531 93.7217 43.6193 87.8355C37.7077 81.9494 34.3866 73.9661 34.3866 65.6419V34.2806H65.9091C74.2671 34.2806 82.2828 37.5865 88.1929 43.471C94.1029 49.3556 97.4231 57.3367 97.4231 65.6587V65.625Z" fill="#FF9100"/>
  <path d="M65.9006 97.0285C57.5418 97.0262 49.5261 93.7185 43.6164 87.8326C37.7066 81.9467 34.3866 73.9647 34.3866 65.6419V34.2806H65.9006V0H1.36212e-05V65.625C-0.00555264 74.2454 1.69491 82.7825 5.00423 90.7483C8.31356 98.7142 13.1669 105.953 19.2869 112.05C25.4069 118.148 32.6736 122.985 40.6718 126.285C48.67 129.585 57.2429 131.284 65.9006 131.284C74.6983 131.3 83.4097 129.556 91.5176 126.156C99.6255 122.756 106.965 117.769 113.1 111.49L88.7798 87.275C85.8353 90.3677 82.2868 92.8282 78.3524 94.5055C74.4179 96.1828 70.1805 97.0414 65.9006 97.0285Z" fill="#FFB000"/>
  <path d="M34.3867 65.6588V34.2806H65.9007V0H4.8749e-05V65.625C-0.0209033 82.7583 6.71273 99.2153 18.7525 111.456L43.0638 87.2413C37.4939 81.4244 34.3867 73.6958 34.3867 65.6588Z" fill="#FFC200"/>
  <path d="M65.9091 0.0340729H0V34.2725H65.9091V0.0340729Z" fill="#FF7900"/>
  </svg>