<svg width="546" height="419" viewBox="0 0 546 419" fill="none" xmlns="http://www.w3.org/2000/svg">
<path d="M311.525 116.26L311.254 115.811L370.305 82.097L370.441 82.1636L431.475 115.029L431.203 115.495L370.322 82.6958L311.525 116.26Z" fill="#387CE1"/>
<g opacity="0.1">
<path d="M250.508 276.528L224.966 262.058V290.998L250.508 305.468L276.051 290.998V262.058L250.508 276.528Z" fill="#387CE1"/>
<path d="M250.508 305.468L224.966 290.998V262.058L250.508 276.528V305.468Z" fill="#387CE1"/>
<path d="M276.051 290.998L250.508 305.468V276.528L276.051 262.058V290.998Z" fill="#81A6F4"/>
<path d="M250.508 276.528L224.966 262.058L250.508 247.588L276.051 262.058L250.508 276.528Z" fill="#387CE1"/>
<path d="M250.508 276.528L226.085 262.69L224.966 263.322L250.508 277.792L276.051 263.322L274.949 262.69L250.508 276.528Z" fill="white"/>
<path d="M283.678 295.106L258.153 280.636V309.576L283.678 324.046L309.22 309.576V280.636L283.678 295.106Z" fill="#387CE1"/>
<path d="M283.678 324.046L258.153 309.576V280.636L283.678 295.106V324.046Z" fill="#387CE1"/>
<path d="M309.22 309.576L283.678 324.046V295.106L309.22 280.636V309.576Z" fill="#81A6F4"/>
<path d="M283.678 295.106L258.153 280.636L283.678 266.166L309.22 280.636L283.678 295.106Z" fill="#387CE1"/>
<path d="M283.678 295.106L259.254 281.268L258.153 281.884L283.678 296.354L309.22 281.884L308.119 281.268L283.678 295.106Z" fill="white"/>
<path d="M316.864 313.685L291.322 299.214V328.155L316.864 342.608L342.39 328.155V299.214L316.864 313.685Z" fill="#387CE1"/>
<path d="M316.864 342.608L291.322 328.155V299.214L316.864 313.685V342.608Z" fill="#387CE1"/>
<path d="M342.39 328.155L316.864 342.608V313.685L342.39 299.214V328.155Z" fill="#81A6F4"/>
<path d="M316.864 313.685L291.322 299.215L316.847 284.744L342.39 299.215L316.864 313.685Z" fill="#387CE1"/>
<path d="M316.864 313.685L292.424 299.83L291.322 300.462L316.864 314.932L342.39 300.462V299.214L316.864 313.685Z" fill="white"/>
<path d="M217.339 296.354L191.797 281.884V310.824L217.339 325.294L242.881 310.824V281.884L217.339 296.354Z" fill="#387CE1"/>
<path d="M217.339 325.294L191.797 310.824V281.884L217.339 296.354V325.294Z" fill="#387CE1"/>
<path d="M242.881 310.824L217.339 325.294V296.354L242.881 281.884V310.824Z" fill="#81A6F4"/>
<path d="M217.339 296.354L191.797 281.884L217.339 267.43L242.881 281.9L217.339 296.354Z" fill="#387CE1"/>
<path d="M217.339 296.354L192.915 282.516L191.797 283.148L217.339 297.618L242.881 283.148L241.763 282.516L217.339 296.354Z" fill="white"/>
<path d="M250.508 314.932L224.966 300.462V329.402L250.508 343.872L276.051 329.402V300.462L250.508 314.932Z" fill="#387CE1"/>
<path d="M250.508 343.872L224.966 329.402V300.462L250.508 314.932V343.872Z" fill="#387CE1"/>
<path d="M276.051 329.402L250.508 343.872V314.932L276.051 300.462V329.402Z" fill="#81A6F4"/>
<path d="M250.508 314.932L224.966 300.462L250.508 285.992L276.051 300.462L250.508 314.932Z" fill="#387CE1"/>
<path d="M250.508 314.932L226.085 301.094L224.966 301.726L250.508 316.196L276.051 301.726L274.949 301.094L250.508 314.932Z" fill="white"/>
<path d="M283.678 333.51L258.153 319.04V347.98L283.678 362.45L309.22 347.98V319.04L283.678 333.51Z" fill="#387CE1"/>
<path d="M283.678 362.45L258.153 347.98V319.04L283.678 333.51V362.45Z" fill="#387CE1"/>
<path d="M309.22 347.98L283.678 362.45V333.51L309.22 319.04V347.98Z" fill="#81A6F4"/>
<path d="M283.678 333.51L258.153 319.04L283.678 304.57L309.22 319.04L283.678 333.51Z" fill="#387CE1"/>
<path d="M283.678 333.51L259.254 319.672L258.153 320.288L283.678 334.758L309.22 320.288V319.04L283.678 333.51Z" fill="white"/>
<path d="M184.169 316.196L158.627 301.726V330.649L184.169 345.12L209.712 330.649V301.726L184.169 316.196Z" fill="#387CE1"/>
<path d="M184.169 345.12L158.627 330.649V301.726L184.169 316.196V345.12Z" fill="#387CE1"/>
<path d="M209.712 330.649L184.169 345.12V316.196L209.712 301.726V330.649Z" fill="#81A6F4"/>
<path d="M184.169 316.196L158.627 301.726L184.169 287.256L209.695 301.726L184.169 316.196Z" fill="#387CE1"/>
<path d="M184.169 316.196L158.627 301.726V302.973L184.169 317.443L209.695 302.973L208.593 302.341L184.169 316.196Z" fill="white"/>
<path d="M217.339 334.758L191.797 320.288V349.228L217.339 363.698L242.881 349.228V320.288L217.339 334.758Z" fill="#387CE1"/>
<path d="M217.339 363.698L191.797 349.228V320.288L217.339 334.758V363.698Z" fill="#387CE1"/>
<path d="M242.881 349.228L217.339 363.698V334.758L242.881 320.288V349.228Z" fill="#81A6F4"/>
<path d="M217.339 334.758L191.797 320.288L217.339 305.818L242.881 320.288L217.339 334.758Z" fill="#387CE1"/>
<path d="M217.339 334.758L191.797 320.288V321.552L217.339 336.022L242.881 321.552L241.763 320.92L217.339 334.758Z" fill="white"/>
<path d="M250.508 353.336L224.966 338.866V367.806L250.508 382.276L276.051 367.806V338.866L250.508 353.336Z" fill="#387CE1"/>
<path d="M250.508 382.276L224.966 367.806V338.866L250.508 353.336V382.276Z" fill="#387CE1"/>
<path d="M276.051 367.806L250.508 382.276V353.336L276.051 338.866V367.806Z" fill="#81A6F4"/>
<path d="M250.508 353.336L224.966 338.866L250.508 324.396L276.051 338.866L250.508 353.336Z" fill="#387CE1"/>
<path d="M250.508 353.336L224.966 338.866V340.13L250.508 354.6L276.051 340.13V338.866L250.508 353.336Z" fill="white"/>
<path d="M250.508 238.124L224.966 223.654V252.594L250.508 267.064L276.051 252.594V223.654L250.508 238.124Z" fill="#387CE1"/>
<path d="M250.508 267.064L224.966 252.594V223.654L250.508 238.124V267.064Z" fill="#387CE1"/>
<path d="M276.051 252.594L250.508 267.064V238.124L276.051 223.654V252.594Z" fill="#81A6F4"/>
<path d="M250.508 238.124L224.966 223.654L250.508 209.184L276.051 223.654L250.508 238.124Z" fill="#387CE1"/>
<path d="M250.508 238.124L226.085 224.286L224.966 224.918L250.508 239.388L276.051 224.918L274.949 224.286L250.508 238.124Z" fill="white"/>
<path opacity="0.7" d="M250.508 348.629L233.085 338.749L250.508 328.886L267.932 338.749L250.508 348.629Z" fill="#387CE1"/>
<path opacity="0.7" d="M217.339 330.051L199.915 320.188L217.339 310.308L234.763 320.188L217.339 330.051Z" fill="#387CE1"/>
<path opacity="0.7" d="M283.678 328.787L266.254 318.924L283.678 309.061L301.102 318.924L283.678 328.787Z" fill="#387CE1"/>
<path opacity="0.7" d="M316.915 309.194L299.491 299.331L316.915 289.451L334.339 299.331L316.915 309.194Z" fill="#387CE1"/>
<path opacity="0.7" d="M184.169 311.473L166.746 301.61L184.169 291.73L201.593 301.61L184.169 311.473Z" fill="#387CE1"/>
<path d="M283.678 256.702L258.153 242.232V271.172L283.678 285.643L309.22 271.172V242.232L283.678 256.702Z" fill="#387CE1"/>
<path d="M283.678 285.643L258.153 271.172V242.232L283.678 256.702V285.643Z" fill="#387CE1"/>
<path d="M309.22 271.172L283.678 285.643V256.702L309.22 242.232V271.172Z" fill="#81A6F4"/>
<path d="M283.678 256.702L258.153 242.232L283.678 227.762L309.22 242.232L283.678 256.702Z" fill="#387CE1"/>
<path d="M283.678 256.702L259.254 242.864L258.153 243.496L283.678 257.95L309.22 243.496L308.119 242.864L283.678 256.702Z" fill="white"/>
<path d="M316.864 275.281L291.322 260.811V289.751L316.864 304.221L342.39 289.751V260.811L316.864 275.281Z" fill="#387CE1"/>
<path d="M316.864 304.221L291.322 289.751V260.811L316.864 275.281V304.221Z" fill="#387CE1"/>
<path d="M342.39 289.751L316.864 304.221V275.281L342.39 260.811V289.751Z" fill="#81A6F4"/>
<path d="M316.864 275.281L291.322 260.811L316.847 246.341L342.39 260.811L316.864 275.281Z" fill="#387CE1"/>
<path d="M316.864 275.281L292.424 261.443L291.322 262.058L316.864 276.528L342.39 262.058V260.811L316.864 275.281Z" fill="white"/>
<path d="M217.339 257.967L191.797 243.496V272.42L217.339 286.89L242.881 272.42V243.496L217.339 257.967Z" fill="#387CE1"/>
<path d="M217.339 286.89L191.797 272.42V243.496L217.339 257.967V286.89Z" fill="#387CE1"/>
<path d="M242.881 272.42L217.339 286.89V257.967L242.881 243.496V272.42Z" fill="#81A6F4"/>
<path d="M217.339 257.967L191.797 243.496L217.339 229.026L242.881 243.496L217.339 257.967Z" fill="#387CE1"/>
<path d="M217.339 257.966L192.915 244.112L191.797 244.744L217.339 259.214L242.881 244.744L241.763 244.112L217.339 257.966Z" fill="white"/>
<path d="M250.508 276.528L224.966 262.058V290.998L250.508 305.468L276.051 290.998V262.058L250.508 276.528Z" fill="#387CE1"/>
<path d="M250.508 305.468L224.966 290.998V262.058L250.508 276.528V305.468Z" fill="#387CE1"/>
<path d="M276.051 290.998L250.508 305.468V276.528L276.051 262.058V290.998Z" fill="#81A6F4"/>
<path d="M250.508 276.528L224.966 262.058L250.508 247.588L276.051 262.058L250.508 276.528Z" fill="#387CE1"/>
<path d="M250.508 276.528L226.085 262.69L224.966 263.322L250.508 277.792L276.051 263.322L274.949 262.69L250.508 276.528Z" fill="white"/>
<path d="M283.678 295.106L258.153 280.636V309.576L283.678 324.046L309.22 309.576V280.636L283.678 295.106Z" fill="#387CE1"/>
<path d="M283.678 324.046L258.153 309.576V280.636L283.678 295.106V324.046Z" fill="#387CE1"/>
<path d="M309.22 309.576L283.678 324.046V295.106L309.22 280.636V309.576Z" fill="#81A6F4"/>
<path d="M283.678 295.106L258.153 280.636L283.678 266.166L309.22 280.636L283.678 295.106Z" fill="#387CE1"/>
<path d="M283.678 295.106L259.254 281.268L258.153 281.884L283.678 296.354L309.22 281.9V280.636L283.678 295.106Z" fill="white"/>
<path d="M184.169 277.792L158.627 263.322V292.262L184.169 306.732L209.712 292.262V263.322L184.169 277.792Z" fill="#387CE1"/>
<path d="M184.169 306.732L158.627 292.262V263.322L184.169 277.792V306.732Z" fill="#387CE1"/>
<path d="M209.712 292.262L184.169 306.732V277.792L209.712 263.322V292.262Z" fill="#81A6F4"/>
<path d="M184.169 277.792L158.627 263.322L184.169 248.852L209.695 263.322L184.169 277.792Z" fill="#387CE1"/>
<path d="M184.169 277.792L159.729 263.938L158.627 264.57L184.169 279.04L209.695 264.57L208.593 263.954L184.169 277.792Z" fill="white"/>
<path d="M217.339 296.354L191.797 281.884V310.824L217.339 325.294L242.881 310.824V281.884L217.339 296.354Z" fill="#387CE1"/>
<path d="M217.339 325.294L191.797 310.824V281.884L217.339 296.354V325.294Z" fill="#387CE1"/>
<path d="M242.881 310.824L217.339 325.294V296.354L242.881 281.884V310.824Z" fill="#81A6F4"/>
<path d="M217.339 296.354L191.797 281.884L217.339 267.43L242.881 281.9L217.339 296.354Z" fill="#387CE1"/>
<path d="M217.339 296.354L191.797 281.884V283.148L217.339 297.618L242.881 283.148L241.763 282.516L217.339 296.354Z" fill="white"/>
<path d="M250.508 314.932L224.966 300.462V329.402L250.508 343.872L276.051 329.402V300.462L250.508 314.932Z" fill="#387CE1"/>
<path d="M250.508 343.872L224.966 329.402V300.462L250.508 314.932V343.872Z" fill="#387CE1"/>
<path d="M276.051 329.402L250.508 343.872V314.932L276.051 300.462V329.402Z" fill="#81A6F4"/>
<path d="M250.508 314.932L224.966 300.462L250.508 285.992L276.051 300.462L250.508 314.932Z" fill="#387CE1"/>
<path d="M250.508 314.932L224.966 300.462V301.726L250.508 316.196L276.051 301.726V300.462L250.508 314.932Z" fill="white"/>
<path opacity="0.7" d="M316.915 270.956L299.491 261.093L316.915 251.214L334.339 261.093L316.915 270.956Z" fill="#387CE1"/>
<path opacity="0.7" d="M184.169 273.252L166.746 263.372L184.169 253.509L201.593 263.372L184.169 273.252Z" fill="#387CE1"/>
<path d="M250.508 199.72L224.966 185.25V214.19L250.508 228.66L276.051 214.19V185.25L250.508 199.72Z" fill="#387CE1"/>
<path d="M250.508 228.66L224.966 214.19V185.25L250.508 199.72V228.66Z" fill="#387CE1"/>
<path d="M276.051 214.19L250.508 228.66V199.72L276.051 185.25V214.19Z" fill="#81A6F4"/>
<path d="M250.508 199.72L224.966 185.25L250.508 170.797L276.051 185.267L250.508 199.72Z" fill="#387CE1"/>
<path d="M250.508 199.72L224.966 185.25V186.514L250.508 200.984L276.051 186.514V185.25L250.508 199.72Z" fill="white"/>
<path d="M283.678 218.299L258.153 203.828V232.769L283.678 247.239L309.22 232.769V203.828L283.678 218.299Z" fill="#387CE1"/>
<path d="M283.678 247.239L258.153 232.769V203.828L283.678 218.299V247.239Z" fill="#387CE1"/>
<path d="M309.22 232.769L283.678 247.239V218.299L309.22 203.828V232.769Z" fill="#81A6F4"/>
<path d="M283.678 218.299L258.153 203.829L283.678 189.358L309.22 203.829L283.678 218.299Z" fill="#387CE1"/>
<path d="M283.678 218.299L258.153 203.828V205.093L283.678 219.563L309.22 205.093V203.828L283.678 218.299Z" fill="white"/>
<path d="M316.864 236.877L291.322 222.407V251.347L316.864 265.817L342.39 251.347V222.407L316.864 236.877Z" fill="#387CE1"/>
<path d="M316.864 265.817L291.322 251.347V222.407L316.864 236.877V265.817Z" fill="#387CE1"/>
<path d="M342.39 251.347L316.864 265.817V236.877L342.39 222.407V251.347Z" fill="#81A6F4"/>
<path d="M316.864 236.877L291.322 222.407L316.847 207.937L342.39 222.407L316.864 236.877Z" fill="#387CE1"/>
<path d="M316.864 236.877L291.322 222.407V223.654L316.864 238.124L342.39 223.654V222.407L316.864 236.877Z" fill="white"/>
<path d="M217.339 219.563L191.797 205.093V234.016L217.339 248.486L242.881 234.016V205.093L217.339 219.563Z" fill="#387CE1"/>
<path d="M217.339 248.486L191.797 234.016V205.093L217.339 219.563V248.486Z" fill="#387CE1"/>
<path d="M242.881 234.016L217.339 248.486V219.563L242.881 205.093V234.016Z" fill="#81A6F4"/>
<path d="M217.339 219.563L191.797 205.093L217.339 190.622L242.881 205.093L217.339 219.563Z" fill="#387CE1"/>
<path d="M217.339 219.563L191.797 205.093V206.34L217.339 220.81L242.881 206.34V205.093L217.339 219.563Z" fill="white"/>
<path d="M184.169 239.388L158.627 224.918V253.858L184.169 268.328L209.712 253.858V224.918L184.169 239.388Z" fill="#387CE1"/>
<path d="M184.169 268.328L158.627 253.858V224.918L184.169 239.388V268.328Z" fill="#387CE1"/>
<path d="M209.712 253.858L184.169 268.328V239.388L209.712 224.918V253.858Z" fill="#81A6F4"/>
<path d="M184.169 239.388L158.627 224.918L184.169 210.448L209.695 224.918L184.169 239.388Z" fill="#387CE1"/>
<path d="M184.169 239.388L158.627 224.918V226.166L184.169 240.636L209.695 226.166L209.712 224.918L184.169 239.388Z" fill="white"/>
</g>
<g opacity="0.2">
<path d="M284.746 313.219L266.932 303.123C263.881 301.393 261.39 297.169 261.39 293.693V289.485C261.39 286.191 259.017 282.166 256.119 280.52L252.39 278.407L252.661 277.958L256.39 280.071C259.441 281.8 261.932 286.042 261.932 289.501V293.709C261.932 297.002 264.305 301.027 267.203 302.674L285.017 312.77L284.746 313.219Z" fill="#387CE1"/>
<path d="M291.678 309.293L273.864 299.198C270.814 297.468 268.322 293.243 268.322 289.767V285.543C268.322 282.249 265.949 278.224 263.051 276.578L259.322 274.466L259.593 274.016L263.322 276.129C266.373 277.859 268.864 282.083 268.864 285.559V289.784C268.864 293.077 271.237 297.102 274.136 298.749L291.949 308.844L291.678 309.293Z" fill="#387CE1"/>
<path d="M298.61 305.368L280.797 295.273C277.746 293.543 275.254 289.318 275.254 285.842V281.617C275.254 278.324 272.881 274.299 269.983 272.653L266.254 270.54L266.525 270.091L270.254 272.204C273.305 273.933 275.797 278.158 275.797 281.634V285.859C275.797 289.152 278.169 293.177 281.068 294.823L298.881 304.919L298.61 305.368Z" fill="#387CE1"/>
<path d="M305.542 301.46L287.729 291.364C284.678 289.634 282.186 285.41 282.186 281.933V277.725C282.186 274.432 279.814 270.407 276.915 268.761L273.186 266.648L273.458 266.199L277.186 268.312C280.237 270.041 282.729 274.283 282.729 277.742V281.95C282.729 285.243 285.102 289.268 288 290.915L305.814 301.011L305.542 301.46Z" fill="#387CE1"/>
<path d="M312.458 297.535L294.644 287.439C291.593 285.709 289.102 281.484 289.102 278.008V273.784C289.102 270.49 286.729 266.465 283.83 264.819L280.102 262.707L280.373 262.258L284.102 264.37C287.153 266.1 289.644 270.324 289.644 273.8V278.025C289.644 281.318 292.017 285.343 294.915 286.99L312.729 297.085L312.458 297.535Z" fill="#387CE1"/>
<path d="M319.39 293.626L301.576 283.53C298.525 281.8 296.034 277.576 296.034 274.1V269.875C296.034 266.582 293.661 262.557 290.763 260.91L287.034 258.798L287.305 258.349L291.034 260.461C294.085 262.191 296.576 266.416 296.576 269.892V274.116C296.576 277.41 298.949 281.435 301.847 283.081L319.661 293.177L319.39 293.626Z" fill="#387CE1"/>
<path d="M326.322 289.701L308.508 279.605C305.458 277.875 302.966 273.651 302.966 270.174V265.966C302.966 262.673 300.593 258.648 297.695 257.002L293.966 254.889L294.237 254.44L297.966 256.553C301.017 258.282 303.508 262.524 303.508 265.983V270.191C303.508 273.484 305.881 277.509 308.78 279.156L326.593 289.252L326.322 289.701Z" fill="#387CE1"/>
<path d="M333.254 285.775L315.441 275.68C312.39 273.95 309.898 269.725 309.898 266.249V262.025C309.898 258.731 307.525 254.706 304.627 253.06L300.898 250.948L301.169 250.498L304.898 252.611C307.949 254.341 310.441 258.565 310.441 262.041V266.266C310.441 269.559 312.814 273.584 315.712 275.231L333.525 285.326L333.254 285.775Z" fill="#387CE1"/>
<path d="M340.186 281.867L322.373 271.771C319.322 270.041 316.83 265.817 316.83 262.341V258.116C316.83 254.823 314.458 250.798 311.559 249.151L307.83 247.039L308.102 246.59L311.83 248.702C314.881 250.432 317.373 254.657 317.373 258.133V262.357C317.373 265.65 319.746 269.676 322.644 271.322L340.458 281.418L340.186 281.867Z" fill="#387CE1"/>
<path d="M347.102 277.942L329.288 267.846C326.237 266.116 323.746 261.892 323.746 258.415V254.207C323.746 250.914 321.373 246.889 318.475 245.243L314.746 243.13L315.017 242.681L318.746 244.794C321.797 246.523 324.288 250.748 324.288 254.224V258.432C324.288 261.725 326.661 265.75 329.559 267.397L347.373 277.493L347.102 277.942Z" fill="#387CE1"/>
<path d="M354.034 274.033L336.22 263.937C333.169 262.208 330.678 257.983 330.678 254.507V250.282C330.678 246.989 328.305 242.964 325.407 241.317L321.678 239.205L321.949 238.756L325.678 240.868C328.729 242.598 331.22 246.823 331.22 250.299V254.523C331.22 257.817 333.593 261.842 336.492 263.488L354.305 273.584L354.034 274.033Z" fill="#387CE1"/>
<path d="M360.966 270.108L343.153 260.012C340.102 258.282 337.61 254.058 337.61 250.582V246.374C337.61 243.081 335.237 239.056 332.339 237.409L328.61 235.297L328.881 234.848L332.61 236.96C335.661 238.69 338.153 242.914 338.153 246.39V250.598C338.153 253.891 340.525 257.916 343.424 259.563L361.237 269.659L360.966 270.108Z" fill="#387CE1"/>
<path d="M367.898 266.199L350.085 256.104C347.034 254.374 344.542 250.149 344.542 246.673V242.465C344.542 239.172 342.169 235.147 339.271 233.5L335.542 231.388L335.814 230.939L339.542 233.051C342.593 234.781 345.085 239.006 345.085 242.482V246.69C345.085 249.983 347.458 254.008 350.356 255.654L368.169 265.75L367.898 266.199Z" fill="#387CE1"/>
<path d="M374.83 262.274L357.017 252.178C353.966 250.449 351.475 246.224 351.475 242.748V238.523C351.475 235.23 349.102 231.205 346.203 229.558L342.475 227.446L342.746 226.997L346.475 229.109C349.525 230.839 352.017 235.064 352.017 238.54V242.764C352.017 246.058 354.39 250.083 357.288 251.729L375.102 261.825L374.83 262.274Z" fill="#387CE1"/>
<path d="M381.746 258.349L363.932 248.253C360.881 246.523 358.39 242.299 358.39 238.823V234.615C358.39 231.321 356.017 227.296 353.119 225.65L349.39 223.538L349.661 223.089L353.39 225.201C356.441 226.931 358.932 231.155 358.932 234.631V238.839C358.932 242.132 361.305 246.157 364.203 247.804L382.017 257.9L381.746 258.349Z" fill="#387CE1"/>
<path d="M388.678 254.44L370.864 244.345C367.814 242.615 365.322 238.39 365.322 234.914V230.689C365.322 227.396 362.949 223.371 360.051 221.725L356.322 219.612L356.593 219.163L360.322 221.276C363.373 223.005 365.864 227.23 365.864 230.706V234.931C365.864 238.224 368.237 242.249 371.136 243.895L388.949 253.991L388.678 254.44Z" fill="#387CE1"/>
<path d="M395.61 250.515L377.797 240.419C374.746 238.69 372.254 234.465 372.254 230.989V226.764C372.254 223.471 369.881 219.446 366.983 217.799L363.254 215.687L363.525 215.238L367.254 217.35C370.305 219.08 372.797 223.305 372.797 226.781V231.005C372.797 234.299 375.169 238.324 378.068 239.97L395.881 250.066L395.61 250.515Z" fill="#387CE1"/>
<path d="M402.542 246.607L384.729 236.511C381.678 234.781 379.186 230.556 379.186 227.08V222.872C379.186 219.579 376.814 215.554 373.915 213.908L370.186 211.795L370.458 211.346L374.186 213.458C377.237 215.188 379.729 219.413 379.729 222.889V227.097C379.729 230.39 382.102 234.415 385 236.062L402.814 246.157L402.542 246.607Z" fill="#387CE1"/>
<path d="M409.475 242.681L391.661 232.586C388.61 230.856 386.119 226.631 386.119 223.155V218.93C386.119 215.637 383.746 211.612 380.847 209.966L377.119 207.853L377.39 207.404L381.119 209.517C384.169 211.246 386.661 215.471 386.661 218.947V223.172C386.661 226.465 389.034 230.49 391.932 232.136L409.746 242.232L409.475 242.681Z" fill="#387CE1"/>
<path d="M416.407 238.773L398.593 228.677C395.542 226.947 393.051 222.723 393.051 219.246V215.022C393.051 211.729 390.678 207.704 387.78 206.057L384.051 203.945L384.322 203.496L388.051 205.608C391.102 207.338 393.593 211.562 393.593 215.038V219.263C393.593 222.556 395.966 226.581 398.864 228.228L416.678 238.324L416.407 238.773Z" fill="#387CE1"/>
<path d="M215.78 313.219L215.508 312.77L233.322 302.674C236.237 301.027 238.593 297.002 238.593 293.709V289.501C238.593 286.042 241.085 281.8 244.136 280.071L247.864 277.958L248.136 278.407L244.407 280.52C241.492 282.166 239.136 286.191 239.136 289.485V293.693C239.136 297.152 236.644 301.393 233.593 303.123L215.78 313.219Z" fill="#387CE1"/>
<path d="M208.864 309.294L208.593 308.845L226.407 298.749C229.322 297.102 231.678 293.077 231.678 289.784V285.559C231.678 282.1 234.169 277.875 237.22 276.129L240.949 274.017L241.22 274.466L237.492 276.578C234.576 278.224 232.22 282.249 232.22 285.543V289.767C232.22 293.227 229.729 297.468 226.678 299.198L208.864 309.294Z" fill="#387CE1"/>
<path d="M201.932 305.368L201.661 304.919L219.475 294.824C222.39 293.177 224.746 289.152 224.746 285.859V281.634C224.746 278.175 227.237 273.933 230.288 272.204L234.017 270.091L234.288 270.54L230.559 272.653C227.644 274.299 225.288 278.324 225.288 281.618V285.842C225.288 289.302 222.797 293.526 219.746 295.273L201.932 305.368Z" fill="#387CE1"/>
<path d="M195 301.46L194.729 301.011L212.542 290.915C215.458 289.268 217.814 285.243 217.814 281.95V277.742C217.814 274.283 220.305 270.041 223.356 268.312L227.085 266.199L227.356 266.648L223.627 268.761C220.712 270.407 218.356 274.432 218.356 277.726V281.934C218.356 285.393 215.864 289.634 212.814 291.364L195 301.46Z" fill="#387CE1"/>
<path d="M188.068 297.535L187.797 297.085L205.61 286.99C208.525 285.343 210.881 281.318 210.881 278.025V273.8C210.881 270.341 213.373 266.116 216.424 264.37L220.152 262.258L220.424 262.707L216.695 264.819C213.78 266.465 211.424 270.49 211.424 273.784V278.008C211.424 281.468 208.932 285.709 205.881 287.439L188.068 297.535Z" fill="#387CE1"/>
<path d="M181.136 293.626L180.864 293.177L198.678 283.081C201.593 281.435 203.949 277.41 203.949 274.116V269.892C203.949 266.432 206.441 262.191 209.491 260.461L213.22 258.349L213.491 258.798L209.763 260.91C206.847 262.557 204.491 266.582 204.491 269.875V274.1C204.491 277.559 202 281.784 198.949 283.53L181.136 293.626Z" fill="#387CE1"/>
<path d="M174.22 289.701L173.949 289.252L191.763 279.156C194.678 277.509 197.034 273.484 197.034 270.191V265.983C197.034 262.524 199.525 258.282 202.576 256.553L206.305 254.44L206.576 254.889L202.847 257.002C199.932 258.648 197.576 262.673 197.576 265.967V270.175C197.576 273.634 195.085 277.875 192.034 279.605L174.22 289.701Z" fill="#387CE1"/>
<path d="M167.288 285.776L167.017 285.326L184.83 275.231C187.746 273.584 190.102 269.559 190.102 266.266V262.041C190.102 258.582 192.593 254.357 195.644 252.611L199.373 250.499L199.644 250.948L195.915 253.06C193 254.706 190.644 258.731 190.644 262.025V266.249C190.644 269.709 188.152 273.95 185.102 275.68L167.288 285.776Z" fill="#387CE1"/>
<path d="M160.356 281.867L160.085 281.418L177.898 271.322C180.814 269.676 183.169 265.651 183.169 262.357V258.133C183.169 254.673 185.661 250.432 188.712 248.702L192.441 246.59L192.712 247.039L188.983 249.151C186.068 250.798 183.712 254.823 183.712 258.116V262.341C183.712 265.8 181.22 270.025 178.169 271.771L160.356 281.867Z" fill="#387CE1"/>
<path d="M153.424 277.942L153.153 277.493L170.966 267.397C173.881 265.75 176.237 261.725 176.237 258.432V254.224C176.237 250.765 178.729 246.523 181.78 244.794L185.508 242.681L185.78 243.13L182.051 245.243C179.136 246.889 176.78 250.914 176.78 254.208V258.416C176.78 261.875 174.288 266.116 171.237 267.846L153.424 277.942Z" fill="#387CE1"/>
<path d="M146.491 274.033L146.22 273.584L164.034 263.488C166.949 261.842 169.305 257.817 169.305 254.524V250.299C169.305 246.839 171.797 242.615 174.847 240.868L178.576 238.756L178.847 239.205L175.119 241.318C172.203 242.964 169.847 246.989 169.847 250.282V254.507C169.847 257.966 167.356 262.191 164.305 263.937L146.491 274.033Z" fill="#387CE1"/>
<path d="M139.559 270.108L139.288 269.659L157.102 259.563C160.017 257.917 162.373 253.892 162.373 250.598V246.39C162.373 242.931 164.864 238.69 167.915 236.96L171.644 234.848L171.915 235.297L168.186 237.409C165.271 239.056 162.915 243.081 162.915 246.374V250.582C162.915 254.041 160.424 258.282 157.373 260.012L139.559 270.108Z" fill="#387CE1"/>
<path d="M132.644 266.199L132.373 265.75L150.186 255.655C153.102 254.008 155.458 249.983 155.458 246.69V242.482C155.458 239.022 157.949 234.781 161 233.051L164.729 230.939L165 231.388L161.271 233.5C158.356 235.147 156 239.172 156 242.465V246.673C156 250.133 153.508 254.374 150.458 256.104L132.644 266.199Z" fill="#387CE1"/>
<path d="M125.712 262.274L125.441 261.825L143.254 251.729C146.169 250.083 148.525 246.058 148.525 242.765V238.54C148.525 235.08 151.017 230.856 154.068 229.109L157.797 226.997L158.068 227.446L154.339 229.559C151.424 231.205 149.068 235.23 149.068 238.523V242.748C149.068 246.207 146.576 250.432 143.525 252.178L125.712 262.274Z" fill="#387CE1"/>
<path d="M118.78 258.349L118.508 257.9L136.322 247.804C139.237 246.158 141.593 242.133 141.593 238.839V234.631C141.593 231.172 144.085 226.931 147.136 225.201L150.864 223.089L151.136 223.538L147.407 225.65C144.491 227.297 142.136 231.322 142.136 234.615V238.823C142.136 242.282 139.644 246.523 136.593 248.253L118.78 258.349Z" fill="#387CE1"/>
<path d="M111.847 254.44L111.576 253.991L129.39 243.895C132.305 242.249 134.661 238.224 134.661 234.931V230.706C134.661 227.247 137.153 223.022 140.203 221.276L143.932 219.163L144.203 219.612L140.475 221.725C137.559 223.371 135.203 227.396 135.203 230.689V234.914C135.203 238.374 132.712 242.615 129.661 244.345L111.847 254.44Z" fill="#387CE1"/>
<path d="M104.915 250.515L104.644 250.066L122.475 239.97C125.39 238.324 127.746 234.299 127.746 231.006V226.781C127.746 223.321 130.237 219.097 133.288 217.35L137.017 215.238L137.288 215.687L133.559 217.8C130.644 219.446 128.288 223.471 128.288 226.764V230.989C128.288 234.448 125.797 238.673 122.746 240.419L104.915 250.515Z" fill="#387CE1"/>
<path d="M98 246.607L97.7288 246.158L115.542 236.062C118.458 234.415 120.814 230.39 120.814 227.097V222.889C120.814 219.429 123.305 215.188 126.356 213.458L130.085 211.346L130.356 211.795L126.627 213.908C123.712 215.554 121.356 219.579 121.356 222.872V227.08C121.356 230.54 118.864 234.781 115.814 236.511L98 246.607Z" fill="#387CE1"/>
<path d="M91.0678 242.681L90.7966 242.232L108.61 232.137C111.525 230.49 113.881 226.465 113.881 223.172V218.947C113.881 215.488 116.373 211.263 119.424 209.517L123.153 207.404L123.424 207.853L119.695 209.966C116.78 211.612 114.424 215.637 114.424 218.931V223.155C114.424 226.615 111.932 230.856 108.881 232.586L91.0678 242.681Z" fill="#387CE1"/>
<path d="M84.1356 238.773L83.8644 238.307L101.678 228.211C104.593 226.565 106.949 222.54 106.949 219.247V215.022C106.949 211.562 109.441 207.321 112.492 205.591L116.22 203.479L116.491 203.928L112.763 206.041C109.847 207.687 107.491 211.712 107.491 215.005V219.23C107.491 222.689 105 226.914 101.949 228.66L84.1356 238.773Z" fill="#387CE1"/>
<path d="M387.407 210.182V225.716L250.508 303.273L113.61 225.7V210.182H387.407Z" fill="url(#paint0_linear_17_573)"/>
<path d="M250.508 287.738L113.61 210.182L250.508 132.626L387.407 210.182L250.508 287.738Z" fill="#BCBEFF"/>
<path d="M250.508 285.925L115.22 209.284L113.61 210.182L250.508 287.738L387.407 210.182L385.797 209.284L250.508 285.925Z" fill="white"/>
</g>
<path d="M236.254 110.472C235.458 110.472 234.593 110.222 233.695 109.706L215.881 99.6107L216.153 99.1616L233.966 109.257C235.322 110.022 236.593 110.156 237.525 109.623C238.458 109.091 238.983 107.96 238.983 106.413V102.205C238.983 100.476 239.593 99.1616 240.695 98.5296C241.797 97.8976 243.254 98.0306 244.797 98.8955L248.525 101.008L248.254 101.457L244.525 99.3446C243.169 98.5795 241.898 98.4464 240.966 98.9786C240.034 99.5109 239.508 100.642 239.508 102.189V106.397C239.508 108.126 238.898 109.44 237.797 110.072C237.339 110.338 236.814 110.472 236.254 110.472Z" fill="#387CE1"/>
<path d="M229.322 114.38C228.542 114.38 227.661 114.131 226.763 113.615L208.949 103.519L209.22 103.07L227.034 113.166C228.39 113.931 229.661 114.064 230.593 113.532C231.525 113 232.051 111.869 232.051 110.322V106.114C232.051 104.384 232.661 103.07 233.763 102.455C234.864 101.823 236.322 101.956 237.864 102.821L241.593 104.933L241.322 105.382L237.593 103.27C236.237 102.505 234.966 102.372 234.034 102.904C233.102 103.436 232.576 104.567 232.576 106.114V110.322C232.576 112.052 231.966 113.366 230.864 113.998C230.407 114.247 229.881 114.38 229.322 114.38Z" fill="#387CE1"/>
<path d="M222.39 118.289C221.593 118.289 220.729 118.039 219.831 117.524L202.017 107.428L202.288 106.979L220.102 117.075C221.458 117.84 222.729 117.973 223.661 117.44C224.593 116.908 225.119 115.777 225.119 114.23V110.006C225.119 108.276 225.729 106.962 226.83 106.347C227.932 105.715 229.39 105.848 230.932 106.713L234.661 108.825L234.39 109.274L230.661 107.162C229.305 106.397 228.034 106.264 227.102 106.796C226.169 107.328 225.644 108.459 225.644 110.006V114.23C225.644 115.96 225.034 117.274 223.932 117.89C223.475 118.156 222.966 118.289 222.39 118.289Z" fill="#387CE1"/>
<path d="M215.475 122.197C214.678 122.197 213.814 121.948 212.915 121.432L195.102 111.336L195.373 110.887L213.186 120.983C214.542 121.748 215.814 121.881 216.746 121.349C217.678 120.817 218.203 119.686 218.203 118.139V113.914C218.203 112.185 218.814 110.871 219.915 110.255C221.017 109.623 222.475 109.756 224.017 110.621L227.746 112.734L227.475 113.183L223.746 111.07C222.39 110.305 221.119 110.172 220.186 110.704C219.254 111.237 218.729 112.368 218.729 113.914V118.139C218.729 119.869 218.119 121.183 217.017 121.798C216.559 122.064 216.034 122.197 215.475 122.197Z" fill="#387CE1"/>
<path d="M208.542 126.106C207.746 126.106 206.881 125.856 205.983 125.341L188.169 115.245L188.441 114.796L206.254 124.892C207.61 125.657 208.881 125.79 209.814 125.258C210.746 124.725 211.271 123.594 211.271 122.048V117.823C211.271 116.093 211.881 114.779 212.983 114.164C214.085 113.532 215.542 113.665 217.085 114.53L220.814 116.642L220.542 117.091L216.814 114.979C215.458 114.214 214.186 114.081 213.254 114.613C212.322 115.145 211.797 116.276 211.797 117.823V122.048C211.797 123.777 211.186 125.091 210.085 125.707C209.627 125.989 209.102 126.106 208.542 126.106Z" fill="#387CE1"/>
<path d="M201.61 130.031C200.83 130.031 199.949 129.782 199.068 129.266L181.254 119.17L181.525 118.721L199.339 128.817C200.695 129.582 201.966 129.715 202.898 129.183C203.83 128.651 204.356 127.52 204.356 125.973V121.748C204.356 120.018 204.966 118.705 206.068 118.089C207.169 117.457 208.627 117.59 210.169 118.455L213.898 120.567L213.627 121.016L209.898 118.904C208.542 118.139 207.271 118.006 206.339 118.538C205.407 119.07 204.881 120.201 204.881 121.748V125.973C204.881 127.703 204.271 129.017 203.169 129.632C202.695 129.898 202.169 130.031 201.61 130.031Z" fill="#387CE1"/>
<path d="M194.678 133.94C193.881 133.94 193.017 133.69 192.119 133.175L174.305 123.079L174.576 122.63L192.39 132.726C193.746 133.491 195.017 133.624 195.949 133.091C196.881 132.559 197.407 131.428 197.407 129.881V125.657C197.407 123.927 198.017 122.613 199.119 121.998C200.22 121.366 201.678 121.499 203.22 122.364L206.949 124.476L206.678 124.925L202.949 122.813C201.593 122.048 200.322 121.915 199.39 122.447C198.458 122.979 197.932 124.11 197.932 125.657V129.881C197.932 131.611 197.322 132.925 196.22 133.54C195.763 133.807 195.237 133.94 194.678 133.94Z" fill="#387CE1"/>
<path d="M187.746 137.848C186.966 137.848 186.085 137.599 185.203 137.083L167.39 126.987L167.661 126.538L185.475 136.634C186.831 137.399 188.102 137.532 189.034 137C189.966 136.468 190.492 135.337 190.492 133.79V129.582C190.492 127.852 191.102 126.538 192.203 125.923C193.305 125.291 194.763 125.424 196.305 126.289L200.034 128.401L199.763 128.85L196.034 126.738C194.678 125.973 193.407 125.84 192.475 126.372C191.542 126.904 191.017 128.035 191.017 129.582V133.79C191.017 135.52 190.407 136.834 189.305 137.449C188.83 137.715 188.322 137.848 187.746 137.848Z" fill="#387CE1"/>
<path d="M180.831 141.757C180.034 141.757 179.169 141.507 178.271 140.992L160.458 130.896L160.729 130.447L178.542 140.543C179.898 141.308 181.169 141.441 182.102 140.909C183.034 140.376 183.559 139.245 183.559 137.699V133.491C183.559 131.761 184.17 130.447 185.271 129.815C186.373 129.183 187.831 129.316 189.373 130.181L193.102 132.293L192.831 132.742L189.102 130.63C187.746 129.865 186.475 129.732 185.542 130.264C184.61 130.796 184.085 131.927 184.085 133.474V137.682C184.085 139.412 183.475 140.726 182.373 141.358C181.898 141.624 181.39 141.757 180.831 141.757Z" fill="#387CE1"/>
<path d="M173.898 145.665C173.119 145.665 172.237 145.416 171.339 144.9L153.525 134.805L153.797 134.355L171.61 144.451C172.966 145.216 174.237 145.349 175.169 144.817C176.102 144.285 176.627 143.154 176.627 141.607V137.399C176.627 135.669 177.237 134.355 178.339 133.74C179.441 133.108 180.898 133.241 182.441 134.106L186.169 136.218L185.898 136.667L182.169 134.555C180.814 133.79 179.542 133.657 178.61 134.189C177.678 134.721 177.153 135.852 177.153 137.399V141.607C177.153 143.337 176.542 144.651 175.441 145.283C174.983 145.532 174.458 145.665 173.898 145.665Z" fill="#387CE1"/>
<path d="M166.966 149.574C166.169 149.574 165.305 149.325 164.407 148.809L146.593 138.713L146.864 138.264L164.678 148.36C166.034 149.125 167.305 149.258 168.237 148.726C169.169 148.194 169.695 147.063 169.695 145.516V141.291C169.695 139.561 170.305 138.247 171.407 137.632C172.508 137 173.966 137.133 175.508 137.998L179.237 140.11L178.966 140.559L175.237 138.447C173.881 137.682 172.61 137.549 171.678 138.081C170.746 138.613 170.22 139.744 170.22 141.291V145.516C170.22 147.245 169.61 148.559 168.508 149.175C168.051 149.458 167.525 149.574 166.966 149.574Z" fill="#387CE1"/>
<path d="M160.034 153.483C159.237 153.483 158.373 153.233 157.475 152.717L139.661 142.622L139.932 142.173L157.746 152.268C159.102 153.034 160.373 153.167 161.305 152.634C162.237 152.102 162.763 150.971 162.763 149.424V145.2C162.763 143.47 163.373 142.156 164.475 141.541C165.576 140.909 167.034 141.042 168.576 141.907L172.305 144.019L172.034 144.468L168.305 142.356C166.949 141.591 165.678 141.457 164.746 141.99C163.814 142.522 163.288 143.653 163.288 145.2V149.424C163.288 151.154 162.678 152.468 161.576 153.083C161.119 153.366 160.593 153.483 160.034 153.483Z" fill="#387CE1"/>
<path d="M153.102 157.408C152.305 157.408 151.441 157.158 150.542 156.643L132.729 146.547L133 146.098L150.814 156.194C152.169 156.959 153.441 157.092 154.373 156.56C155.305 156.027 155.83 154.896 155.83 153.349V149.125C155.83 147.395 156.441 146.081 157.542 145.466C158.644 144.834 160.102 144.967 161.644 145.832L165.373 147.944L165.102 148.393L161.373 146.281C160.017 145.516 158.746 145.383 157.814 145.915C156.881 146.447 156.356 147.578 156.356 149.125V153.349C156.356 155.079 155.746 156.393 154.644 157.009C154.186 157.275 153.661 157.408 153.102 157.408Z" fill="#387CE1"/>
<path d="M146.186 161.316C145.39 161.316 144.525 161.067 143.627 160.551L125.814 150.455L126.085 150.006L143.898 160.102C145.254 160.867 146.525 161 147.458 160.468C148.39 159.936 148.915 158.805 148.915 157.258V153.033C148.915 151.304 149.525 149.99 150.627 149.374C151.729 148.742 153.186 148.875 154.729 149.74L158.458 151.853L158.186 152.302L154.458 150.189C153.102 149.424 151.83 149.291 150.898 149.823C149.966 150.356 149.441 151.487 149.441 153.033V157.258C149.441 158.988 148.83 160.302 147.729 160.917C147.254 161.183 146.746 161.316 146.186 161.316Z" fill="#387CE1"/>
<path d="M139.254 165.225C138.458 165.225 137.593 164.975 136.695 164.46L118.881 154.364L119.153 153.915L136.966 164.011C138.322 164.776 139.593 164.909 140.525 164.377C141.458 163.844 141.983 162.713 141.983 161.167V156.942C141.983 155.212 142.593 153.898 143.695 153.283C144.797 152.651 146.254 152.784 147.797 153.649L151.525 155.761L151.254 156.21L147.525 154.098C146.169 153.333 144.898 153.2 143.966 153.732C143.034 154.264 142.508 155.395 142.508 156.942V161.167C142.508 162.896 141.898 164.21 140.797 164.826C140.339 165.092 139.814 165.225 139.254 165.225Z" fill="#387CE1"/>
<path d="M132.322 169.134C131.525 169.134 130.661 168.884 129.763 168.368L111.949 158.273L112.22 157.824L130.034 167.919C131.39 168.684 132.661 168.818 133.593 168.285C134.525 167.753 135.051 166.622 135.051 165.075V160.867C135.051 159.138 135.661 157.824 136.763 157.192C137.864 156.56 139.322 156.693 140.864 157.557L144.593 159.67L144.322 160.119L140.593 158.007C139.237 157.241 137.966 157.108 137.034 157.641C136.102 158.173 135.576 159.304 135.576 160.851V165.059C135.576 166.788 134.966 168.102 133.864 168.734C133.407 169 132.881 169.134 132.322 169.134Z" fill="#387CE1"/>
<path d="M125.39 173.042C124.593 173.042 123.729 172.793 122.83 172.277L105.017 162.198L105.288 161.749L123.102 171.845C124.458 172.61 125.729 172.743 126.661 172.21C127.593 171.678 128.119 170.547 128.119 169V164.793C128.119 163.063 128.729 161.749 129.83 161.117C130.932 160.485 132.39 160.618 133.932 161.483L137.661 163.595L137.39 164.044L133.661 161.932C132.305 161.167 131.034 161.034 130.102 161.566C129.169 162.098 128.644 163.229 128.644 164.776V168.984C128.644 170.714 128.034 172.028 126.932 172.66C126.475 172.926 125.949 173.042 125.39 173.042Z" fill="#387CE1"/>
<path d="M118.458 176.967C117.661 176.967 116.797 176.718 115.898 176.202L98.0847 166.106L98.3559 165.657L116.169 175.753C117.525 176.518 118.797 176.651 119.729 176.119C120.661 175.587 121.186 174.456 121.186 172.909V168.684C121.186 166.955 121.797 165.641 122.898 165.025C124 164.393 125.458 164.526 127 165.391L130.729 167.504L130.458 167.953L126.729 165.84C125.373 165.075 124.102 164.942 123.169 165.474C122.237 166.007 121.712 167.138 121.712 168.684V172.909C121.712 174.639 121.102 175.953 120 176.568C119.542 176.834 119.017 176.967 118.458 176.967Z" fill="#387CE1"/>
<path d="M111.525 180.876C110.729 180.876 109.864 180.626 108.966 180.111L91.1525 170.015L91.4237 169.566L109.237 179.662C110.593 180.427 111.864 180.56 112.797 180.028C113.729 179.495 114.254 178.364 114.254 176.818V172.593C114.254 170.863 114.864 169.549 115.966 168.934C117.068 168.302 118.525 168.435 120.068 169.3L123.797 171.412L123.525 171.861L119.797 169.749C118.441 168.984 117.169 168.851 116.237 169.383C115.305 169.915 114.78 171.046 114.78 172.593V176.818C114.78 178.547 114.169 179.861 113.068 180.477C112.61 180.743 112.102 180.876 111.525 180.876Z" fill="#387CE1"/>
<path d="M104.61 184.784C103.814 184.784 102.949 184.535 102.051 184.019L84.2373 173.924L84.5085 173.475L102.322 183.57C103.678 184.335 104.949 184.468 105.881 183.936C106.814 183.404 107.339 182.273 107.339 180.726V176.502C107.339 174.772 107.949 173.458 109.051 172.843C110.153 172.21 111.61 172.344 113.153 173.208L116.881 175.321L116.61 175.77L112.881 173.657C111.525 172.892 110.254 172.759 109.322 173.292C108.39 173.824 107.864 174.955 107.864 176.502V180.726C107.864 182.456 107.254 183.77 106.153 184.385C105.695 184.651 105.169 184.784 104.61 184.784Z" fill="#387CE1"/>
<path d="M264.644 110.788C264.085 110.788 263.559 110.654 263.102 110.388C262 109.756 261.39 108.459 261.39 106.729V102.505C261.39 100.958 260.881 99.8269 259.932 99.2947C259 98.7624 257.729 98.8955 256.373 99.6606L252.644 101.773L252.373 101.324L256.102 99.2115C257.627 98.3466 259.085 98.2136 260.203 98.8456C261.305 99.4776 261.915 100.775 261.915 102.505V106.729C261.915 108.276 262.424 109.407 263.373 109.939C264.305 110.472 265.576 110.339 266.932 109.573L284.746 99.4776L285.017 99.9267L267.203 110.022C266.305 110.521 265.441 110.788 264.644 110.788Z" fill="#387CE1"/>
<path d="M271.576 114.696C271.017 114.696 270.491 114.563 270.034 114.297C268.932 113.665 268.322 112.368 268.322 110.638V106.413C268.322 104.866 267.814 103.735 266.864 103.203C265.932 102.671 264.661 102.804 263.305 103.569L259.576 105.681L259.305 105.232L263.034 103.12C264.559 102.255 266.017 102.122 267.136 102.754C268.237 103.386 268.847 104.684 268.847 106.413V110.638C268.847 112.185 269.356 113.316 270.305 113.848C271.237 114.38 272.508 114.247 273.864 113.482L291.678 103.386L291.949 103.835L274.136 113.931C273.237 114.447 272.373 114.696 271.576 114.696Z" fill="#387CE1"/>
<path d="M278.508 118.605C277.949 118.605 277.424 118.472 276.966 118.206C275.864 117.574 275.254 116.276 275.254 114.546V110.338C275.254 108.792 274.746 107.661 273.797 107.128C272.864 106.596 271.593 106.729 270.237 107.494L266.508 109.607L266.237 109.158L269.966 107.045C271.492 106.18 272.949 106.047 274.068 106.679C275.169 107.311 275.78 108.609 275.78 110.355V114.563C275.78 116.11 276.288 117.241 277.237 117.773C278.169 118.305 279.441 118.172 280.797 117.407L298.61 107.311L298.881 107.76L281.068 117.856C280.169 118.355 279.288 118.605 278.508 118.605Z" fill="#387CE1"/>
<path d="M285.441 122.513C284.881 122.513 284.356 122.38 283.898 122.131C282.797 121.499 282.186 120.201 282.186 118.455V114.247C282.186 112.7 281.678 111.569 280.729 111.037C279.797 110.505 278.525 110.638 277.169 111.403L273.441 113.515L273.169 113.066L276.898 110.954C278.424 110.089 279.881 109.956 281 110.588C282.102 111.22 282.712 112.517 282.712 114.264V118.472C282.712 120.018 283.22 121.149 284.169 121.682C285.102 122.214 286.373 122.081 287.729 121.316L305.542 111.22L305.814 111.669L288 121.765C287.085 122.264 286.22 122.513 285.441 122.513Z" fill="#387CE1"/>
<path d="M292.373 126.439C291.814 126.439 291.288 126.305 290.83 126.056C289.729 125.424 289.119 124.127 289.119 122.38V118.172C289.119 116.625 288.61 115.494 287.661 114.962C286.729 114.43 285.458 114.563 284.102 115.328L280.373 117.44L280.102 116.991L283.83 114.879C285.356 114.014 286.814 113.881 287.932 114.513C289.034 115.145 289.644 116.443 289.644 118.172V122.38C289.644 123.927 290.152 125.058 291.102 125.59C292.034 126.122 293.305 125.989 294.661 125.224L312.475 115.129L312.746 115.578L294.932 125.673C294.017 126.172 293.152 126.439 292.373 126.439Z" fill="#387CE1"/>
<path d="M299.288 130.347C298.729 130.347 298.203 130.214 297.746 129.965C296.644 129.333 296.034 128.035 296.034 126.305V122.081C296.034 120.534 295.525 119.403 294.576 118.871C293.644 118.339 292.373 118.472 291.017 119.237L287.288 121.349L287.017 120.9L290.746 118.788C292.271 117.923 293.729 117.79 294.847 118.422C295.949 119.054 296.559 120.351 296.559 122.081V126.305C296.559 127.852 297.068 128.983 298.017 129.515C298.949 130.048 300.22 129.915 301.576 129.15L319.39 119.054L319.661 119.503L301.847 129.599C300.949 130.081 300.085 130.347 299.288 130.347Z" fill="#387CE1"/>
<path d="M306.22 134.256C305.661 134.256 305.136 134.123 304.678 133.873C303.576 133.241 302.966 131.944 302.966 130.214V125.989C302.966 124.443 302.458 123.312 301.508 122.779C300.576 122.247 299.305 122.38 297.949 123.145L294.22 125.258L293.949 124.809L297.678 122.696C299.203 121.831 300.661 121.698 301.78 122.33C302.881 122.962 303.492 124.26 303.492 125.989V130.197C303.492 131.744 304 132.875 304.949 133.407C305.881 133.94 307.153 133.807 308.508 133.042L326.322 122.946L326.593 123.395L308.78 133.491C307.881 134.006 307.017 134.256 306.22 134.256Z" fill="#387CE1"/>
<path d="M313.153 138.164C312.593 138.164 312.068 138.031 311.61 137.765C310.508 137.133 309.898 135.836 309.898 134.106V129.881C309.898 128.335 309.39 127.204 308.441 126.671C307.508 126.139 306.237 126.272 304.881 127.037L301.153 129.15L300.881 128.701L304.61 126.588C306.152 125.723 307.593 125.59 308.712 126.222C309.814 126.854 310.424 128.152 310.424 129.881V134.106C310.424 135.653 310.932 136.784 311.881 137.316C312.814 137.848 314.085 137.715 315.441 136.95L333.254 126.854L333.525 127.303L315.712 137.399C314.814 137.915 313.949 138.164 313.153 138.164Z" fill="#387CE1"/>
<path d="M320.085 142.073C319.525 142.073 319 141.94 318.542 141.674C317.441 141.042 316.83 139.744 316.83 138.015V133.79C316.83 132.243 316.322 131.112 315.373 130.58C314.441 130.048 313.169 130.181 311.814 130.946L308.085 133.058L307.814 132.609L311.542 130.497C313.068 129.632 314.525 129.499 315.644 130.131C316.746 130.763 317.356 132.06 317.356 133.79V138.015C317.356 139.561 317.864 140.692 318.814 141.225C319.746 141.757 321.017 141.624 322.373 140.859L340.186 130.763L340.458 131.212L322.644 141.308C321.746 141.823 320.864 142.073 320.085 142.073Z" fill="#387CE1"/>
<path d="M327.017 145.981C326.458 145.981 325.932 145.848 325.475 145.582C324.373 144.95 323.763 143.653 323.763 141.923V137.699C323.763 136.152 323.254 135.021 322.305 134.489C321.373 133.956 320.102 134.089 318.746 134.854L315.017 136.967L314.746 136.518L318.475 134.405C320.017 133.54 321.458 133.407 322.576 134.039C323.678 134.671 324.288 135.969 324.288 137.699V141.923C324.288 143.47 324.797 144.601 325.746 145.133C326.678 145.665 327.949 145.532 329.305 144.767L347.119 134.671L347.39 135.121L329.576 145.216C328.661 145.732 327.797 145.981 327.017 145.981Z" fill="#387CE1"/>
<path d="M333.932 149.907C333.373 149.907 332.847 149.774 332.39 149.507C331.288 148.875 330.678 147.578 330.678 145.848V141.64C330.678 140.094 330.169 138.963 329.22 138.43C328.288 137.898 327.017 138.031 325.661 138.796L321.932 140.909L321.661 140.46L325.39 138.347C326.915 137.482 328.373 137.349 329.492 137.981C330.593 138.613 331.203 139.911 331.203 141.657V145.865C331.203 147.412 331.712 148.543 332.661 149.075C333.593 149.607 334.864 149.474 336.22 148.709L354.034 138.613L354.305 139.062L336.492 149.158C335.593 149.641 334.729 149.907 333.932 149.907Z" fill="#387CE1"/>
<path d="M340.864 153.815C340.305 153.815 339.78 153.682 339.322 153.433C338.22 152.801 337.61 151.503 337.61 149.757V145.549C337.61 144.002 337.102 142.871 336.153 142.339C335.22 141.807 333.949 141.94 332.593 142.705L328.864 144.817L328.593 144.368L332.322 142.256C333.847 141.391 335.305 141.258 336.424 141.89C337.525 142.522 338.136 143.819 338.136 145.566V149.774C338.136 151.32 338.644 152.451 339.593 152.984C340.525 153.516 341.797 153.383 343.153 152.618L360.966 142.522L361.237 142.971L343.424 153.067C342.525 153.549 341.661 153.815 340.864 153.815Z" fill="#387CE1"/>
<path d="M347.797 157.724C347.237 157.724 346.712 157.591 346.254 157.341C345.153 156.709 344.542 155.412 344.542 153.666V149.458C344.542 147.911 344.034 146.78 343.085 146.248C342.153 145.715 340.881 145.848 339.525 146.613L335.797 148.726L335.525 148.277L339.254 146.164C340.78 145.3 342.237 145.166 343.356 145.798C344.458 146.431 345.068 147.728 345.068 149.458V153.666C345.068 155.212 345.576 156.343 346.525 156.876C347.458 157.408 348.729 157.275 350.085 156.51L367.898 146.414L368.169 146.863L350.356 156.959C349.458 157.474 348.593 157.724 347.797 157.724Z" fill="#387CE1"/>
<path d="M354.729 161.632C354.169 161.632 353.644 161.499 353.186 161.25C352.085 160.618 351.475 159.321 351.475 157.591V153.366C351.475 151.819 350.966 150.688 350.017 150.156C349.085 149.624 347.814 149.757 346.458 150.522L342.729 152.634L342.458 152.185L346.186 150.073C347.712 149.208 349.169 149.075 350.288 149.707C351.39 150.339 352 151.636 352 153.366V157.591C352 159.138 352.508 160.269 353.458 160.801C354.39 161.333 355.661 161.2 357.017 160.435L374.83 150.339L375.102 150.788L357.288 160.884C356.39 161.383 355.508 161.632 354.729 161.632Z" fill="#387CE1"/>
<path d="M361.661 165.541C361.102 165.541 360.576 165.408 360.119 165.158C359.017 164.526 358.407 163.229 358.407 161.499V157.275C358.407 155.728 357.898 154.597 356.949 154.065C356.017 153.532 354.746 153.666 353.39 154.431L349.661 156.543L349.39 156.094L353.119 153.982C354.644 153.117 356.102 152.984 357.22 153.616C358.322 154.248 358.932 155.545 358.932 157.275V161.499C358.932 163.046 359.441 164.177 360.39 164.709C361.322 165.242 362.593 165.109 363.949 164.343L381.763 154.248L382.034 154.697L364.22 164.793C363.305 165.291 362.441 165.541 361.661 165.541Z" fill="#387CE1"/>
<path d="M368.576 169.45C368.017 169.45 367.492 169.316 367.034 169.05C365.932 168.418 365.322 167.121 365.322 165.391V161.167C365.322 159.62 364.814 158.489 363.864 157.957C362.932 157.424 361.661 157.557 360.305 158.323L356.576 160.435L356.305 159.986L360.034 157.873C361.576 157.009 363.017 156.876 364.136 157.508C365.237 158.14 365.847 159.437 365.847 161.167V165.391C365.847 166.938 366.356 168.069 367.305 168.601C368.237 169.134 369.508 169 370.864 168.235L388.678 158.14L388.949 158.589L371.136 168.684C370.237 169.2 369.373 169.45 368.576 169.45Z" fill="#387CE1"/>
<path d="M375.508 173.375C374.949 173.375 374.424 173.242 373.966 172.976C372.864 172.344 372.254 171.046 372.254 169.317V165.092C372.254 163.545 371.746 162.414 370.797 161.882C369.864 161.35 368.593 161.483 367.237 162.248L363.508 164.36L363.237 163.911L366.966 161.799C368.491 160.934 369.949 160.801 371.068 161.433C372.186 162.065 372.78 163.362 372.78 165.092V169.317C372.78 170.863 373.288 171.994 374.237 172.527C375.169 173.059 376.441 172.926 377.797 172.161L395.61 162.065L395.881 162.514L378.068 172.61C377.169 173.109 376.305 173.375 375.508 173.375Z" fill="#387CE1"/>
<path d="M382.441 177.283C381.881 177.283 381.356 177.15 380.898 176.884C379.797 176.252 379.186 174.955 379.186 173.225V169.017C379.186 167.47 378.678 166.339 377.729 165.807C376.797 165.275 375.525 165.408 374.169 166.173L370.441 168.285L370.169 167.836L373.898 165.724C375.424 164.859 376.881 164.726 378 165.358C379.102 165.99 379.712 167.287 379.712 169.017V173.225C379.712 174.772 380.22 175.903 381.169 176.435C382.102 176.967 383.373 176.834 384.729 176.069L402.542 165.973L402.814 166.422L385 176.518C384.102 177.017 383.237 177.283 382.441 177.283Z" fill="#387CE1"/>
<path d="M389.373 181.192C388.814 181.192 388.288 181.059 387.83 180.809C386.729 180.177 386.119 178.88 386.119 177.134V172.926C386.119 171.379 385.61 170.248 384.661 169.716C383.729 169.183 382.458 169.317 381.102 170.082L377.373 172.194L377.102 171.745L380.831 169.633C382.356 168.768 383.814 168.635 384.932 169.267C386.034 169.899 386.644 171.196 386.644 172.942V177.15C386.644 178.697 387.153 179.828 388.102 180.36C389.034 180.893 390.305 180.76 391.661 179.994L409.475 169.899L409.746 170.348L391.932 180.444C391.034 180.942 390.153 181.192 389.373 181.192Z" fill="#387CE1"/>
<path d="M396.305 185.101C395.746 185.101 395.22 184.967 394.763 184.718C393.661 184.086 393.051 182.789 393.051 181.042V176.834C393.051 175.287 392.542 174.156 391.593 173.624C390.661 173.092 389.39 173.225 388.034 173.99L384.305 176.102L384.034 175.653L387.763 173.541C389.288 172.676 390.746 172.543 391.864 173.175C392.966 173.807 393.576 175.105 393.576 176.834V181.042C393.576 182.589 394.085 183.72 395.034 184.252C395.966 184.785 397.237 184.651 398.593 183.886L416.407 173.791L416.678 174.24L398.864 184.335C397.949 184.851 397.085 185.101 396.305 185.101Z" fill="#387CE1"/>
<path d="M387.407 177.383V192.901L250.508 270.474L113.61 192.901V177.383H387.407Z" fill="url(#paint1_linear_17_573)"/>
<path d="M250.508 254.939L113.61 177.383L250.508 99.8269L387.407 177.383L250.508 254.939Z" fill="#BCBEFF"/>
<path d="M250.508 253.126L115.22 176.468L113.61 177.383L250.508 254.939L387.407 177.383L385.797 176.485L250.508 253.126Z" fill="white"/>
<path d="M250.508 237.06L145.22 177.4L250.508 117.757L355.797 177.4L250.508 237.06Z" fill="#0F054C"/>
<path opacity="0.5" d="M250.508 237.06L145.22 177.4L250.508 117.757L355.797 177.4L250.508 237.06Z" fill="#105DCF"/>
<path opacity="0.5" d="M250.508 102.704L355.797 162.364V177.4L250.508 117.74V102.704Z" fill="#2E00C3"/>
<path opacity="0.5" d="M250.508 117.74L145.22 177.4V162.364L250.508 102.704V117.74Z" fill="url(#paint2_linear_17_573)"/>
<path opacity="0.5" d="M250.508 222.007L145.22 162.364L250.508 102.704L355.797 162.364L250.508 222.007Z" fill="#387CE1"/>
<path opacity="0.5" d="M250.508 186.198L208.441 162.364L250.508 138.53L292.576 162.364L250.508 186.198Z" fill="#387CE1"/>
<path opacity="0.5" d="M250.508 140.709L290.644 163.462L292.576 162.364L250.508 138.53L208.441 162.364L210.373 163.462L250.508 140.709Z" fill="#387CE1"/>
<path opacity="0.5" d="M250.508 222.007V237.06L355.797 177.4V162.364L250.508 222.007Z" fill="url(#paint3_linear_17_573)"/>
<path opacity="0.5" d="M145.22 162.364V177.4L250.508 237.06V222.007L145.22 162.364Z" fill="#387CE1"/>
<path opacity="0.8" d="M250.508 220.378L146.661 161.533L145.22 162.364L250.508 222.008L355.797 162.364L354.356 161.533L250.508 220.378Z" fill="#387CE1"/>
<path d="M284.746 288.703L266.932 278.607C263.881 276.877 261.39 272.653 261.39 269.177V264.952C261.39 261.659 259.017 257.634 256.119 255.987L252.39 253.875L252.661 253.426L256.39 255.538C259.441 257.268 261.932 261.492 261.932 264.969V269.193C261.932 272.486 264.305 276.511 267.203 278.158L285.017 288.254L284.746 288.703Z" fill="#387CE1"/>
<path d="M291.678 284.778L273.864 274.682C270.814 272.952 268.322 268.728 268.322 265.251V261.027C268.322 257.734 265.949 253.709 263.051 252.062L259.322 249.95L259.593 249.501L263.322 251.613C266.373 253.343 268.864 257.567 268.864 261.043V265.268C268.864 268.561 271.237 272.586 274.136 274.233L291.949 284.329L291.678 284.778Z" fill="#387CE1"/>
<path d="M298.61 280.869L280.797 270.773C277.746 269.044 275.254 264.819 275.254 261.343V257.135C275.254 253.842 272.881 249.817 269.983 248.17L266.254 246.058L266.525 245.609L270.254 247.721C273.305 249.451 275.797 253.692 275.797 257.151V261.359C275.797 264.653 278.169 268.678 281.068 270.324L298.881 280.42L298.61 280.869Z" fill="#387CE1"/>
<path d="M305.542 276.944L287.729 266.848C284.678 265.118 282.186 260.894 282.186 257.418V253.193C282.186 249.9 279.814 245.875 276.915 244.228L273.186 242.116L273.458 241.667L277.186 243.779C280.237 245.509 282.729 249.733 282.729 253.21V257.434C282.729 260.727 285.102 264.752 288 266.399L305.814 276.495L305.542 276.944Z" fill="#387CE1"/>
<path d="M312.458 273.035L294.644 262.939C291.593 261.21 289.102 256.985 289.102 253.509V249.284C289.102 245.991 286.729 241.966 283.83 240.32L280.102 238.207L280.373 237.758L284.102 239.871C287.153 241.6 289.644 245.825 289.644 249.301V253.526C289.644 256.819 292.017 260.844 294.915 262.49L312.729 272.586L312.458 273.035Z" fill="#387CE1"/>
<path d="M319.39 269.11L301.576 259.014C298.525 257.285 296.034 253.06 296.034 249.584V245.376C296.034 242.083 293.661 238.058 290.763 236.411L287.034 234.299L287.305 233.85L291.034 235.962C294.085 237.692 296.576 241.916 296.576 245.392V249.6C296.576 252.894 298.949 256.919 301.847 258.565L319.661 268.661L319.39 269.11Z" fill="#387CE1"/>
<path d="M326.322 265.185L308.508 255.089C305.458 253.359 302.966 249.135 302.966 245.659V241.434C302.966 238.141 300.593 234.116 297.695 232.469L293.966 230.357L294.237 229.908L297.966 232.02C301.017 233.75 303.508 237.974 303.508 241.451V245.675C303.508 248.968 305.881 252.993 308.78 254.64L326.593 264.736L326.322 265.185Z" fill="#387CE1"/>
<path d="M333.254 261.276L315.441 251.181C312.39 249.451 309.898 245.226 309.898 241.75V237.525C309.898 234.232 307.525 230.207 304.627 228.561L300.898 226.448L301.169 225.999L304.898 228.112C307.949 229.841 310.441 234.066 310.441 237.542V241.767C310.441 245.06 312.814 249.085 315.712 250.731L333.525 260.827L333.254 261.276Z" fill="#387CE1"/>
<path d="M340.186 257.351L322.373 247.255C319.322 245.526 316.83 241.301 316.83 237.825V233.617C316.83 230.324 314.458 226.299 311.559 224.652L307.831 222.54L308.102 222.091L311.831 224.203C314.881 225.933 317.373 230.157 317.373 233.633V237.841C317.373 241.135 319.746 245.16 322.644 246.806L340.458 256.902L340.186 257.351Z" fill="#387CE1"/>
<path d="M347.102 253.442L329.288 243.347C326.237 241.617 323.746 237.392 323.746 233.916V229.692C323.746 226.398 321.373 222.373 318.475 220.727L314.746 218.614L315.017 218.165L318.746 220.278C321.797 222.007 324.288 226.232 324.288 229.708V233.933C324.288 237.226 326.661 241.251 329.559 242.898L347.373 252.993L347.102 253.442Z" fill="#387CE1"/>
<path d="M354.034 249.517L336.22 239.421C333.169 237.692 330.678 233.467 330.678 229.991V225.766C330.678 222.473 328.305 218.448 325.407 216.802L321.678 214.689L321.949 214.24L325.678 216.353C328.729 218.082 331.22 222.307 331.22 225.783V230.008C331.22 233.301 333.593 237.326 336.492 238.972L354.305 249.068L354.034 249.517Z" fill="#387CE1"/>
<path d="M360.966 245.609L343.153 235.513C340.102 233.783 337.61 229.559 337.61 226.082V221.874C337.61 218.581 335.237 214.556 332.339 212.91L328.61 210.797L328.881 210.348L332.61 212.461C335.661 214.19 338.153 218.415 338.153 221.891V226.099C338.153 229.392 340.525 233.417 343.424 235.064L361.237 245.16L360.966 245.609Z" fill="#387CE1"/>
<path d="M367.898 241.683L350.085 231.588C347.034 229.858 344.542 225.633 344.542 222.157V217.933C344.542 214.639 342.169 210.614 339.271 208.968L335.542 206.855L335.814 206.406L339.542 208.519C342.593 210.248 345.085 214.473 345.085 217.949V222.174C345.085 225.467 347.458 229.492 350.356 231.139L368.17 241.234L367.898 241.683Z" fill="#387CE1"/>
<path d="M374.83 237.758L357.017 227.662C353.966 225.933 351.475 221.708 351.475 218.232V214.007C351.475 210.714 349.102 206.689 346.203 205.043L342.475 202.93L342.746 202.481L346.475 204.593C349.525 206.323 352.017 210.548 352.017 214.024V218.249C352.017 221.542 354.39 225.567 357.288 227.213L375.102 237.309L374.83 237.758Z" fill="#387CE1"/>
<path d="M381.746 233.85L363.932 223.754C360.881 222.024 358.39 217.8 358.39 214.323V210.115C358.39 206.822 356.017 202.797 353.119 201.151L349.39 199.038L349.661 198.589L353.39 200.702C356.441 202.431 358.932 206.673 358.932 210.132V214.34C358.932 217.633 361.305 221.658 364.203 223.305L382.017 233.401L381.746 233.85Z" fill="#387CE1"/>
<path d="M388.678 229.924L370.864 219.829C367.814 218.099 365.322 213.874 365.322 210.398V206.174C365.322 202.88 362.949 198.855 360.051 197.209L356.322 195.096L356.593 194.647L360.322 196.76C363.373 198.489 365.864 202.714 365.864 206.19V210.415C365.864 213.708 368.237 217.733 371.136 219.38L388.949 229.475L388.678 229.924Z" fill="#387CE1"/>
<path d="M395.61 226.016L377.797 215.92C374.746 214.19 372.254 209.966 372.254 206.49V202.265C372.254 198.972 369.881 194.947 366.983 193.3L363.254 191.188L363.525 190.739L367.254 192.851C370.305 194.581 372.797 198.805 372.797 202.282V206.506C372.797 209.799 375.169 213.824 378.068 215.471L395.881 225.567L395.61 226.016Z" fill="#387CE1"/>
<path d="M402.542 222.091L384.729 211.995C381.678 210.265 379.186 206.041 379.186 202.564V198.356C379.186 195.063 376.814 191.038 373.915 189.392L370.186 187.279L370.458 186.83L374.186 188.943C377.237 190.672 379.729 194.914 379.729 198.373V202.581C379.729 205.874 382.102 209.899 385 211.546L402.814 221.642L402.542 222.091Z" fill="#387CE1"/>
<path d="M409.475 218.182L391.661 208.086C388.61 206.357 386.119 202.132 386.119 198.656V194.431C386.119 191.138 383.746 187.113 380.847 185.466L377.119 183.354L377.39 182.905L381.119 185.017C384.169 186.747 386.661 190.972 386.661 194.448V198.672C386.661 201.966 389.034 205.991 391.932 207.637L409.746 217.733L409.475 218.182Z" fill="#387CE1"/>
<path d="M416.407 214.257L398.593 204.161C395.542 202.431 393.051 198.207 393.051 194.731V190.506C393.051 187.213 390.678 183.188 387.78 181.541L384.051 179.429L384.322 178.98L388.051 181.092C391.102 182.822 393.593 187.046 393.593 190.523V194.747C393.593 198.04 395.966 202.065 398.864 203.712L416.678 213.808L416.407 214.257Z" fill="#387CE1"/>
<path d="M215.78 288.703L215.508 288.254L233.322 278.158C236.237 276.511 238.593 272.486 238.593 269.193V264.969C238.593 261.509 241.085 257.285 244.136 255.538L247.864 253.426L248.136 253.875L244.407 255.987C241.492 257.634 239.136 261.659 239.136 264.952V269.177C239.136 272.636 236.644 276.877 233.593 278.607L215.78 288.703Z" fill="#387CE1"/>
<path d="M208.864 284.778L208.593 284.329L226.407 274.233C229.322 272.586 231.678 268.561 231.678 265.268V261.043C231.678 257.584 234.169 253.343 237.22 251.613L240.949 249.501L241.22 249.95L237.492 252.062C234.576 253.709 232.22 257.734 232.22 261.027V265.251C232.22 268.711 229.729 272.935 226.678 274.682L208.864 284.778Z" fill="#387CE1"/>
<path d="M201.932 280.869L201.661 280.42L219.475 270.324C222.39 268.678 224.746 264.653 224.746 261.359V257.151C224.746 253.692 227.237 249.451 230.288 247.721L234.017 245.609L234.288 246.058L230.559 248.17C227.644 249.817 225.288 253.842 225.288 257.135V261.343C225.288 264.802 222.797 269.044 219.746 270.773L201.932 280.869Z" fill="#387CE1"/>
<path d="M195 276.944L194.729 276.495L212.542 266.399C215.458 264.752 217.814 260.727 217.814 257.434V253.21C217.814 249.75 220.305 245.525 223.356 243.779L227.085 241.667L227.356 242.116L223.627 244.228C220.712 245.875 218.356 249.9 218.356 253.193V257.418C218.356 260.877 215.864 265.118 212.814 266.848L195 276.944Z" fill="#387CE1"/>
<path d="M188.068 273.035L187.797 272.586L205.61 262.49C208.525 260.844 210.881 256.819 210.881 253.526V249.301C210.881 245.842 213.373 241.6 216.424 239.871L220.152 237.758L220.424 238.207L216.695 240.32C213.78 241.966 211.424 245.991 211.424 249.284V253.509C211.424 256.969 208.932 261.193 205.881 262.939L188.068 273.035Z" fill="#387CE1"/>
<path d="M181.136 269.11L180.864 268.661L198.678 258.565C201.593 256.919 203.949 252.894 203.949 249.6V245.392C203.949 241.933 206.441 237.692 209.491 235.962L213.22 233.85L213.491 234.299L209.763 236.411C206.847 238.058 204.491 242.083 204.491 245.376V249.584C204.491 253.043 202 257.285 198.949 259.014L181.136 269.11Z" fill="#387CE1"/>
<path d="M174.22 265.185L173.949 264.736L191.763 254.64C194.678 252.993 197.034 248.968 197.034 245.675V241.451C197.034 237.991 199.525 233.767 202.576 232.02L206.305 229.908L206.576 230.357L202.847 232.469C199.932 234.116 197.576 238.141 197.576 241.434V245.659C197.576 249.118 195.085 253.359 192.034 255.089L174.22 265.185Z" fill="#387CE1"/>
<path d="M167.288 261.276L167.017 260.827L184.83 250.731C187.746 249.085 190.102 245.06 190.102 241.767V237.542C190.102 234.083 192.593 229.841 195.644 228.112L199.373 225.999L199.644 226.448L195.915 228.561C193 230.207 190.644 234.232 190.644 237.525V241.75C190.644 245.21 188.153 249.434 185.102 251.181L167.288 261.276Z" fill="#387CE1"/>
<path d="M131.61 273.251L131.475 273.185L55.7119 230.49L55.983 230.024L131.627 272.636L160.102 256.885L177.915 246.79C180.83 245.143 183.186 241.118 183.186 237.825V233.617C183.186 230.157 185.678 225.916 188.729 224.186L192.458 222.074L192.729 222.523L189 224.635C186.085 226.282 183.729 230.307 183.729 233.6V237.808C183.729 241.268 181.237 245.509 178.186 247.239L160.373 257.334L131.61 273.251Z" fill="#387CE1"/>
<path d="M153.424 253.442L153.152 252.993L170.966 242.898C173.881 241.251 176.237 237.226 176.237 233.933V229.708C176.237 226.249 178.729 222.024 181.78 220.278L185.508 218.165L185.78 218.614L182.051 220.727C179.136 222.373 176.78 226.398 176.78 229.692V233.916C176.78 237.376 174.288 241.617 171.237 243.347L153.424 253.442Z" fill="#387CE1"/>
<path d="M146.491 249.517L146.22 249.068L164.034 238.972C166.949 237.326 169.305 233.301 169.305 230.008V225.783C169.305 222.324 171.797 218.082 174.847 216.353L178.576 214.24L178.847 214.689L175.119 216.802C172.203 218.448 169.847 222.473 169.847 225.766V229.991C169.847 233.451 167.356 237.675 164.305 239.421L146.491 249.517Z" fill="#387CE1"/>
<path d="M139.559 245.609L139.288 245.16L157.102 235.064C160.017 233.417 162.373 229.392 162.373 226.099V221.891C162.373 218.432 164.864 214.19 167.915 212.461L171.644 210.348L171.915 210.797L168.186 212.91C165.271 214.556 162.915 218.581 162.915 221.874V226.082C162.915 229.542 160.424 233.783 157.373 235.513L139.559 245.609Z" fill="#387CE1"/>
<path d="M132.644 241.683L132.373 241.234L150.186 231.139C153.102 229.492 155.458 225.467 155.458 222.174V217.949C155.458 214.49 157.949 210.265 161 208.519L164.729 206.406L165 206.855L161.271 208.968C158.356 210.614 156 214.639 156 217.933V222.157C156 225.617 153.508 229.858 150.458 231.588L132.644 241.683Z" fill="#387CE1"/>
<path d="M125.712 237.758L125.441 237.309L143.254 227.213C146.169 225.567 148.525 221.542 148.525 218.249V214.024C148.525 210.564 151.017 206.323 154.068 204.593L157.797 202.481L158.068 202.93L154.339 205.043C151.424 206.689 149.068 210.714 149.068 214.007V218.232C149.068 221.691 146.576 225.916 143.525 227.662L125.712 237.758Z" fill="#387CE1"/>
<path d="M118.78 233.85L118.508 233.401L136.322 223.305C139.237 221.658 141.593 217.633 141.593 214.34V210.132C141.593 206.673 144.085 202.431 147.136 200.702L150.864 198.589L151.136 199.038L147.407 201.151C144.491 202.797 142.136 206.822 142.136 210.115V214.323C142.136 217.783 139.644 222.024 136.593 223.754L118.78 233.85Z" fill="#387CE1"/>
<path d="M111.847 229.924L111.576 229.475L129.39 219.38C132.305 217.733 134.661 213.708 134.661 210.415V206.19C134.661 202.731 137.153 198.506 140.203 196.76L143.932 194.647L144.203 195.096L140.475 197.209C137.559 198.855 135.203 202.88 135.203 206.174V210.398C135.203 213.858 132.712 218.099 129.661 219.829L111.847 229.924Z" fill="#387CE1"/>
<path d="M104.915 226.016L104.644 225.567L122.458 215.471C125.373 213.824 127.729 209.799 127.729 206.506V202.282C127.729 198.822 130.22 194.581 133.271 192.851L137 190.739L137.271 191.188L133.542 193.3C130.627 194.947 128.271 198.972 128.271 202.265V206.49C128.271 209.949 125.78 214.174 122.729 215.92L104.915 226.016Z" fill="#387CE1"/>
<path d="M98 222.091L97.7288 221.642L115.542 211.546C118.458 209.899 120.814 205.874 120.814 202.581V198.373C120.814 194.914 123.305 190.672 126.356 188.943L130.085 186.83L130.356 187.279L126.627 189.392C123.712 191.038 121.356 195.063 121.356 198.356V202.564C121.356 206.024 118.864 210.265 115.814 211.995L98 222.091Z" fill="#387CE1"/>
<path d="M91.0678 218.182L90.7966 217.733L108.61 207.637C111.525 205.991 113.881 201.966 113.881 198.672V194.448C113.881 190.988 116.373 186.764 119.424 185.017L123.153 182.905L123.424 183.354L119.695 185.466C116.78 187.113 114.424 191.138 114.424 194.431V198.656C114.424 202.115 111.932 206.34 108.881 208.086L91.0678 218.182Z" fill="#387CE1"/>
<path d="M84.1356 214.257L83.8644 213.808L101.678 203.712C104.593 202.065 106.949 198.04 106.949 194.747V190.523C106.949 187.063 109.441 182.822 112.492 181.092L116.22 178.98L116.491 179.429L112.763 181.541C109.847 183.188 107.491 187.213 107.491 190.506V194.731C107.491 198.19 105 202.415 101.949 204.161L84.1356 214.257Z" fill="#387CE1"/>
<g opacity="0.1">
<path d="M113.61 140.742L88.0847 126.272V155.212L113.61 169.682L139.153 155.212V126.272L113.61 140.742Z" fill="#387CE1"/>
<path d="M113.61 169.682L88.0847 155.212V126.272L113.61 140.742V169.682Z" fill="#387CE1"/>
<path d="M139.153 155.212L113.61 169.682V140.742L139.153 126.272V155.212Z" fill="#81A6F4"/>
<path d="M113.61 140.742L88.0847 126.272L113.61 111.802L139.153 126.272L113.61 140.742Z" fill="#387CE1"/>
<path d="M113.61 140.742L88.0847 126.272V127.536L113.61 141.99L139.153 127.536V126.272L113.61 140.742Z" fill="white"/>
</g>
<path opacity="0.4" d="M113.61 123.195L88.0847 108.725L113.61 94.2717L139.153 108.725L113.61 123.195Z" fill="#03002D"/>
<path d="M113.61 72.3504L88.0847 57.8803V86.8204L113.61 101.29L139.153 86.8204V57.8803L113.61 72.3504Z" fill="#387CE1"/>
<path d="M113.61 101.29L88.0847 86.8204V57.8803L113.61 72.3504V101.29Z" fill="#387CE1"/>
<path d="M139.153 86.8204L113.61 101.29V72.3504L139.153 57.8803V86.8204Z" fill="#81A6F4"/>
<path d="M113.61 72.3504L88.0847 57.8803L113.61 43.4102L139.153 57.8803L113.61 72.3504Z" fill="#387CE1"/>
<path d="M113.61 68.791L94.3559 57.8803L113.61 46.9695L132.881 57.8803L113.61 68.791Z" fill="#81A6F4"/>
<path d="M113.61 72.3504L88.0847 57.8803V59.1277L113.61 73.5978L139.153 59.1277V57.8803L113.61 72.3504Z" fill="white"/>
<path d="M113.61 28.9401L88.0847 14.4701V43.4102L113.61 57.8803L139.153 43.4102V14.4701L113.61 28.9401Z" fill="#387CE1"/>
<path d="M113.61 57.8803L88.0847 43.4102V14.4701L113.61 28.9401V57.8803Z" fill="#387CE1"/>
<path d="M139.153 43.4102L113.61 57.8803V28.9401L139.153 14.4701V43.4102Z" fill="#81A6F4"/>
<path d="M113.61 28.9401L88.0847 14.4701L113.61 0L139.153 14.4701L113.61 28.9401Z" fill="#387CE1"/>
<path d="M113.61 28.9401L88.0847 14.4701V15.7341L113.61 30.1876L139.153 15.7341V14.4701L113.61 28.9401Z" fill="white"/>
<g opacity="0.1">
<path d="M449.763 157.391L424.22 142.938V171.861L449.763 186.331L475.305 171.861V142.938L449.763 157.391Z" fill="#387CE1"/>
<path d="M449.763 186.331L424.22 171.861V142.938L449.763 157.391V186.331Z" fill="#387CE1"/>
<path d="M475.305 171.861L449.763 186.331V157.391L475.305 142.938V171.861Z" fill="#81A6F4"/>
<path d="M449.763 157.391L424.22 142.938L449.763 128.468L475.305 142.938L449.763 157.391Z" fill="#387CE1"/>
<path d="M449.763 157.391L424.22 142.938V144.185L449.763 158.655L475.305 144.185V142.938L449.763 157.391Z" fill="white"/>
</g>
<path d="M450.441 146.647L450.305 146.564L412.915 125.391L413.322 125.158L450.441 104.135L450.576 104.218L487.966 125.391L487.559 125.624L450.441 146.647ZM413.983 125.391L450.424 146.048L486.864 125.391L450.424 104.75L413.983 125.391Z" fill="#387CE1"/>
<path opacity="0.4" d="M449.763 139.861L424.22 125.391L449.763 110.921L475.305 125.391L449.763 139.861Z" fill="#03002D"/>
<path d="M449.763 88.9994L424.22 74.5293V103.469L449.763 117.94L475.305 103.469V74.5293L449.763 88.9994Z" fill="#387CE1"/>
<path d="M449.763 117.94L424.22 103.469V74.5293L449.763 88.9994V117.94Z" fill="#387CE1"/>
<path d="M475.305 103.469L449.763 117.94V88.9994L475.305 74.5293V103.469Z" fill="#81A6F4"/>
<path d="M449.763 88.9994L424.22 74.5293L449.763 60.0593L475.305 74.5293L449.763 88.9994Z" fill="#387CE1"/>
<path d="M449.763 88.9994L424.22 74.5293V75.7934L449.763 90.2634L475.305 75.7934V74.5293L449.763 88.9994Z" fill="white"/>
<path d="M37.5254 240.935L37.3898 240.852L0 219.679L0.406776 219.446L37.5254 198.423L37.661 198.506L75.0508 219.696L74.6441 219.929L37.5254 240.935ZM1.06779 219.679L37.5085 240.336L73.9491 219.679L37.5085 199.022L1.06779 219.679Z" fill="#387CE1"/>
<g opacity="0.1">
<path d="M37.5254 252.145L11.9831 237.675V266.615L37.5254 281.085L63.0509 266.615V237.675L37.5254 252.145Z" fill="#387CE1"/>
<path d="M37.5254 281.085L11.9831 266.615V237.675L37.5254 252.145V281.085Z" fill="#387CE1"/>
<path d="M63.0508 266.615L37.5254 281.085V252.145L63.0508 237.675V266.615Z" fill="#81A6F4"/>
<path d="M37.5254 252.145L11.9831 237.675L37.5254 223.205L63.0509 237.675L37.5254 252.145Z" fill="#387CE1"/>
<path d="M37.5254 252.145L11.9831 237.675V238.939L37.5254 253.393L63.0509 238.939V237.675L37.5254 252.145Z" fill="white"/>
</g>
<path opacity="0.4" d="M37.5254 234.598L11.9831 220.128L37.5254 205.675L63.0509 220.128L37.5254 234.598Z" fill="#03002D"/>
<path d="M37.5254 183.753L11.9831 169.283V198.223L37.5254 212.694L63.0509 198.223V169.283L37.5254 183.753Z" fill="#387CE1"/>
<path d="M37.5254 212.694L11.9831 198.223V169.283L37.5254 183.753V212.694Z" fill="#387CE1"/>
<path d="M63.0508 198.223L37.5254 212.694V183.753L63.0508 169.283V198.223Z" fill="#81A6F4"/>
<path d="M37.5254 183.753L11.9831 169.283L37.5254 154.813L63.0509 169.283L37.5254 183.753Z" fill="#387CE1"/>
<path d="M37.5254 183.753L11.9831 169.283V170.531L37.5254 185.001L63.0509 170.531V169.283L37.5254 183.753Z" fill="white"/>
<g opacity="0.1">
<path d="M248.017 390.06L222.475 375.59V404.53L248.017 419L273.542 404.53V375.59L248.017 390.06Z" fill="#387CE1"/>
<path d="M248.017 419L222.475 404.53V375.59L248.017 390.06V419Z" fill="#387CE1"/>
<path d="M273.542 404.53L248.017 419V390.06L273.542 375.59V404.53Z" fill="#81A6F4"/>
<path d="M248.017 390.06L222.475 375.59L248.017 361.12L273.542 375.59L248.017 390.06Z" fill="#387CE1"/>
<path d="M248.017 390.06L222.475 375.59V376.854L248.017 391.324L273.542 376.854V375.59L248.017 390.06Z" fill="white"/>
</g>
<path opacity="0.4" d="M248.017 372.513L222.475 358.043L248.017 343.589L273.542 358.059L248.017 372.513Z" fill="#03002D"/>
<path d="M248.017 321.668L222.475 307.198V336.138L248.017 350.608L273.542 336.138V307.198L248.017 321.668Z" fill="#387CE1"/>
<path d="M248.017 350.608L222.475 336.138V307.198L248.017 321.668V350.608Z" fill="#387CE1"/>
<path d="M273.542 336.138L248.017 350.608V321.668L273.542 307.198V336.138Z" fill="#81A6F4"/>
<path d="M248.017 321.668L222.475 307.198L248.017 292.728L273.542 307.198L248.017 321.668Z" fill="#387CE1"/>
<path d="M248.017 321.668L222.475 307.198V308.445L248.017 322.915L273.542 308.445V307.198L248.017 321.668Z" fill="white"/>
<g opacity="0.1">
<path d="M458 322.3L480.102 341.461L485.966 313.103L463.881 293.942L435.915 303.14L430.051 331.498L458 322.3Z" fill="#387CE1"/>
<path d="M463.881 293.942L485.966 313.103L480.102 341.461L458 322.3L463.881 293.942Z" fill="#387CE1"/>
<path d="M435.915 303.14L463.881 293.942L458 322.3L430.051 331.498L435.915 303.14Z" fill="#81A6F4"/>
<path d="M458 322.3L480.102 341.461L452.136 350.658L430.051 331.498L458 322.3Z" fill="#387CE1"/>
<path d="M458 322.3L480.102 341.461L480.356 340.23L458.271 321.069L430.305 330.267L430.051 331.498L458 322.3Z" fill="white"/>
</g>
<path opacity="0.4" d="M462.525 311.273L437 296.803L462.525 282.333L488.068 296.803L462.525 311.273Z" fill="#03002D"/>
<path opacity="0.4" d="M462.525 336.404C445.695 336.404 428.864 332.778 416.051 325.51C403.593 318.441 396.712 309.044 396.712 299.032C396.712 289.019 403.576 279.605 416.051 272.553C441.678 258.033 483.373 258.033 509.017 272.553C521.492 279.622 528.356 289.019 528.356 299.032C528.356 309.044 521.492 318.458 509.034 325.51C496.203 332.778 479.373 336.404 462.525 336.404ZM462.525 262.175C445.797 262.175 429.051 265.784 416.322 273.002C404.034 279.971 397.254 289.219 397.254 299.032C397.254 308.845 404.017 318.092 416.322 325.061C441.797 339.498 483.271 339.498 508.746 325.061C521.034 318.092 527.814 308.845 527.814 299.032C527.814 289.202 521.051 279.971 508.746 273.002C496 265.784 479.271 262.175 462.525 262.175Z" fill="#387CE1"/>
<path opacity="0.2" d="M462.525 346.417C441.169 346.417 419.814 341.81 403.542 332.596C387.746 323.647 379.034 311.722 379.034 299.032C379.034 286.341 387.746 274.416 403.542 265.468C436.068 247.039 488.983 247.039 521.492 265.468C537.305 274.416 546 286.341 546 299.032C546 311.722 537.305 323.647 521.492 332.596L521.356 332.363L521.492 332.596C505.254 341.81 483.898 346.417 462.525 346.417ZM462.525 252.162C441.271 252.162 420 256.752 403.814 265.917C388.186 274.782 379.576 286.524 379.576 299.032C379.576 311.522 388.186 323.281 403.814 332.146C436.186 350.492 488.864 350.492 521.237 332.146C536.864 323.281 545.475 311.539 545.475 299.032C545.475 286.524 536.864 274.782 521.237 265.917C505.051 256.752 483.797 252.162 462.525 252.162Z" fill="#387CE1"/>
<path d="M462.542 328.521C449.271 328.521 436.017 325.66 425.915 319.938C416.085 314.367 410.661 306.949 410.661 299.032C410.661 291.115 416.085 283.697 425.915 278.125C446.119 266.682 478.983 266.682 499.186 278.125C509.017 283.697 514.441 291.131 514.441 299.032C514.441 306.932 509.017 314.367 499.186 319.938C489.068 325.66 475.797 328.521 462.542 328.521ZM462.525 270.058C449.356 270.058 436.186 272.902 426.17 278.574C416.509 284.046 411.186 291.314 411.186 299.032C411.186 306.749 416.509 314.001 426.17 319.489C446.22 330.849 478.847 330.849 498.898 319.489L499.034 319.722L498.898 319.489C508.559 314.017 513.881 306.749 513.881 299.048C513.881 291.331 508.559 284.063 498.898 278.591C488.864 272.902 475.695 270.058 462.525 270.058Z" fill="#387CE1"/>
<path d="M459.593 271.355L456.661 242.548L432.712 259.447L435.644 288.237L462.509 300.146L486.458 283.264L459.593 271.355Z" fill="#387CE1"/>
<path d="M435.644 288.237L432.712 259.447L456.661 242.548L459.593 271.355L435.644 288.237Z" fill="#387CE1"/>
<path d="M462.509 300.146L435.644 288.237L459.593 271.355L486.458 283.264L462.509 300.146Z" fill="#81A6F4"/>
<path d="M459.593 271.355L456.661 242.548L483.542 254.474L486.458 283.264L459.593 271.355Z" fill="#387CE1"/>
<path d="M459.593 271.355L456.661 242.548L455.627 243.28L458.559 272.087L485.424 283.996L486.458 283.264L459.593 271.355Z" fill="white"/>
<path opacity="0.4" d="M447.441 293.46H471.983L462.509 300.146L447.441 293.46Z" fill="#03002D"/>
<path d="M250.508 109.889L224.966 95.4193V124.359L250.508 138.83L276.051 124.359V95.4193L250.508 109.889Z" fill="#387CE1"/>
<path d="M250.508 138.83L224.966 124.359V95.4193L250.508 109.889V138.83Z" fill="#387CE1"/>
<path d="M276.051 124.359L250.508 138.83V109.889L276.051 95.4193V124.359Z" fill="#81A6F4"/>
<path d="M250.508 109.889L224.966 95.4193L250.508 80.9659L276.051 95.4193L250.508 109.889Z" fill="#387CE1"/>
<path d="M250.508 109.889L226.085 96.0513L224.966 96.6834L250.508 111.153L276.051 96.6834L274.949 96.0513L250.508 109.889Z" fill="white"/>
<path d="M283.678 128.468L258.153 113.998V142.938L283.678 157.408L309.22 142.938V113.998L283.678 128.468Z" fill="#387CE1"/>
<path d="M283.678 157.408L258.153 142.938V113.998L283.678 128.468V157.408Z" fill="#387CE1"/>
<path d="M309.22 142.938L283.678 157.408V128.468L309.22 113.998V142.938Z" fill="#81A6F4"/>
<path d="M283.678 128.468L258.153 113.998L283.678 99.5275L309.22 113.998L283.678 128.468Z" fill="#387CE1"/>
<path d="M283.678 128.468L259.254 114.63L258.153 115.262L283.678 129.732L309.22 115.262L308.119 114.63L283.678 128.468Z" fill="white"/>
<path d="M316.864 147.046L291.322 132.576V161.516L316.864 175.986L342.39 161.516V132.576L316.864 147.046Z" fill="#387CE1"/>
<path d="M316.864 175.986L291.322 161.516V132.576L316.864 147.046V175.986Z" fill="#387CE1"/>
<path d="M342.39 161.516L316.864 175.986V147.046L342.39 132.576V161.516Z" fill="#81A6F4"/>
<path d="M316.864 147.046L291.322 132.576L316.847 118.106L342.39 132.576L316.864 147.046Z" fill="#387CE1"/>
<path d="M316.864 147.046L292.424 133.208L291.322 133.823L316.864 148.293L342.39 133.823V132.576L316.864 147.046Z" fill="white"/>
<path d="M217.339 129.732L191.797 115.262V144.185L217.339 158.655L242.881 144.185V115.262L217.339 129.732Z" fill="#387CE1"/>
<path d="M217.339 158.655L191.797 144.185V115.262L217.339 129.732V158.655Z" fill="#387CE1"/>
<path d="M242.881 144.185L217.339 158.655V129.732L242.881 115.262V144.185Z" fill="#81A6F4"/>
<path d="M217.339 129.732L191.797 115.262L217.339 100.792L242.881 115.262L217.339 129.732Z" fill="#387CE1"/>
<path d="M217.339 129.732L192.915 115.877L191.797 116.509L217.339 130.979L242.881 116.509L241.763 115.877L217.339 129.732Z" fill="white"/>
<path d="M250.508 148.293L224.966 133.823V162.763L250.508 177.233L276.051 162.763V133.823L250.508 148.293Z" fill="#387CE1"/>
<path d="M250.508 177.233L224.966 162.763V133.823L250.508 148.293V177.233Z" fill="#387CE1"/>
<path d="M276.051 162.763L250.508 177.233V148.293L276.051 133.823V162.763Z" fill="#81A6F4"/>
<path d="M250.508 148.293L224.966 133.823L250.508 119.353L276.051 133.823L250.508 148.293Z" fill="#387CE1"/>
<path d="M250.508 148.293L226.085 134.455L224.966 135.087L250.508 149.557L276.051 135.087L274.949 134.455L250.508 148.293Z" fill="white"/>
<path d="M283.678 166.872L258.153 152.401V181.342L283.678 195.812L309.22 181.342V152.401L283.678 166.872Z" fill="#387CE1"/>
<path d="M283.678 195.812L258.153 181.342V152.401L283.678 166.872V195.812Z" fill="#387CE1"/>
<path d="M309.22 181.342L283.678 195.812V166.872L309.22 152.401V181.342Z" fill="#81A6F4"/>
<path d="M283.678 166.872L258.153 152.401L283.678 137.931L309.22 152.401L283.678 166.872Z" fill="#387CE1"/>
<path d="M283.678 166.872L259.254 153.033L258.153 153.666L283.678 168.119L309.22 153.666V152.401L283.678 166.872Z" fill="white"/>
<path d="M184.169 149.557L158.627 135.087V164.027L184.169 178.497L209.712 164.027V135.087L184.169 149.557Z" fill="#387CE1"/>
<path d="M184.169 178.497L158.627 164.027V135.087L184.169 149.557V178.497Z" fill="#387CE1"/>
<path d="M209.712 164.027L184.169 178.497V149.557L209.712 135.087V164.027Z" fill="#81A6F4"/>
<path d="M184.169 149.557L158.627 135.087L184.169 120.617L209.695 135.087L184.169 149.557Z" fill="#387CE1"/>
<path d="M184.169 149.557L158.627 135.087V136.335L184.169 150.805L209.695 136.335L208.593 135.719L184.169 149.557Z" fill="white"/>
<path d="M217.339 168.119L191.797 153.665V182.589L217.339 197.059L242.881 182.589V153.665L217.339 168.119Z" fill="#387CE1"/>
<path d="M217.339 197.059L191.797 182.589V153.665L217.339 168.119V197.059Z" fill="#387CE1"/>
<path d="M242.881 182.589L217.339 197.059V168.119L242.881 153.665V182.589Z" fill="#81A6F4"/>
<path d="M217.339 168.119L191.797 153.665L217.339 139.195L242.881 153.665L217.339 168.119Z" fill="#387CE1"/>
<path d="M217.339 168.119L191.797 153.665V154.913L217.339 169.383L242.881 154.913L241.763 154.281L217.339 168.119Z" fill="white"/>
<path d="M250.508 186.697L224.966 172.227V201.167L250.508 215.637L276.051 201.167V172.227L250.508 186.697Z" fill="#387CE1"/>
<path d="M250.508 215.637L224.966 201.167V172.227L250.508 186.697V215.637Z" fill="#387CE1"/>
<path d="M276.051 201.167L250.508 215.637V186.697L276.051 172.227V201.167Z" fill="#81A6F4"/>
<path d="M250.508 186.697L224.966 172.227L250.508 157.757L276.051 172.227L250.508 186.697Z" fill="#387CE1"/>
<path d="M250.508 186.697L224.966 172.227V173.491L250.508 187.961L276.051 173.491V172.227L250.508 186.697Z" fill="white"/>
<path d="M250.508 71.4855L224.966 57.0321V85.9556L250.508 100.426L276.051 85.9556V57.0321L250.508 71.4855Z" fill="#387CE1"/>
<path d="M250.508 100.426L224.966 85.9556V57.0321L250.508 71.4855V100.426Z" fill="#387CE1"/>
<path d="M276.051 85.9556L250.508 100.426V71.4855L276.051 57.0321V85.9556Z" fill="#81A6F4"/>
<path d="M250.508 71.4855L224.966 57.0321L250.508 42.562L276.051 57.0321L250.508 71.4855Z" fill="#387CE1"/>
<path d="M250.508 71.4855L226.085 57.6474L224.966 58.2795L250.508 72.7495L276.051 58.2795L274.949 57.6474L250.508 71.4855Z" fill="white"/>
<path opacity="0.7" d="M250.508 181.99L233.085 172.111L250.508 162.248L267.932 172.111L250.508 181.99Z" fill="#387CE1"/>
<path opacity="0.7" d="M217.339 163.412L199.915 153.549L217.339 143.669L234.763 153.549L217.339 163.412Z" fill="#387CE1"/>
<path opacity="0.7" d="M283.678 162.165L266.254 152.285L283.678 142.422L301.102 152.285L283.678 162.165Z" fill="#387CE1"/>
<path opacity="0.7" d="M316.915 142.555L299.491 132.692L316.915 122.813L334.339 132.692L316.915 142.555Z" fill="#387CE1"/>
<path opacity="0.7" d="M184.169 144.834L166.746 134.971L184.169 125.108L201.593 134.971L184.169 144.834Z" fill="#387CE1"/>
<path d="M283.678 90.0637L258.153 75.5937V104.534L283.678 119.004L309.22 104.534V75.5937L283.678 90.0637Z" fill="#387CE1"/>
<path d="M283.678 119.004L258.153 104.534V75.5937L283.678 90.0637V119.004Z" fill="#387CE1"/>
<path d="M309.22 104.534L283.678 119.004V90.0637L309.22 75.5937V104.534Z" fill="#81A6F4"/>
<path d="M283.678 90.0637L258.153 75.5937L283.678 61.1236L309.22 75.5937L283.678 90.0637Z" fill="#387CE1"/>
<path d="M283.678 90.0638L259.254 76.2257L258.153 76.8577L283.678 91.3278L309.22 76.8577L308.119 76.2257L283.678 90.0638Z" fill="white"/>
<path d="M316.864 108.642L291.322 94.1719V123.112L316.864 137.582L342.39 123.112V94.1719L316.864 108.642Z" fill="#387CE1"/>
<path d="M316.864 137.582L291.322 123.112V94.1719L316.864 108.642V137.582Z" fill="#387CE1"/>
<path d="M342.39 123.112L316.864 137.582V108.642L342.39 94.1719V123.112Z" fill="#81A6F4"/>
<path d="M316.864 108.642L291.322 94.1719L316.847 79.7018L342.39 94.1719L316.864 108.642Z" fill="#387CE1"/>
<path d="M316.864 108.642L292.424 94.8039L291.322 95.4193L316.864 109.889L342.39 95.4193V94.1719L316.864 108.642Z" fill="white"/>
<path d="M217.339 91.3278L191.797 76.8577V105.798L217.339 120.251L242.881 105.798V76.8577L217.339 91.3278Z" fill="#387CE1"/>
<path d="M217.339 120.251L191.797 105.798V76.8577L217.339 91.3278V120.251Z" fill="#387CE1"/>
<path d="M242.881 105.798L217.339 120.251V91.3278L242.881 76.8577V105.798Z" fill="#81A6F4"/>
<path d="M217.339 91.3278L191.797 76.8577L217.339 62.3876L242.881 76.8577L217.339 91.3278Z" fill="#387CE1"/>
<path d="M217.339 91.3277L192.915 77.4731L191.797 78.1051L217.339 92.5752L242.881 78.1051L241.763 77.4731L217.339 91.3277Z" fill="white"/>
<path d="M250.508 109.889L224.966 95.4193V124.359L250.508 138.83L276.051 124.359V95.4193L250.508 109.889Z" fill="#387CE1"/>
<path d="M250.508 138.83L224.966 124.359V95.4193L250.508 109.889V138.83Z" fill="#387CE1"/>
<path d="M276.051 124.359L250.508 138.83V109.889L276.051 95.4193V124.359Z" fill="#81A6F4"/>
<path d="M250.508 109.889L224.966 95.4193L250.508 80.9659L276.051 95.4193L250.508 109.889Z" fill="#387CE1"/>
<path d="M250.508 109.889L226.085 96.0513L224.966 96.6834L250.508 111.153L276.051 96.6834L274.949 96.0513L250.508 109.889Z" fill="white"/>
<path d="M283.678 128.468L258.153 113.998V142.938L283.678 157.408L309.22 142.938V113.998L283.678 128.468Z" fill="#387CE1"/>
<path d="M283.678 157.408L258.153 142.938V113.998L283.678 128.468V157.408Z" fill="#387CE1"/>
<path d="M309.22 142.938L283.678 157.408V128.468L309.22 113.998V142.938Z" fill="#81A6F4"/>
<path d="M283.678 128.468L258.153 113.998L283.678 99.5275L309.22 113.998L283.678 128.468Z" fill="#387CE1"/>
<path d="M283.678 128.468L259.254 114.63L258.153 115.262L283.678 129.732L309.22 115.262V113.998L283.678 128.468Z" fill="white"/>
<path d="M184.169 111.153L158.627 96.6834V125.624L184.169 140.094L209.712 125.624V96.6834L184.169 111.153Z" fill="#387CE1"/>
<path d="M184.169 140.094L158.627 125.624V96.6834L184.169 111.153V140.094Z" fill="#387CE1"/>
<path d="M209.712 125.624L184.169 140.094V111.153L209.712 96.6834V125.624Z" fill="#81A6F4"/>
<path d="M184.169 111.153L158.627 96.6834L184.169 82.2133L209.695 96.6834L184.169 111.153Z" fill="#387CE1"/>
<path d="M184.169 111.153L159.729 97.3154L158.627 97.9308L184.169 112.401L209.695 97.9308L208.593 97.3154L184.169 111.153Z" fill="white"/>
<path d="M217.339 129.732L191.797 115.262V144.185L217.339 158.655L242.881 144.185V115.262L217.339 129.732Z" fill="#387CE1"/>
<path d="M217.339 158.655L191.797 144.185V115.262L217.339 129.732V158.655Z" fill="#387CE1"/>
<path d="M242.881 144.185L217.339 158.655V129.732L242.881 115.262V144.185Z" fill="#81A6F4"/>
<path d="M217.339 129.732L191.797 115.262L217.339 100.792L242.881 115.262L217.339 129.732Z" fill="#387CE1"/>
<path d="M217.339 129.732L191.797 115.262V116.509L217.339 130.979L242.881 116.509L241.763 115.877L217.339 129.732Z" fill="white"/>
<path d="M250.508 148.293L224.966 133.823V162.763L250.508 177.233L276.051 162.763V133.823L250.508 148.293Z" fill="#387CE1"/>
<path d="M250.508 177.233L224.966 162.763V133.823L250.508 148.293V177.233Z" fill="#387CE1"/>
<path d="M276.051 162.763L250.508 177.233V148.293L276.051 133.823V162.763Z" fill="#81A6F4"/>
<path d="M250.508 148.293L224.966 133.823L250.508 119.353L276.051 133.823L250.508 148.293Z" fill="#387CE1"/>
<path d="M250.508 148.293L224.966 133.823V135.087L250.508 149.557L276.051 135.087V133.823L250.508 148.293Z" fill="white"/>
<path opacity="0.7" d="M316.915 104.318L299.491 94.4546L316.915 84.5917L334.339 94.4546L316.915 104.318Z" fill="#387CE1"/>
<path opacity="0.7" d="M184.169 106.613L166.746 96.7333L184.169 86.8703L201.593 96.7333L184.169 106.613Z" fill="#387CE1"/>
<path d="M250.508 33.0982L224.966 18.6281V47.5516L250.508 62.0217L276.051 47.5516V18.6281L250.508 33.0982Z" fill="#387CE1"/>
<path d="M250.508 62.0217L224.966 47.5516V18.6281L250.508 33.0982V62.0217Z" fill="#387CE1"/>
<path d="M276.051 47.5516L250.508 62.0217V33.0982L276.051 18.6281V47.5516Z" fill="#81A6F4"/>
<path d="M250.508 33.0982L224.966 18.6281L250.508 4.15808L276.051 18.6281L250.508 33.0982Z" fill="#387CE1"/>
<path d="M250.508 33.0982L224.966 18.6281V19.8756L250.508 34.3456L276.051 19.8756V18.6281L250.508 33.0982Z" fill="white"/>
<path d="M283.678 51.6598L258.153 37.1897V66.1299L283.678 80.5999L309.22 66.1299V37.1897L283.678 51.6598Z" fill="#387CE1"/>
<path d="M283.678 80.5999L258.153 66.1299V37.1897L283.678 51.6598V80.5999Z" fill="#387CE1"/>
<path d="M309.22 66.1299L283.678 80.5999V51.6598L309.22 37.1897V66.1299Z" fill="#81A6F4"/>
<path d="M283.678 51.6598L258.153 37.1897L283.678 22.7197L309.22 37.1897L283.678 51.6598Z" fill="#387CE1"/>
<path d="M283.678 51.6598L258.153 37.1897V38.4538L283.678 52.9238L309.22 38.4538V37.1897L283.678 51.6598Z" fill="white"/>
<path d="M316.864 70.238L291.322 55.768V84.7081L316.864 99.1782L342.39 84.7081V55.768L316.864 70.238Z" fill="#387CE1"/>
<path d="M316.864 99.1782L291.322 84.7081V55.768L316.864 70.238V99.1782Z" fill="#387CE1"/>
<path d="M342.39 84.7081L316.864 99.1782V70.238L342.39 55.768V84.7081Z" fill="#81A6F4"/>
<path d="M316.864 70.238L291.322 55.768L316.847 41.2979L342.39 55.768L316.864 70.238Z" fill="#387CE1"/>
<path d="M316.864 70.238L291.322 55.768V57.032L316.864 71.4855L342.39 57.032V55.768L316.864 70.238Z" fill="white"/>
<path d="M217.339 52.9239L191.797 38.4538V67.3939L217.339 81.864L242.881 67.3939V38.4538L217.339 52.9239Z" fill="#387CE1"/>
<path d="M217.339 81.864L191.797 67.3939V38.4538L217.339 52.9239V81.864Z" fill="#387CE1"/>
<path d="M242.881 67.3939L217.339 81.864V52.9239L242.881 38.4538V67.3939Z" fill="#81A6F4"/>
<path d="M217.339 52.9239L191.797 38.4538L217.339 23.9837L242.881 38.4538L217.339 52.9239Z" fill="#387CE1"/>
<path d="M217.339 52.9239L191.797 38.4538V39.7012L217.339 54.1713L242.881 39.7012V38.4538L217.339 52.9239Z" fill="white"/>
<path d="M184.169 72.7495L158.627 58.2794V87.2196L184.169 101.69L209.712 87.2196V58.2794L184.169 72.7495Z" fill="#387CE1"/>
<path d="M184.169 101.69L158.627 87.2196V58.2794L184.169 72.7495V101.69Z" fill="#387CE1"/>
<path d="M209.712 87.2196L184.169 101.69V72.7495L209.712 58.2794V87.2196Z" fill="#81A6F4"/>
<path d="M184.169 72.7495L158.627 58.2795L184.169 43.8094L209.695 58.2795L184.169 72.7495Z" fill="#387CE1"/>
<path d="M184.169 72.7495L158.627 58.2794V59.5269L184.169 73.9969L209.695 59.5269L209.712 58.2794L184.169 72.7495Z" fill="white"/>
<path opacity="0.4" d="M98.5593 256.104C98.5593 257.966 100.102 259.48 102 259.48C103.898 259.48 105.441 257.966 105.441 256.104C105.441 254.241 103.898 252.727 102 252.727C100.102 252.727 98.5593 254.241 98.5593 256.104Z" fill="#387CE1"/>
<path d="M102 257.567C102.824 257.567 103.492 256.912 103.492 256.104C103.492 255.295 102.824 254.64 102 254.64C101.176 254.64 100.508 255.295 100.508 256.104C100.508 256.912 101.176 257.567 102 257.567Z" fill="#387CE1"/>
<path opacity="0.4" d="M403.424 101.906C403.424 103.769 404.966 105.282 406.864 105.282C408.763 105.282 410.305 103.769 410.305 101.906C410.305 100.043 408.763 98.5296 406.864 98.5296C404.966 98.513 403.424 100.027 403.424 101.906Z" fill="#387CE1"/>
<path d="M405.373 101.906C405.373 102.721 406.051 103.37 406.864 103.37C407.695 103.37 408.356 102.721 408.356 101.906C408.356 101.091 407.678 100.442 406.864 100.442C406.034 100.426 405.373 101.091 405.373 101.906Z" fill="#387CE1"/>
<path opacity="0.4" d="M503.814 313.685C503.814 315.547 505.356 317.061 507.254 317.061C509.153 317.061 510.695 315.547 510.695 313.685C510.695 311.822 509.153 310.308 507.254 310.308C505.356 310.292 503.814 311.805 503.814 313.685Z" fill="#387CE1"/>
<path d="M507.254 315.148C508.078 315.148 508.746 314.493 508.746 313.685C508.746 312.876 508.078 312.221 507.254 312.221C506.431 312.221 505.763 312.876 505.763 313.685C505.763 314.493 506.431 315.148 507.254 315.148Z" fill="#387CE1"/>
<path opacity="0.4" d="M441.576 330.949C444.544 330.949 446.949 328.588 446.949 325.676C446.949 322.764 444.544 320.404 441.576 320.404C438.609 320.404 436.203 322.764 436.203 325.676C436.203 328.588 438.609 330.949 441.576 330.949Z" fill="#387CE1"/>
<path d="M439.254 325.676C439.254 326.94 440.305 327.972 441.593 327.972C442.881 327.972 443.932 326.94 443.932 325.676C443.932 324.412 442.881 323.381 441.593 323.381C440.305 323.381 439.254 324.412 439.254 325.676Z" fill="#387CE1"/>
<path opacity="0.4" d="M420.034 279.638C420.034 281.617 421.661 283.214 423.678 283.214C425.695 283.214 427.322 281.617 427.322 279.638C427.322 277.659 425.695 276.062 423.678 276.062C421.661 276.062 420.034 277.659 420.034 279.638Z" fill="#387CE1"/>
<path d="M422.102 279.638C422.102 280.503 422.814 281.185 423.678 281.185C424.542 281.185 425.254 280.486 425.254 279.638C425.254 278.773 424.542 278.091 423.678 278.091C422.814 278.091 422.102 278.773 422.102 279.638Z" fill="#387CE1"/>
<path opacity="0.4" d="M366.712 82.3962C366.712 84.2591 368.254 85.7726 370.153 85.7726C372.051 85.7726 373.593 84.2591 373.593 82.3962C373.593 80.5334 372.051 79.0199 370.153 79.0199C368.254 79.0199 366.712 80.5334 366.712 82.3962Z" fill="#387CE1"/>
<path d="M368.661 82.3962C368.661 83.2112 369.339 83.8599 370.153 83.8599C370.983 83.8599 371.644 83.1946 371.644 82.3962C371.644 81.5813 370.966 80.9326 370.153 80.9326C369.339 80.9326 368.661 81.5813 368.661 82.3962Z" fill="#387CE1"/>
<path opacity="0.4" d="M59.6101 234.598C59.6101 236.461 61.1525 237.974 63.0508 237.974C64.9491 237.974 66.4915 236.461 66.4915 234.598C66.4915 232.735 64.9491 231.222 63.0508 231.222C61.1525 231.222 59.6101 232.735 59.6101 234.598Z" fill="#387CE1"/>
<path d="M61.5593 234.598C61.5593 235.413 62.2373 236.062 63.0508 236.062C63.8813 236.062 64.5424 235.396 64.5424 234.598C64.5424 233.783 63.8813 233.134 63.0508 233.134C62.2373 233.134 61.5593 233.8 61.5593 234.598Z" fill="#387CE1"/>
<defs>
<linearGradient id="paint0_linear_17_573" x1="45.9286" y1="256.726" x2="396.77" y2="256.726" gradientUnits="userSpaceOnUse">
<stop stop-color="#5761D7"/>
<stop offset="0.1645" stop-color="#5E67DA"/>
<stop offset="0.4051" stop-color="#727AE2"/>
<stop offset="0.6924" stop-color="#9297EE"/>
<stop offset="1" stop-color="#BCBEFF"/>
</linearGradient>
<linearGradient id="paint1_linear_17_573" x1="45.9286" y1="223.924" x2="396.77" y2="223.924" gradientUnits="userSpaceOnUse">
<stop stop-color="#5761D7"/>
<stop offset="0.1645" stop-color="#5E67DA"/>
<stop offset="0.4051" stop-color="#727AE2"/>
<stop offset="0.6924" stop-color="#9297EE"/>
<stop offset="1" stop-color="#BCBEFF"/>
</linearGradient>
<linearGradient id="paint2_linear_17_573" x1="145.217" y1="140.053" x2="250.511" y2="140.053" gradientUnits="userSpaceOnUse">
<stop stop-color="#42E8E0"/>
<stop offset="0.1507" stop-color="#43E3E0"/>
<stop offset="0.3285" stop-color="#45D5DF"/>
<stop offset="0.5199" stop-color="#49BDDD"/>
<stop offset="0.7209" stop-color="#4E9CDB"/>
<stop offset="0.9274" stop-color="#5472D8"/>
<stop offset="1" stop-color="#5761D7"/>
</linearGradient>
<linearGradient id="paint3_linear_17_573" x1="250.511" y1="199.708" x2="355.801" y2="199.708" gradientUnits="userSpaceOnUse">
<stop stop-color="#42E8E0"/>
<stop offset="0.1507" stop-color="#43E3E0"/>
<stop offset="0.3285" stop-color="#45D5DF"/>
<stop offset="0.5199" stop-color="#49BDDD"/>
<stop offset="0.7209" stop-color="#4E9CDB"/>
<stop offset="0.9274" stop-color="#5472D8"/>
<stop offset="1" stop-color="#5761D7"/>
</linearGradient>
</defs>
</svg>
