<svg width="456" height="357" viewBox="0 0 456 357" fill="none" xmlns="http://www.w3.org/2000/svg">
<g clip-path="url(#clip0_22_12415)">
<path fill-rule="evenodd" clip-rule="evenodd" d="M446.892 198.361C462.663 146.479 455.939 121.913 441.513 86.2251L439.741 179.172L446.892 198.361Z" fill="url(#paint0_radial_22_12415)"/>
<path fill-rule="evenodd" clip-rule="evenodd" d="M180.505 39.11C295.055 -0.549913 410.217 31.7158 437.662 111.097C465.108 190.478 394.507 286.969 279.957 326.568C165.407 366.166 50.1845 333.962 22.7389 254.581C-4.7067 175.2 65.8939 78.7087 180.505 39.11Z" fill="url(#paint1_radial_22_12415)"/>
<path fill-rule="evenodd" clip-rule="evenodd" d="M176.226 27.3769C290.776 -12.2829 405.938 19.9827 433.383 99.3635C460.829 178.744 390.29 275.236 275.678 314.835C161.067 354.433 45.9667 322.229 18.46 242.848C-9.04671 163.467 61.6149 66.9757 176.226 27.3769Z" fill="url(#paint2_radial_22_12415)"/>
<path style="mix-blend-mode:screen" opacity="0.5" fill-rule="evenodd" clip-rule="evenodd" d="M374.58 168.661C344.017 79.7476 223.721 38.8655 96.09 68.9923C31.2964 116.474 -1.71159 184.305 18.46 242.848C45.9667 322.29 161.128 354.495 275.678 314.835C312.093 302.52 345.751 283.215 374.764 258.003C384.364 228.996 384.364 197.669 374.764 168.661H374.58Z" fill="url(#paint3_radial_22_12415)"/>
<path fill-rule="evenodd" clip-rule="evenodd" d="M441.513 180.028C411.622 155.034 347.318 138.351 326.291 136.885L323.173 141.896C359.796 152.484 395.574 165.803 430.205 181.739L433.995 194.572L429.899 204.105L446.892 198.361L441.513 180.028Z" fill="url(#paint4_radial_22_12415)"/>
<path fill-rule="evenodd" clip-rule="evenodd" d="M136.25 33.0602L140.101 42.3488C148.417 46.9736 155.864 53.0119 162.106 60.1926L164.857 58.726C159.478 47.0542 142.851 33.0602 136.25 33.0602Z" fill="url(#paint5_radial_22_12415)"/>
<path fill-rule="evenodd" clip-rule="evenodd" d="M16.3818 267.169L24.9394 279.391H34.9029L26.5287 261.059C48.1691 232.731 73.995 207.86 103.12 187.3L101.164 181.189C63.571 203.738 27.8123 237.959 16.3818 267.536V267.169Z" fill="url(#paint6_radial_22_12415)"/>
<path fill-rule="evenodd" clip-rule="evenodd" d="M300.434 11.7942L295.544 0.733398C276.549 8.21324 260.912 22.326 251.534 40.4544H259.969C268.926 28.6428 280.147 18.7335 292.977 11.3053L300.434 11.9775V11.7942Z" fill="url(#paint7_radial_22_12415)"/>
<path fill-rule="evenodd" clip-rule="evenodd" d="M252.145 39.5377C282.035 41.6154 307.158 52.7984 321.339 71.4367C354.376 61.6523 388.658 56.7121 423.114 56.7705C432.554 67.7091 439.834 80.3371 444.569 93.986C453.761 122.125 452.678 152.611 441.513 180.028C404.494 162.183 365.928 147.742 326.291 136.885C315.532 160.84 292.61 183.511 261.986 199.094L321.645 302.979C307.525 310.195 292.922 316.423 277.94 321.618C233.751 337.389 186.516 342.742 139.917 337.262C145.759 296.917 154.606 257.065 166.385 218.038C136.617 214.799 111.983 202.21 99.5131 182.044C69.867 203.738 29.7683 241.626 16.3817 267.169C12.2434 260.338 8.84197 253.086 6.23479 245.537C-5.99042 211.071 0.122224 173.489 19.0713 138.29C44.717 126.176 72.2219 118.47 100.43 115.496C115.222 90.2141 137.438 70.0948 164.062 57.8704C155.988 48.3497 146.628 39.9994 136.25 33.0601C148.156 27.2686 160.404 22.2075 172.925 17.905C212.251 4.00674 253.974 -1.83319 295.605 0.73333C278.574 10.4781 263.786 23.6998 252.206 39.5377H252.145Z" fill="url(#paint8_radial_22_12415)"/>
<path fill-rule="evenodd" clip-rule="evenodd" d="M139.917 337.262L146.702 354.433C192.033 360.413 238.136 355.49 281.18 340.073C296.932 334.675 312.223 328.012 326.902 320.151L321.767 302.979C307.648 310.195 293.044 316.423 278.062 321.618C233.874 337.389 186.638 342.742 140.04 337.262H139.917Z" fill="url(#paint9_radial_22_12415)"/>
<path style="mix-blend-mode:screen" fill-rule="evenodd" clip-rule="evenodd" d="M252.145 39.5377C282.035 41.6154 307.158 52.7984 321.339 71.4367C354.376 61.6523 388.658 56.7121 423.114 56.7705C432.554 67.7091 439.834 80.3371 444.569 93.986C453.761 122.125 452.678 152.611 441.513 180.028C404.494 162.183 365.928 147.742 326.291 136.885C315.532 160.84 292.61 183.511 261.986 199.094L321.645 302.979C307.525 310.195 292.922 316.423 277.94 321.618C233.751 337.389 186.516 342.742 139.917 337.262C145.759 296.917 154.606 257.065 166.385 218.038C136.617 214.799 111.983 202.21 99.5131 182.044C69.867 203.738 29.7683 241.626 16.3817 267.169C12.2434 260.338 8.84197 253.086 6.23479 245.537C-5.99042 211.071 0.122224 173.489 19.0713 138.29C44.717 126.176 72.2219 118.47 100.43 115.496C115.222 90.2141 137.438 70.0948 164.062 57.8704C155.988 48.3497 146.628 39.9994 136.25 33.0601C148.156 27.2686 160.404 22.2075 172.925 17.905C212.251 4.00674 253.974 -1.83319 295.605 0.73333C278.574 10.4781 263.786 23.6998 252.206 39.5377H252.145Z" fill="url(#paint10_radial_22_12415)"/>
<path fill-rule="evenodd" clip-rule="evenodd" d="M150.859 348.261C151.435 348.893 152.213 349.304 153.059 349.422C195.692 354.069 238.823 349.013 279.224 334.634C292.152 330.176 304.771 324.868 316.999 318.746C317.456 318.528 317.864 318.221 318.2 317.843C318.536 317.465 318.793 317.024 318.955 316.546C319.158 315.988 319.19 315.383 319.047 314.807C318.905 314.231 318.595 313.711 318.156 313.311C317.717 312.912 317.17 312.652 316.583 312.564C315.996 312.476 315.396 312.565 314.86 312.818C303.458 318.18 291.788 322.953 279.896 327.118C239.117 341.492 195.833 347.397 152.693 344.473C152.235 344.414 151.771 344.5 151.365 344.719C150.959 344.938 150.632 345.28 150.431 345.695C150.222 346.105 150.139 346.567 150.194 347.024C150.248 347.481 150.437 347.912 150.737 348.261H150.859Z" fill="#00FFFF"/>
<path fill-rule="evenodd" clip-rule="evenodd" d="M187.107 57.9927C242.12 38.3156 297.989 52.554 311.315 89.8918C324.64 127.229 290.532 173.367 235.213 193.044C179.894 212.721 124.33 198.483 111.066 161.206C97.8016 123.93 131.788 77.731 187.107 57.9927Z" fill="url(#paint11_radial_22_12415)"/>
<g style="mix-blend-mode:screen" opacity="0.75">
<path fill-rule="evenodd" clip-rule="evenodd" d="M186.068 58.1149C240.592 38.6821 295.361 52.7373 308.32 89.525C321.278 126.313 287.903 171.778 233.379 191.211C178.855 210.643 124.086 196.527 111.127 159.801C98.1684 123.074 131.604 77.5476 186.129 58.1149H186.068Z" fill="#9CFFF8"/>
</g>
<path fill-rule="evenodd" clip-rule="evenodd" d="M185.578 54.3261C240.592 34.649 296.461 48.8874 309.787 86.1641C323.112 123.441 289.004 169.639 233.685 189.378C178.366 209.116 122.802 194.816 109.538 157.479C96.2735 120.141 130.259 74.0033 185.578 54.3261Z" fill="url(#paint12_radial_22_12415)"/>
<path style="mix-blend-mode:screen" fill-rule="evenodd" clip-rule="evenodd" d="M303.674 118.43C287.292 72.5366 218.892 54.9371 150.859 79.1975C144.618 81.4247 138.497 83.9744 132.521 86.8362C110.944 108.286 101.225 134.562 109.416 157.478C122.68 194.816 178.305 209.055 233.562 189.377C268.649 177.156 295.177 153.69 306.486 128.94C305.921 125.36 305.021 121.841 303.796 118.43H303.674Z" fill="url(#paint13_radial_22_12415)"/>
<path fill-rule="evenodd" clip-rule="evenodd" d="M189.735 66.1813C227.878 52.6151 266.204 62.4537 275.312 88.1807C284.419 113.908 260.886 145.623 222.926 159.251C184.967 172.878 146.397 163.039 137.35 137.312C128.303 111.585 151.654 79.6865 189.857 66.1202L189.735 66.1813Z" fill="url(#paint14_radial_22_12415)"/>
<path fill-rule="evenodd" clip-rule="evenodd" d="M191.019 69.8478C226.166 57.626 261.436 66.3646 269.871 90.075C278.307 113.785 256.668 143.057 221.582 155.584C186.495 168.111 151.165 159.006 142.729 135.357C134.294 111.708 155.932 82.3141 191.019 69.8478Z" fill="url(#paint15_radial_22_12415)"/>
<path fill-rule="evenodd" clip-rule="evenodd" d="M144.746 139.512C140.223 116.719 161.312 90.1361 194.258 78.4032C227.205 66.6702 260.336 73.9422 271.277 94.4138C270.992 92.9359 270.583 91.4846 270.055 90.0751C261.619 66.3647 226.35 57.3205 191.202 69.8479C156.055 82.3753 134.477 111.647 142.913 135.357C143.435 136.78 144.048 138.167 144.746 139.512Z" fill="url(#paint16_radial_22_12415)"/>
<g style="mix-blend-mode:screen" opacity="0.5">
<path fill-rule="evenodd" clip-rule="evenodd" d="M191.141 70.9478C222.254 59.8871 253.551 65.5702 266.509 83.1697C254.284 64.8369 222.56 58.726 191.019 69.7257C164.49 79.1365 145.663 98.2026 141.69 117.208C146.397 98.5692 165.101 80.1142 191.141 70.8256V70.9478Z" fill="#9CFFF8"/>
</g>
<path fill-rule="evenodd" clip-rule="evenodd" d="M151.837 107.613C148.947 114.677 147.752 122.319 148.346 129.927C148.94 137.536 151.308 144.899 155.26 151.429C170.603 162.367 196.153 164.628 221.582 155.584C247.01 146.54 265.959 128.024 270.483 109.569C268.811 100.512 264.666 92.0933 258.506 85.2449C252.346 78.3964 244.411 73.3848 235.58 70.7645C221.126 67.2876 205.959 68.2459 192.058 73.5144C183.393 76.2092 175.357 80.6159 168.427 86.4733C161.497 92.3306 155.814 99.5194 151.715 107.613H151.837Z" fill="url(#paint17_radial_22_12415)"/>
<path fill-rule="evenodd" clip-rule="evenodd" d="M323.723 142.079C309.401 166.901 287.87 186.785 261.986 199.094L263.392 201.538C291.877 186.261 313.271 164.873 323.785 142.079H323.723Z" fill="url(#paint18_radial_22_12415)"/>
<path style="mix-blend-mode:screen" opacity="0.5" fill-rule="evenodd" clip-rule="evenodd" d="M170.603 153.751C205.261 164.812 270.055 133.096 254.59 91.0528C252.024 84.4792 247.539 78.8301 241.717 74.8409C235.895 70.8517 229.007 68.7073 221.949 68.6868C211.81 68.3981 201.708 70.0362 192.18 73.5144C183.515 76.2091 175.479 80.6159 168.549 86.4732C161.619 92.3306 155.936 99.5193 151.837 107.613C151.186 109.11 150.615 110.64 150.126 112.197C149.557 114.205 149.107 116.246 148.781 118.307C147.5 125.872 149.006 133.643 153.018 140.183C157.031 146.722 163.278 151.586 170.603 153.873V153.751Z" fill="url(#paint19_radial_22_12415)"/>
<path style="mix-blend-mode:screen" opacity="0.5" fill-rule="evenodd" clip-rule="evenodd" d="M175.309 85.7974C193.647 73.5755 214.43 73.5755 222.132 85.4306C229.834 97.2858 221.521 116.841 203.366 129.002C185.212 141.162 164.246 141.223 156.483 129.429C148.72 117.635 157.155 97.9581 175.309 85.7974Z" fill="url(#paint20_radial_22_12415)"/>
<path fill-rule="evenodd" clip-rule="evenodd" d="M233.501 72.2922C231.668 72.2922 228.122 72.2922 228.245 74.0644C228.367 75.8365 231.729 76.2032 233.746 76.2643C235.763 76.3254 238.819 76.2643 238.88 74.6143C238.942 72.9644 235.457 72.3533 233.501 72.2922ZM246.949 83.0474C244.81 82.4975 241.142 82.4363 240.836 84.4529C240.531 86.4695 243.282 88.0583 245.421 88.6694C247.56 89.2805 250.983 89.3417 251.534 87.2029C252.084 85.064 249.272 83.5974 247.194 83.0474H246.949ZM241.937 99.4858C240.653 101.502 243.037 104.375 245.176 105.597C247.316 106.819 251.289 107.43 252.389 105.597C253.49 103.763 251.534 101.075 249.333 99.4858C247.132 97.8969 243.22 97.6525 241.937 99.4858ZM231.851 115.069C231.047 116.119 230.658 117.43 230.76 118.749C230.861 120.068 231.446 121.303 232.401 122.218C233.367 123.313 234.694 124.026 236.14 124.228C237.586 124.43 239.057 124.107 240.286 123.318C241.998 121.791 241.264 118.185 239.308 116.169C238.367 115.178 237.121 114.532 235.769 114.333C234.418 114.133 233.038 114.392 231.851 115.069ZM212.657 127.29C211.652 128.154 210.984 129.345 210.771 130.653C210.559 131.962 210.816 133.303 211.496 134.44C211.86 135.146 212.375 135.763 213.003 136.249C213.631 136.735 214.359 137.077 215.133 137.252C215.908 137.426 216.712 137.429 217.488 137.26C218.264 137.091 218.994 136.755 219.626 136.274C220.523 135.229 221.041 133.913 221.097 132.538C221.152 131.163 220.742 129.809 219.931 128.696C219.15 127.549 217.947 126.758 216.584 126.495C215.221 126.231 213.81 126.517 212.657 127.29ZM193.158 130.896C191.725 130.927 190.359 131.51 189.346 132.523C188.332 133.537 187.749 134.902 187.718 136.335C187.489 137.658 187.764 139.018 188.488 140.149C189.212 141.28 190.333 142.099 191.63 142.446C194.075 142.446 196.337 140.062 196.642 136.946C196.948 133.829 195.481 130.835 193.158 130.835V130.896ZM168.28 129.979C167.057 132.424 166.935 136.09 169.197 137.373C171.458 138.657 174.698 135.296 175.309 132.913C176.226 129.246 175.309 127.229 173.476 126.802C171.642 126.374 169.625 127.413 168.28 130.04V129.979ZM163.512 115.496C162.106 114.091 159.111 115.496 157.4 117.269C155.688 119.041 153.854 122.952 155.627 124.602C157.399 126.252 160.517 123.807 162.045 121.913C163.573 120.018 164.857 116.902 163.329 115.496H163.512ZM157.4 101.625C155.688 103.213 153.976 106.269 154.954 107.369C155.932 108.469 159.172 106.636 160.7 105.23C162.228 103.825 164.368 100.769 163.268 99.4858C162.167 98.2025 159.111 99.9747 157.155 101.625H157.4ZM171.703 88.3028C174.698 86.1029 175.493 83.353 172.681 83.353C170.186 85.0589 167.797 86.916 165.529 88.9139C165.04 91.2361 168.891 90.3805 171.642 88.3028H171.703ZM185.151 76.081C187.001 76.6756 189 76.6177 190.813 75.9171C192.626 75.2165 194.145 73.9154 195.114 72.2311L191.936 73.3311C189.625 74.1207 187.359 75.0388 185.151 76.081ZM208.012 69.2979C207.217 70.8256 210.212 71.9867 213.085 71.7422C215.958 71.4978 218.587 70.0311 217.242 68.5034C214.151 68.5609 211.067 68.8263 208.012 69.2979Z" fill="url(#paint21_radial_22_12415)"/>
<path style="mix-blend-mode:screen" opacity="0.65" fill-rule="evenodd" clip-rule="evenodd" d="M235.213 193.044C180.199 212.599 124.88 198.605 111.249 161.756C110.638 160.351 110.027 158.945 109.538 157.478C101.347 134.562 111.066 108.286 132.643 86.8362C147.716 72.283 165.78 61.1888 185.578 54.326C177.999 54.326 170.358 54.3261 162.534 54.8149H161.189C162.167 55.7927 163.084 56.7704 163.94 57.8093L161.067 59.2148C135.652 71.468 114.49 91.0493 100.308 115.435C84.4714 117.206 68.8231 120.376 53.5463 124.907C47.8616 126.618 42.2991 128.513 36.7978 130.651C31.2964 132.79 24.9394 135.479 18.949 138.229C-0.244564 173.428 -5.80698 211.01 6.1126 245.476C8.71978 253.025 12.1211 260.277 16.2594 267.108C18.324 263.259 20.6311 259.544 23.1667 255.986L23.5945 255.375C41.0155 230.932 74.0236 200.377 99.3908 182.044C100.425 183.785 101.569 185.458 102.814 187.055C116.078 204.288 139.001 215.043 166.263 218.038C155.31 254.378 146.916 291.439 141.14 328.951C140.712 331.64 140.345 334.39 139.917 337.078C186.516 342.559 233.751 337.205 277.94 321.434C292.922 316.24 307.525 310.012 321.645 302.796L318.039 296.685L263.392 201.538L261.986 199.094C287.87 186.785 309.401 166.901 323.723 142.079C324.64 140.368 325.496 138.596 326.291 136.885C343.284 141.773 358.198 146.357 372.563 151.368C371.707 149.656 370.912 147.945 370.057 146.295C356.169 120.48 335.083 99.2509 309.359 85.1862V85.6751C310.031 87.0806 310.581 88.4861 311.131 89.9527C324.396 127.229 290.349 173.428 235.029 193.105L235.213 193.044Z" fill="url(#paint22_radial_22_12415)"/>
<path style="mix-blend-mode:multiply" fill-rule="evenodd" clip-rule="evenodd" d="M276.167 14.1163C282.234 9.11318 288.717 4.636 295.544 0.73333C253.913 -1.83319 212.19 4.00674 172.864 17.905C160.343 22.2075 148.095 27.2686 136.189 33.0601C138.296 34.3398 140.336 35.7268 142.301 37.2155C148.047 34.8323 153.915 32.6323 159.906 30.5546C197.139 17.4049 236.623 11.8164 276.045 14.1163H276.167ZM389.801 58.2371C403.064 70.6214 413.131 86.0323 419.141 103.152C426.443 124.878 427.061 148.293 420.914 170.373C427.515 173.306 434.3 176.483 441.513 179.844C452.678 152.428 453.761 121.942 444.569 93.8027C439.834 80.1538 432.554 67.5258 423.114 56.5871C411.439 56.5871 400.375 57.076 389.801 58.0538V58.2371Z" fill="url(#paint23_radial_22_12415)"/>
<path fill-rule="evenodd" clip-rule="evenodd" d="M152.448 345.389C150.553 345.389 149.514 348.017 153.121 348.384C195.909 352.783 237.658 345.206 262.536 334.267C219.198 344.167 198.048 347.65 152.509 345.389H152.448Z" fill="#BAFFFF"/>
<path style="mix-blend-mode:screen" fill-rule="evenodd" clip-rule="evenodd" d="M184.967 131.813C184.967 134.472 184.179 137.071 182.701 139.282C181.223 141.493 179.123 143.216 176.666 144.233C174.209 145.251 171.505 145.517 168.896 144.998C166.287 144.48 163.891 143.199 162.011 141.319C160.13 139.439 158.849 137.043 158.33 134.435C157.811 131.828 158.078 129.124 159.095 126.668C160.113 124.211 161.837 122.112 164.048 120.634C166.26 119.157 168.86 118.369 171.52 118.369C175.081 118.385 178.492 119.806 181.011 122.324C183.529 124.842 184.951 128.252 184.967 131.813Z" fill="url(#paint24_radial_22_12415)"/>
<path style="mix-blend-mode:screen" fill-rule="evenodd" clip-rule="evenodd" d="M179.527 131.813C179.527 133.396 179.057 134.944 178.178 136.26C177.298 137.577 176.047 138.603 174.584 139.209C173.121 139.814 171.511 139.973 169.957 139.664C168.404 139.355 166.977 138.593 165.857 137.473C164.737 136.354 163.975 134.927 163.666 133.374C163.357 131.822 163.516 130.212 164.122 128.749C164.728 127.286 165.754 126.036 167.071 125.156C168.388 124.277 169.936 123.807 171.52 123.807C173.643 123.807 175.68 124.651 177.182 126.152C178.683 127.653 179.527 129.689 179.527 131.813Z" fill="url(#paint25_radial_22_12415)"/>
<path style="mix-blend-mode:screen" fill-rule="evenodd" clip-rule="evenodd" d="M205.872 136.64C205.872 139.302 205.082 141.904 203.602 144.116C202.121 146.328 200.017 148.051 197.557 149.067C195.096 150.082 192.389 150.345 189.779 149.821C187.168 149.298 184.772 148.011 182.894 146.125C181.016 144.239 179.74 141.837 179.228 139.225C178.716 136.614 178.991 133.908 180.018 131.453C181.045 128.998 182.779 126.902 184.998 125.432C187.218 123.962 189.824 123.184 192.486 123.196C196.042 123.212 199.447 124.636 201.955 127.155C204.464 129.675 205.872 133.085 205.872 136.64Z" fill="url(#paint26_radial_22_12415)"/>
<path style="mix-blend-mode:screen" d="M192.18 144.646C196.603 144.646 200.188 141.061 200.188 136.64C200.188 132.219 196.603 128.635 192.18 128.635C187.758 128.635 184.173 132.219 184.173 136.64C184.173 141.061 187.758 144.646 192.18 144.646Z" fill="url(#paint27_radial_22_12415)"/>
<path style="mix-blend-mode:screen" fill-rule="evenodd" clip-rule="evenodd" d="M169.197 119.957C169.197 121.894 168.622 123.787 167.544 125.396C166.467 127.005 164.936 128.258 163.145 128.996C161.354 129.735 159.385 129.925 157.486 129.542C155.587 129.16 153.845 128.223 152.479 126.849C151.114 125.476 150.187 123.728 149.817 121.827C149.447 119.926 149.649 117.959 150.399 116.173C151.148 114.388 152.411 112.865 154.028 111.798C155.644 110.731 157.541 110.168 159.478 110.18C162.061 110.196 164.533 111.233 166.354 113.065C168.175 114.897 169.197 117.375 169.197 119.957Z" fill="url(#paint28_radial_22_12415)"/>
<path style="mix-blend-mode:screen" fill-rule="evenodd" clip-rule="evenodd" d="M165.162 119.957C165.162 121.166 164.804 122.348 164.132 123.352C163.461 124.357 162.506 125.141 161.389 125.603C160.272 126.066 159.043 126.187 157.857 125.951C156.672 125.715 155.582 125.133 154.728 124.279C153.873 123.424 153.291 122.335 153.055 121.15C152.819 119.964 152.94 118.735 153.403 117.619C153.865 116.502 154.649 115.548 155.654 114.876C156.659 114.205 157.841 113.847 159.05 113.847C159.864 113.802 160.679 113.93 161.44 114.222C162.202 114.513 162.894 114.962 163.47 115.538C164.047 116.115 164.496 116.806 164.787 117.568C165.079 118.329 165.207 119.143 165.162 119.957Z" fill="url(#paint29_radial_22_12415)"/>
<g opacity="0.85">
<path style="mix-blend-mode:screen" d="M215.958 140.979C221.157 140.979 225.372 136.766 225.372 131.568C225.372 126.371 221.157 122.157 215.958 122.157C210.759 122.157 206.545 126.371 206.545 131.568C206.545 136.766 210.759 140.979 215.958 140.979Z" fill="url(#paint30_radial_22_12415)"/>
<path style="mix-blend-mode:screen" fill-rule="evenodd" clip-rule="evenodd" d="M221.582 131.629C221.57 132.739 221.23 133.819 220.604 134.736C219.979 135.652 219.097 136.364 218.068 136.78C217.04 137.196 215.911 137.298 214.824 137.075C213.737 136.851 212.741 136.311 211.961 135.522C211.18 134.733 210.651 133.732 210.439 132.643C210.227 131.554 210.341 130.427 210.769 129.403C211.196 128.379 211.917 127.505 212.84 126.89C213.764 126.275 214.849 125.946 215.958 125.946C216.702 125.946 217.438 126.094 218.124 126.38C218.811 126.666 219.433 127.086 219.956 127.614C220.479 128.143 220.892 128.77 221.171 129.459C221.45 130.148 221.59 130.886 221.582 131.629Z" fill="url(#paint31_radial_22_12415)"/>
</g>
<g opacity="0.75">
<path style="mix-blend-mode:screen" fill-rule="evenodd" clip-rule="evenodd" d="M243.893 119.102C243.893 120.676 243.425 122.214 242.549 123.522C241.673 124.829 240.429 125.848 238.973 126.447C237.517 127.046 235.917 127.2 234.374 126.889C232.83 126.577 231.415 125.814 230.306 124.697C229.197 123.58 228.445 122.159 228.145 120.614C227.846 119.069 228.012 117.47 228.623 116.019C229.233 114.569 230.261 113.332 231.576 112.467C232.891 111.601 234.433 111.146 236.007 111.158C237.048 111.158 238.079 111.364 239.039 111.764C240 112.163 240.872 112.75 241.605 113.488C242.338 114.227 242.918 115.103 243.31 116.066C243.703 117.03 243.901 118.062 243.893 119.102Z" fill="url(#paint32_radial_22_12415)"/>
<path style="mix-blend-mode:screen" fill-rule="evenodd" clip-rule="evenodd" d="M240.714 119.102C240.726 120.05 240.455 120.98 239.936 121.773C239.417 122.566 238.673 123.186 237.799 123.555C236.926 123.923 235.962 124.022 235.031 123.84C234.101 123.659 233.246 123.203 232.575 122.533C231.905 121.863 231.45 121.008 231.268 120.078C231.086 119.147 231.185 118.184 231.554 117.311C231.922 116.437 232.543 115.693 233.336 115.174C234.129 114.655 235.059 114.384 236.007 114.397C237.256 114.397 238.453 114.892 239.336 115.775C240.218 116.657 240.714 117.854 240.714 119.102Z" fill="url(#paint33_radial_22_12415)"/>
</g>
<path style="mix-blend-mode:screen" fill-rule="evenodd" clip-rule="evenodd" d="M167.424 103.336C167.424 104.931 166.951 106.491 166.064 107.817C165.178 109.144 163.918 110.178 162.443 110.788C160.969 111.399 159.347 111.558 157.781 111.247C156.216 110.936 154.779 110.168 153.65 109.04C152.522 107.911 151.753 106.474 151.442 104.909C151.131 103.345 151.29 101.723 151.901 100.249C152.512 98.7749 153.546 97.5152 154.873 96.6288C156.2 95.7425 157.76 95.2693 159.355 95.2693C161.495 95.2693 163.548 96.1192 165.061 97.6319C166.574 99.1447 167.424 101.196 167.424 103.336Z" fill="url(#paint34_radial_22_12415)"/>
<path style="mix-blend-mode:screen" fill-rule="evenodd" clip-rule="evenodd" d="M164.123 103.336C164.123 104.293 163.838 105.229 163.305 106.024C162.772 106.819 162.014 107.438 161.128 107.801C160.242 108.165 159.268 108.257 158.33 108.066C157.391 107.874 156.531 107.408 155.858 106.727C155.185 106.046 154.73 105.18 154.551 104.24C154.371 103.299 154.476 102.327 154.851 101.446C155.226 100.565 155.854 99.8148 156.656 99.2918C157.458 98.7688 158.398 98.496 159.356 98.5081C159.987 98.508 160.612 98.6333 161.194 98.8767C161.777 99.12 162.305 99.4767 162.749 99.9258C163.192 100.375 163.542 100.908 163.778 101.493C164.014 102.078 164.131 102.705 164.123 103.336Z" fill="url(#paint35_radial_22_12415)"/>
<path style="mix-blend-mode:screen" opacity="0.2" fill-rule="evenodd" clip-rule="evenodd" d="M326.291 136.885C365.928 147.742 404.494 162.183 441.513 180.028C452.678 152.611 453.761 122.125 444.569 93.9861C439.834 80.3372 432.554 67.7092 423.114 56.7705C388.658 56.7122 354.376 61.6524 321.34 71.4368C324.919 76.1995 327.763 81.473 329.775 87.0807C335.201 103.495 333.95 121.385 326.291 136.885Z" fill="url(#paint36_radial_22_12415)"/>
<path style="mix-blend-mode:screen" opacity="0.25" fill-rule="evenodd" clip-rule="evenodd" d="M166.385 218.038C154.606 257.065 145.759 296.917 139.917 337.262C186.516 342.742 233.751 337.389 277.94 321.618C292.922 316.423 307.525 310.195 321.645 302.98L261.986 199.094C254.974 202.701 247.724 205.825 240.286 208.444C216.675 217.105 191.426 220.383 166.385 218.038Z" fill="url(#paint37_radial_22_12415)"/>
<path style="mix-blend-mode:screen" opacity="0.25" fill-rule="evenodd" clip-rule="evenodd" d="M94.1341 170.984C91.1726 161.828 90.1861 152.149 91.2397 142.585C92.2933 133.02 95.3632 123.788 100.247 115.496C72.0386 118.47 44.5337 126.176 18.888 138.29C-0.305595 173.489 -5.8681 211.071 6.05147 245.537C8.65866 253.086 12.06 260.338 16.1984 267.169C29.585 241.626 69.6837 203.738 99.3298 182.044C97.1252 178.572 95.3206 174.862 93.9507 170.984H94.1341Z" fill="url(#paint38_radial_22_12415)"/>
<path style="mix-blend-mode:screen" opacity="0.2" fill-rule="evenodd" clip-rule="evenodd" d="M183.684 49.5596C205.575 41.5622 228.879 38.1509 252.145 39.5377C263.725 23.6998 278.513 10.4781 295.544 0.73333C253.913 -1.83319 212.19 4.00674 172.864 17.905C160.343 22.2075 148.095 27.2686 136.189 33.0601C146.533 39.8992 155.891 48.1236 164.001 57.5038C170.381 54.3872 176.932 51.6329 183.623 49.2541L183.684 49.5596Z" fill="url(#paint39_radial_22_12415)"/>
<path d="M277.879 38.3766C277.36 38.2017 276.921 37.8444 276.646 37.3709C276.37 36.8974 276.276 36.34 276.381 35.8022C276.485 35.2645 276.781 34.783 277.214 34.4472C277.647 34.1115 278.188 33.9443 278.735 33.9767C288.474 35.7599 297.971 38.672 307.036 42.6542C315.324 46.3144 323.077 51.0839 330.081 56.8316C330.484 57.262 330.709 57.8302 330.709 58.4204C330.709 59.0107 330.484 59.5788 330.081 60.0092C329.897 60.2355 329.67 60.4232 329.414 60.5612C329.157 60.6993 328.876 60.785 328.586 60.8135C328.296 60.8419 328.003 60.8124 327.724 60.7268C327.446 60.6412 327.187 60.5012 326.963 60.3148C320.29 54.7986 312.884 50.2332 304.958 46.7485C296.203 42.9147 287.034 40.1054 277.634 38.3766H277.879ZM301.962 21.0216C301.403 20.8974 300.912 20.5657 300.588 20.0935C300.264 19.6213 300.131 19.0437 300.216 18.4774C300.302 17.9111 300.599 17.3982 301.048 17.0425C301.497 16.6867 302.064 16.5145 302.635 16.5606C316.845 18.6919 330.768 22.4229 344.139 27.6824C356.382 32.5312 367.917 39.0058 378.431 46.9319C378.708 47.0951 378.946 47.3153 379.131 47.5779C379.316 47.8404 379.442 48.1392 379.503 48.4545C379.563 48.7698 379.555 49.0943 379.48 49.4064C379.405 49.7185 379.265 50.0112 379.068 50.2648C378.871 50.5184 378.622 50.7272 378.339 50.8773C378.055 51.0274 377.742 51.1154 377.422 51.1354C377.102 51.1554 376.78 51.1069 376.48 50.9933C376.18 50.8796 375.907 50.7034 375.68 50.4762C365.527 42.7658 354.358 36.4938 342.489 31.8379C329.436 26.7007 315.839 23.0718 301.962 21.0216ZM293.16 26.6436C292.569 26.5531 292.038 26.2323 291.683 25.7513C291.328 25.2704 291.178 24.6684 291.265 24.077C291.31 23.7863 291.412 23.5075 291.566 23.2569C291.72 23.0064 291.922 22.7892 292.162 22.6183C292.401 22.4474 292.672 22.3263 292.959 22.2619C293.246 22.1976 293.543 22.1914 293.833 22.2437C306.591 24.178 319.083 27.582 331.059 32.3879C341.998 36.7368 352.283 42.5771 361.622 49.7429C362.088 50.116 362.392 50.6543 362.472 51.246C362.552 51.8378 362.4 52.4375 362.049 52.9206C361.865 53.1534 361.636 53.3475 361.376 53.492C361.117 53.6364 360.831 53.7283 360.536 53.7623C360.241 53.7964 359.942 53.772 359.656 53.6905C359.37 53.6089 359.104 53.4719 358.871 53.2872C349.816 46.3876 339.863 40.7544 329.286 36.5433C317.635 31.8906 305.496 28.5696 293.099 26.6436H293.16ZM285.153 32.3879C284.862 32.3436 284.583 32.2415 284.333 32.0875C284.082 31.9336 283.865 31.731 283.694 31.4917C283.523 31.2525 283.402 30.9814 283.337 30.6944C283.273 30.4075 283.267 30.1106 283.319 29.8213C283.363 29.5306 283.465 29.2517 283.619 29.0012C283.773 28.7507 283.976 28.5335 284.215 28.3626C284.455 28.1917 284.726 28.0705 285.013 28.0061C285.3 27.9418 285.597 27.9356 285.886 27.988C297.145 29.8593 308.156 32.9957 318.711 37.3377C328.361 41.3278 337.411 46.6335 345.606 53.1039C346.068 53.4686 346.367 54.0018 346.436 54.5863C346.504 55.1707 346.338 55.7586 345.973 56.2205C345.793 56.4492 345.569 56.6401 345.314 56.7823C345.06 56.9245 344.78 57.0152 344.49 57.0492C343.906 57.118 343.318 56.9518 342.856 56.5871C334.955 50.3844 326.233 45.3049 316.938 41.4931C306.724 37.2608 296.06 34.206 285.153 32.3879ZM95.6622 108.469C95.383 108.731 95.0212 108.888 94.6389 108.913C94.2566 108.938 93.8777 108.829 93.5669 108.605C93.2561 108.381 93.033 108.056 92.9357 107.685C92.8385 107.315 92.8731 106.922 93.0337 106.574C99.7454 97.3069 107.475 88.8208 116.078 81.2752C125.286 73.1724 135.278 66.0076 145.908 59.887C146.281 59.6763 146.722 59.6223 147.135 59.7369C147.547 59.8515 147.898 60.1253 148.108 60.4981C148.319 60.8709 148.373 61.3121 148.258 61.7247C148.144 62.1372 147.87 62.4873 147.497 62.698C137.112 68.7384 127.328 75.7571 118.279 83.6585C109.834 91.0553 102.247 99.3776 95.6622 108.469ZM83.8648 110.547C83.7329 110.72 83.5681 110.865 83.3797 110.974C83.1912 111.084 82.9831 111.154 82.7671 111.183C82.5512 111.211 82.3318 111.197 82.1215 111.14C81.9113 111.083 81.7144 110.985 81.5421 110.852C81.3708 110.726 81.2266 110.566 81.1181 110.383C81.0096 110.2 80.9391 109.997 80.9106 109.786C80.8821 109.575 80.8962 109.361 80.9522 109.156C81.0082 108.95 81.1049 108.758 81.2365 108.591C88.9455 98.2157 97.7812 88.7265 107.582 80.2975C118.05 71.3398 129.348 63.4004 141.323 56.5871C141.512 56.4788 141.72 56.4086 141.936 56.3807C142.152 56.3528 142.371 56.3677 142.581 56.4244C142.791 56.4812 142.988 56.5787 143.16 56.7115C143.332 56.8442 143.477 57.0096 143.585 57.1982C143.693 57.3868 143.764 57.5949 143.791 57.8105C143.819 58.0262 143.805 58.2453 143.748 58.4553C143.691 58.6652 143.593 58.862 143.461 59.0342C143.328 59.2065 143.162 59.3509 142.974 59.4593C131.126 66.0925 119.985 73.9141 109.721 82.803C100.072 91.0341 91.3964 100.343 83.8648 110.547ZM71.6396 113.052C71.3616 113.344 70.9864 113.523 70.5848 113.558C70.1833 113.592 69.7831 113.478 69.4598 113.237C69.1365 112.997 68.9124 112.646 68.8298 112.252C68.7471 111.858 68.8117 111.447 69.0113 111.097C77.7209 99.5417 87.6841 88.9869 98.7185 79.6253C110.471 69.6787 123.163 60.8987 136.617 53.4095C136.991 53.208 137.43 53.1591 137.84 53.273C138.25 53.3869 138.6 53.6547 138.817 54.0205C139.017 54.4117 139.058 54.8646 138.933 55.2854C138.808 55.7063 138.526 56.0629 138.145 56.2816C124.89 63.6422 112.4 72.3011 100.858 82.1308C89.9883 91.3086 80.187 101.681 71.6396 113.052ZM59.4144 116.046C59.2987 116.249 59.1413 116.425 58.9525 116.563C58.7636 116.7 58.5477 116.796 58.319 116.844C58.0903 116.892 57.8541 116.891 57.6259 116.841C57.3977 116.791 57.1827 116.692 56.9953 116.553C56.8078 116.414 56.6522 116.236 56.5385 116.032C56.4249 115.828 56.3559 115.602 56.3361 115.369C56.3164 115.136 56.3462 114.902 56.4238 114.682C56.5014 114.461 56.6248 114.26 56.7861 114.091C66.4757 101.302 77.5679 89.6391 89.8553 79.3197C102.872 68.3043 116.961 58.621 131.91 50.4151C132.283 50.2044 132.724 50.1504 133.137 50.265C133.549 50.3796 133.9 50.6534 134.11 51.0262C134.321 51.3989 134.375 51.8401 134.261 52.2527C134.146 52.6653 133.872 53.0154 133.499 53.2261C118.735 61.3661 104.812 70.9457 91.9335 81.8252C79.8446 91.9771 68.9363 103.456 59.4144 116.046ZM401.72 181.739C401.903 181.352 402.161 181.006 402.479 180.72C402.797 180.433 403.168 180.213 403.572 180.071C403.975 179.929 404.403 179.868 404.83 179.892C405.257 179.916 405.675 180.025 406.06 180.211C406.845 180.593 407.447 181.271 407.733 182.095C408.02 182.92 407.967 183.825 407.588 184.611C398.407 202.886 386.309 219.542 371.768 233.926C355.866 249.748 337.919 263.374 318.405 274.441C318.038 274.657 317.631 274.797 317.208 274.852C316.786 274.907 316.356 274.877 315.946 274.763C315.535 274.649 315.152 274.453 314.818 274.188C314.485 273.923 314.208 273.594 314.004 273.219C313.577 272.471 313.46 271.586 313.677 270.752C313.894 269.919 314.428 269.203 315.166 268.758C334.189 258.003 351.685 244.746 367.184 229.343C381.206 215.456 392.871 199.377 401.72 181.739ZM134.049 301.574C134.47 301.647 134.872 301.804 135.231 302.036C135.59 302.267 135.899 302.569 136.139 302.923C136.378 303.277 136.544 303.675 136.626 304.094C136.708 304.513 136.705 304.945 136.617 305.363C136.536 305.786 136.373 306.189 136.135 306.548C135.896 306.908 135.589 307.216 135.231 307.455C134.872 307.694 134.469 307.859 134.046 307.94C133.623 308.022 133.187 308.018 132.766 307.929C114.549 304.333 97.0404 297.79 80.9308 288.558C66.5667 280.273 54.0782 269.099 44.2552 255.742C44.0094 255.393 43.8349 254.999 43.7418 254.583C43.6486 254.167 43.6387 253.736 43.7126 253.316C43.7864 252.896 43.9425 252.494 44.172 252.135C44.4015 251.775 44.6999 251.464 45.0499 251.22C45.392 250.963 45.7825 250.778 46.198 250.675C46.6134 250.573 47.0453 250.556 47.4677 250.624C47.89 250.692 48.2943 250.846 48.6561 251.074C49.0179 251.302 49.3298 251.601 49.5732 251.953C58.9507 264.572 70.833 275.12 84.4761 282.936C99.9648 291.8 116.789 298.095 134.294 301.574H134.049ZM380.632 173.245C380.828 172.863 381.098 172.525 381.426 172.248C381.753 171.971 382.132 171.761 382.541 171.631C382.95 171.5 383.38 171.451 383.808 171.487C384.235 171.523 384.651 171.642 385.033 171.839C385.414 172.036 385.753 172.306 386.03 172.633C386.307 172.961 386.517 173.339 386.647 173.748C386.778 174.157 386.826 174.587 386.791 175.014C386.755 175.442 386.635 175.858 386.439 176.239C378.09 192.259 367.236 206.844 354.286 219.443C340.2 233.316 324.38 245.311 307.219 255.131C306.845 255.416 306.414 255.618 305.956 255.723C305.497 255.828 305.021 255.834 304.56 255.74C304.099 255.646 303.663 255.455 303.282 255.179C302.901 254.903 302.583 254.549 302.35 254.14C302.118 253.732 301.975 253.278 301.932 252.81C301.888 252.341 301.946 251.869 302.1 251.425C302.254 250.98 302.502 250.574 302.826 250.233C303.15 249.892 303.543 249.624 303.98 249.448C320.657 239.95 336.027 228.323 349.702 214.86C362.146 202.709 372.586 188.663 380.632 173.245ZM138.634 279.208C139.47 279.398 140.199 279.907 140.667 280.625C141.135 281.344 141.304 282.216 141.14 283.058C141.06 283.481 140.896 283.884 140.658 284.244C140.42 284.603 140.113 284.911 139.754 285.15C139.395 285.389 138.993 285.554 138.569 285.636C138.146 285.717 137.711 285.713 137.289 285.624C121.245 282.352 105.816 276.578 91.5668 268.514C78.8049 261.244 67.6407 251.475 58.7421 239.793C58.4804 239.449 58.2901 239.057 58.1821 238.639C58.0742 238.222 58.0509 237.786 58.1135 237.359C58.1761 236.933 58.3235 236.522 58.5469 236.153C58.7703 235.784 59.0652 235.463 59.4144 235.209C60.1093 234.716 60.9683 234.51 61.8114 234.635C62.6545 234.761 63.4165 235.207 63.9378 235.882C72.3295 246.853 82.8493 256.019 94.8675 262.831C108.49 270.587 123.265 276.116 138.634 279.208ZM359.299 165.056C359.503 164.683 359.779 164.353 360.111 164.087C360.443 163.82 360.824 163.621 361.233 163.502C361.642 163.383 362.07 163.346 362.493 163.392C362.917 163.438 363.327 163.568 363.7 163.773C364.458 164.197 365.018 164.904 365.259 165.739C365.499 166.575 365.4 167.471 364.983 168.234C357.373 181.776 347.817 194.129 336.621 204.899C324.422 216.686 310.833 226.947 296.155 235.454C295.41 235.891 294.521 236.015 293.684 235.797C292.847 235.579 292.131 235.038 291.693 234.293C291.256 233.547 291.132 232.658 291.35 231.822C291.568 230.985 292.109 230.269 292.855 229.832C307.085 221.649 320.246 211.735 332.037 200.316C342.815 189.995 352.002 178.133 359.299 165.117V165.056ZM143.646 256.72C144.414 256.976 145.061 257.505 145.464 258.207C145.867 258.909 145.998 259.735 145.832 260.527C145.666 261.319 145.215 262.022 144.564 262.503C143.913 262.985 143.108 263.21 142.301 263.136C128.566 260.31 115.336 255.427 103.058 248.653C92.0075 242.597 82.2315 234.463 74.2681 224.699C73.9966 224.367 73.7937 223.984 73.6713 223.573C73.5488 223.162 73.5092 222.731 73.5547 222.305C73.6002 221.878 73.7298 221.465 73.9363 221.09C74.1427 220.714 74.4217 220.383 74.7571 220.115C75.434 219.583 76.2923 219.336 77.1489 219.427C78.0054 219.518 78.7923 219.941 79.3416 220.604C86.7779 229.726 95.9113 237.321 106.237 242.97C117.931 249.437 130.547 254.074 143.646 256.72ZM337.354 157.845C337.839 157.168 338.562 156.699 339.378 156.532C340.195 156.365 341.044 156.513 341.755 156.946C342.467 157.379 342.988 158.065 343.215 158.867C343.442 159.668 343.357 160.526 342.978 161.267C336.178 172.259 327.957 182.307 318.528 191.15C308.42 200.609 297.287 208.91 285.336 215.899C284.588 216.326 283.702 216.443 282.869 216.226C282.035 216.009 281.319 215.475 280.874 214.738C280.654 214.369 280.51 213.961 280.45 213.536C280.39 213.112 280.414 212.68 280.522 212.265C280.63 211.85 280.82 211.46 281.079 211.119C281.339 210.778 281.664 210.491 282.035 210.277C293.659 203.481 304.484 195.405 314.31 186.2C323.341 177.756 331.194 168.137 337.66 157.601L337.354 157.845ZM149.27 235.209C149.863 235.565 150.329 236.098 150.603 236.733C150.877 237.368 150.944 238.073 150.796 238.748C150.647 239.424 150.29 240.035 149.775 240.497C149.26 240.958 148.613 241.246 147.925 241.32C136.655 239.006 125.755 235.162 115.528 229.893C106.378 225.063 98.1106 218.72 91.0778 211.132C90.7888 210.819 90.5643 210.453 90.4171 210.053C90.2699 209.653 90.2029 209.228 90.22 208.803C90.237 208.377 90.3377 207.959 90.5164 207.572C90.695 207.186 90.9481 206.838 91.2611 206.549C91.5742 206.26 91.9411 206.036 92.3409 205.889C92.7407 205.742 93.1656 205.675 93.5913 205.692C94.017 205.709 94.4352 205.809 94.822 205.988C95.2088 206.166 95.5566 206.419 95.8456 206.732C102.421 213.82 110.177 219.713 118.768 224.149C128.413 229.12 138.697 232.739 149.331 234.904L149.27 235.209Z" fill="url(#paint40_radial_22_12415)"/>
</g>
<defs>
<radialGradient id="paint0_radial_22_12415" cx="0" cy="0" r="1" gradientUnits="userSpaceOnUse" gradientTransform="translate(261.498 315.874) scale(294.686 294.608)">
<stop stop-color="#657D94"/>
<stop offset="1" stop-color="#293140"/>
</radialGradient>
<radialGradient id="paint1_radial_22_12415" cx="0" cy="0" r="1" gradientUnits="userSpaceOnUse" gradientTransform="translate(157.216 328.768) scale(321.278 321.19)">
<stop stop-color="#0077FF"/>
<stop offset="0.25" stop-color="#006BEB"/>
<stop offset="0.77" stop-color="#004DB9"/>
<stop offset="0.79" stop-color="#004CB7"/>
</radialGradient>
<radialGradient id="paint2_radial_22_12415" cx="0" cy="0" r="1" gradientUnits="userSpaceOnUse" gradientTransform="translate(94.5619 320.396) scale(426.598 426.481)">
<stop stop-color="#2B8FFF"/>
<stop offset="0.32" stop-color="#1F7DEB"/>
<stop offset="0.97" stop-color="#014EB9"/>
<stop offset="1" stop-color="#004CB7"/>
</radialGradient>
<radialGradient id="paint3_radial_22_12415" cx="0" cy="0" r="1" gradientUnits="userSpaceOnUse" gradientTransform="translate(87.1656 397.515) scale(383.81 383.705)">
<stop stop-color="#00CCFF"/>
<stop offset="1"/>
</radialGradient>
<radialGradient id="paint4_radial_22_12415" cx="0" cy="0" r="1" gradientUnits="userSpaceOnUse" gradientTransform="translate(357.526 314.713) scale(177.877 177.828)">
<stop stop-color="#748FA8"/>
<stop offset="1" stop-color="#475670"/>
</radialGradient>
<radialGradient id="paint5_radial_22_12415" cx="0" cy="0" r="1" gradientUnits="userSpaceOnUse" gradientTransform="translate(131.482 -8.73847) scale(78.9747 78.953)">
<stop stop-color="#688096"/>
<stop offset="1" stop-color="#404E66"/>
</radialGradient>
<radialGradient id="paint6_radial_22_12415" cx="0" cy="0" r="1" gradientUnits="userSpaceOnUse" gradientTransform="translate(115.345 365.922) scale(184.356 184.305)">
<stop stop-color="#89A9C7"/>
<stop offset="1" stop-color="#526482"/>
</radialGradient>
<radialGradient id="paint7_radial_22_12415" cx="0" cy="0" r="1" gradientUnits="userSpaceOnUse" gradientTransform="translate(378.492 -43.0208) scale(152.265 152.223)">
<stop stop-color="#688096"/>
<stop offset="1" stop-color="#404E66"/>
</radialGradient>
<radialGradient id="paint8_radial_22_12415" cx="0" cy="0" r="1" gradientUnits="userSpaceOnUse" gradientTransform="translate(158.011 316.424) scale(364.128 364.028)">
<stop stop-color="#89A9C7"/>
<stop offset="1" stop-color="#526482"/>
</radialGradient>
<radialGradient id="paint9_radial_22_12415" cx="0" cy="0" r="1" gradientUnits="userSpaceOnUse" gradientTransform="translate(36.309 408.576) scale(308.136 308.052)">
<stop stop-color="#89A9C7"/>
<stop offset="1" stop-color="#526482"/>
</radialGradient>
<radialGradient id="paint10_radial_22_12415" cx="0" cy="0" r="1" gradientUnits="userSpaceOnUse" gradientTransform="translate(270.299 33.6101) scale(355.081 354.983)">
<stop offset="0.04"/>
<stop offset="0.72"/>
<stop offset="0.74" stop-color="#050708"/>
<stop offset="0.78" stop-color="#121C1E"/>
<stop offset="0.83" stop-color="#273D41"/>
<stop offset="0.88" stop-color="#446B72"/>
<stop offset="0.94" stop-color="#6AA7B1"/>
<stop offset="1" stop-color="#99F0FF"/>
</radialGradient>
<radialGradient id="paint11_radial_22_12415" cx="0" cy="0" r="1" gradientUnits="userSpaceOnUse" gradientTransform="translate(178.977 205.205) scale(179.466 179.417)">
<stop stop-color="#00A3DD"/>
<stop offset="0.13" stop-color="#009AD3"/>
<stop offset="0.37" stop-color="#0083B7"/>
<stop offset="0.67" stop-color="#005D8B"/>
<stop offset="1" stop-color="#002C51"/>
</radialGradient>
<radialGradient id="paint12_radial_22_12415" cx="0" cy="0" r="1" gradientUnits="userSpaceOnUse" gradientTransform="translate(188.329 226.226) scale(192.18 192.127)">
<stop stop-color="#00A3DD"/>
<stop offset="0.21" stop-color="#009AD3"/>
<stop offset="0.57" stop-color="#0084B7"/>
<stop offset="1" stop-color="#00618E"/>
</radialGradient>
<radialGradient id="paint13_radial_22_12415" cx="0" cy="0" r="1" gradientUnits="userSpaceOnUse" gradientTransform="translate(211.129 -12.6497) scale(254.59 254.52)">
<stop offset="0.44" stop-color="#000014"/>
<stop offset="0.49" stop-color="#00071A"/>
<stop offset="0.57" stop-color="#00192A"/>
<stop offset="0.65" stop-color="#003845"/>
<stop offset="0.75" stop-color="#00626A"/>
<stop offset="0.85" stop-color="#009999"/>
<stop offset="0.96" stop-color="#00DBD2"/>
<stop offset="1" stop-color="#00F7EB"/>
</radialGradient>
<radialGradient id="paint14_radial_22_12415" cx="0" cy="0" r="1" gradientUnits="userSpaceOnUse" gradientTransform="translate(172.987 173.306) scale(136.25 136.212)">
<stop stop-color="#00C9FF"/>
<stop offset="0.17" stop-color="#00C1F5"/>
<stop offset="0.47" stop-color="#00ABD9"/>
<stop offset="0.85" stop-color="#0089AD"/>
<stop offset="1" stop-color="#007999"/>
</radialGradient>
<radialGradient id="paint15_radial_22_12415" cx="0" cy="0" r="1" gradientUnits="userSpaceOnUse" gradientTransform="translate(216.142 116.046) scale(162.351 162.306)">
<stop stop-color="#002C51"/>
<stop offset="0.14" stop-color="#003157"/>
<stop offset="0.32" stop-color="#003F68"/>
<stop offset="0.53" stop-color="#005784"/>
<stop offset="0.75" stop-color="#0078AA"/>
<stop offset="0.99" stop-color="#00A2DC"/>
<stop offset="1" stop-color="#00A3DD"/>
</radialGradient>
<radialGradient id="paint16_radial_22_12415" cx="0" cy="0" r="1" gradientUnits="userSpaceOnUse" gradientTransform="translate(197.009 90.3806) scale(53.1796 53.165)">
<stop stop-color="#002C51"/>
<stop offset="0.38" stop-color="#004872"/>
<stop offset="0.77" stop-color="#006290"/>
<stop offset="1" stop-color="#006B9B"/>
</radialGradient>
<radialGradient id="paint17_radial_22_12415" cx="0" cy="0" r="1" gradientUnits="userSpaceOnUse" gradientTransform="translate(179.038 114.519) scale(90.6499 90.625)">
<stop stop-color="#0077FF"/>
<stop offset="0.25" stop-color="#006BEB"/>
<stop offset="0.77" stop-color="#004DB9"/>
<stop offset="0.79" stop-color="#004CB7"/>
</radialGradient>
<radialGradient id="paint18_radial_22_12415" cx="0" cy="0" r="1" gradientUnits="userSpaceOnUse" gradientTransform="translate(279.224 208.871) scale(98.1074 98.0802)">
<stop stop-color="#404E66"/>
<stop offset="1" stop-color="#688096"/>
</radialGradient>
<radialGradient id="paint19_radial_22_12415" cx="0" cy="0" r="1" gradientUnits="userSpaceOnUse" gradientTransform="translate(159.967 134.746) scale(103.731 103.702)">
<stop stop-color="#4DB6FF"/>
<stop offset="0.15" stop-color="#3F94D9"/>
<stop offset="0.45" stop-color="#265591"/>
<stop offset="0.71" stop-color="#13275D"/>
<stop offset="0.9" stop-color="#070B3C"/>
<stop offset="1" stop-color="#030030"/>
</radialGradient>
<radialGradient id="paint20_radial_22_12415" cx="0" cy="0" r="1" gradientUnits="userSpaceOnUse" gradientTransform="translate(164.612 143.301) scale(96.029 96.0026)">
<stop stop-color="#4DB6FF"/>
<stop offset="0.15" stop-color="#3F94D9"/>
<stop offset="0.45" stop-color="#265591"/>
<stop offset="0.71" stop-color="#13275D"/>
<stop offset="0.9" stop-color="#070B3C"/>
<stop offset="1" stop-color="#030030"/>
</radialGradient>
<radialGradient id="paint21_radial_22_12415" cx="0" cy="0" r="1" gradientUnits="userSpaceOnUse" gradientTransform="translate(177.632 134.379) scale(91.8113 91.786)">
<stop stop-color="#83FFEA"/>
<stop offset="1" stop-color="#00FFFF"/>
</radialGradient>
<radialGradient id="paint22_radial_22_12415" cx="0" cy="0" r="1" gradientUnits="userSpaceOnUse" gradientTransform="translate(99.452 394.46) scale(421.28 421.165)">
<stop stop-color="#89A5CF"/>
<stop offset="1"/>
</radialGradient>
<radialGradient id="paint23_radial_22_12415" cx="0" cy="0" r="1" gradientUnits="userSpaceOnUse" gradientTransform="translate(158.805 295.035) scale(404.96 404.849)">
<stop offset="0.65" stop-color="white"/>
<stop offset="0.69" stop-color="#F9FAFB"/>
<stop offset="0.73" stop-color="#EAECF0"/>
<stop offset="0.79" stop-color="#CFD5DF"/>
<stop offset="0.85" stop-color="#ABB5C6"/>
<stop offset="0.91" stop-color="#7C8CA6"/>
<stop offset="0.98" stop-color="#445A7F"/>
<stop offset="1" stop-color="#2D4670"/>
</radialGradient>
<radialGradient id="paint24_radial_22_12415" cx="0" cy="0" r="1" gradientUnits="userSpaceOnUse" gradientTransform="translate(171.52 131.813) scale(13.4477 13.444)">
<stop stop-color="#00FFFF"/>
<stop offset="0.12" stop-color="#00D4D2"/>
<stop offset="0.3" stop-color="#009893"/>
<stop offset="0.47" stop-color="#00655F"/>
<stop offset="0.64" stop-color="#003E36"/>
<stop offset="0.78" stop-color="#002118"/>
<stop offset="0.91" stop-color="#001006"/>
<stop offset="1" stop-color="#000A00"/>
</radialGradient>
<radialGradient id="paint25_radial_22_12415" cx="0" cy="0" r="1" gradientUnits="userSpaceOnUse" gradientTransform="translate(171.52 131.813) scale(8.00751 8.00533)">
<stop stop-color="#83FFEA"/>
<stop offset="0.12" stop-color="#66C8B5"/>
<stop offset="0.24" stop-color="#4B9686"/>
<stop offset="0.36" stop-color="#346B5D"/>
<stop offset="0.48" stop-color="#21483B"/>
<stop offset="0.61" stop-color="#132D21"/>
<stop offset="0.74" stop-color="#08190F"/>
<stop offset="0.87" stop-color="#020E04"/>
<stop offset="1" stop-color="#000A00"/>
</radialGradient>
<radialGradient id="paint26_radial_22_12415" cx="0" cy="0" r="1" gradientUnits="userSpaceOnUse" gradientTransform="translate(192.18 136.64) scale(13.4477 13.444)">
<stop stop-color="#00FFFF"/>
<stop offset="0.12" stop-color="#00D4D2"/>
<stop offset="0.3" stop-color="#009893"/>
<stop offset="0.47" stop-color="#00655F"/>
<stop offset="0.64" stop-color="#003E36"/>
<stop offset="0.78" stop-color="#002118"/>
<stop offset="0.91" stop-color="#001006"/>
<stop offset="1" stop-color="#000A00"/>
</radialGradient>
<radialGradient id="paint27_radial_22_12415" cx="0" cy="0" r="1" gradientUnits="userSpaceOnUse" gradientTransform="translate(192.18 136.64) scale(8.00751 8.00531)">
<stop stop-color="#83FFEA"/>
<stop offset="0.12" stop-color="#66C8B5"/>
<stop offset="0.24" stop-color="#4B9686"/>
<stop offset="0.36" stop-color="#346B5D"/>
<stop offset="0.48" stop-color="#21483B"/>
<stop offset="0.61" stop-color="#132D21"/>
<stop offset="0.74" stop-color="#08190F"/>
<stop offset="0.87" stop-color="#020E04"/>
<stop offset="1" stop-color="#000A00"/>
</radialGradient>
<radialGradient id="paint28_radial_22_12415" cx="0" cy="0" r="1" gradientUnits="userSpaceOnUse" gradientTransform="translate(159.356 119.957) scale(9.78017 9.77748)">
<stop stop-color="#00FFFF"/>
<stop offset="0.12" stop-color="#00D4D2"/>
<stop offset="0.3" stop-color="#009893"/>
<stop offset="0.47" stop-color="#00655F"/>
<stop offset="0.64" stop-color="#003E36"/>
<stop offset="0.78" stop-color="#002118"/>
<stop offset="0.91" stop-color="#001006"/>
<stop offset="1" stop-color="#000A00"/>
</radialGradient>
<radialGradient id="paint29_radial_22_12415" cx="0" cy="0" r="1" gradientUnits="userSpaceOnUse" gradientTransform="translate(159.355 119.957) scale(5.80698 5.80538)">
<stop stop-color="#83FFEA"/>
<stop offset="0.12" stop-color="#66C8B5"/>
<stop offset="0.24" stop-color="#4B9686"/>
<stop offset="0.36" stop-color="#346B5D"/>
<stop offset="0.48" stop-color="#21483B"/>
<stop offset="0.61" stop-color="#132D21"/>
<stop offset="0.74" stop-color="#08190F"/>
<stop offset="0.87" stop-color="#020E04"/>
<stop offset="1" stop-color="#000A00"/>
</radialGradient>
<radialGradient id="paint30_radial_22_12415" cx="0" cy="0" r="1" gradientUnits="userSpaceOnUse" gradientTransform="translate(215.958 131.568) scale(9.4134 9.41082)">
<stop stop-color="#00FFFF"/>
<stop offset="0.12" stop-color="#00D4D2"/>
<stop offset="0.3" stop-color="#009893"/>
<stop offset="0.47" stop-color="#00655F"/>
<stop offset="0.64" stop-color="#003E36"/>
<stop offset="0.78" stop-color="#002118"/>
<stop offset="0.91" stop-color="#001006"/>
<stop offset="1" stop-color="#000A00"/>
</radialGradient>
<radialGradient id="paint31_radial_22_12415" cx="0" cy="0" r="1" gradientUnits="userSpaceOnUse" gradientTransform="translate(215.958 131.629) scale(5.62363 5.62206)">
<stop stop-color="#83FFEA"/>
<stop offset="0.12" stop-color="#66C8B5"/>
<stop offset="0.24" stop-color="#4B9686"/>
<stop offset="0.36" stop-color="#346B5D"/>
<stop offset="0.48" stop-color="#21483B"/>
<stop offset="0.61" stop-color="#132D21"/>
<stop offset="0.74" stop-color="#08190F"/>
<stop offset="0.87" stop-color="#020E04"/>
<stop offset="1" stop-color="#000A00"/>
</radialGradient>
<radialGradient id="paint32_radial_22_12415" cx="0" cy="0" r="1" gradientUnits="userSpaceOnUse" gradientTransform="translate(236.007 119.102) scale(7.88527 7.88307)">
<stop stop-color="#00FFFF"/>
<stop offset="0.12" stop-color="#00D4D2"/>
<stop offset="0.3" stop-color="#009893"/>
<stop offset="0.47" stop-color="#00655F"/>
<stop offset="0.64" stop-color="#003E36"/>
<stop offset="0.78" stop-color="#002118"/>
<stop offset="0.91" stop-color="#001006"/>
<stop offset="1" stop-color="#000A00"/>
</radialGradient>
<radialGradient id="paint33_radial_22_12415" cx="0" cy="0" r="1" gradientUnits="userSpaceOnUse" gradientTransform="translate(236.007 119.102) scale(4.70669 4.7054)">
<stop stop-color="#83FFEA"/>
<stop offset="0.12" stop-color="#66C8B5"/>
<stop offset="0.24" stop-color="#4B9686"/>
<stop offset="0.36" stop-color="#346B5D"/>
<stop offset="0.48" stop-color="#21483B"/>
<stop offset="0.61" stop-color="#132D21"/>
<stop offset="0.74" stop-color="#08190F"/>
<stop offset="0.87" stop-color="#020E04"/>
<stop offset="1" stop-color="#000A00"/>
</radialGradient>
<radialGradient id="paint34_radial_22_12415" cx="0" cy="0" r="1" gradientUnits="userSpaceOnUse" gradientTransform="translate(159.356 103.336) scale(8.06864 8.06642)">
<stop stop-color="#00FFFF"/>
<stop offset="0.12" stop-color="#00D4D2"/>
<stop offset="0.3" stop-color="#009893"/>
<stop offset="0.47" stop-color="#00655F"/>
<stop offset="0.64" stop-color="#003E36"/>
<stop offset="0.78" stop-color="#002118"/>
<stop offset="0.91" stop-color="#001006"/>
<stop offset="1" stop-color="#000A00"/>
</radialGradient>
<radialGradient id="paint35_radial_22_12415" cx="0" cy="0" r="1" gradientUnits="userSpaceOnUse" gradientTransform="translate(159.355 103.336) scale(4.82896 4.82764)">
<stop stop-color="#83FFEA"/>
<stop offset="0.12" stop-color="#66C8B5"/>
<stop offset="0.24" stop-color="#4B9686"/>
<stop offset="0.36" stop-color="#346B5D"/>
<stop offset="0.48" stop-color="#21483B"/>
<stop offset="0.61" stop-color="#132D21"/>
<stop offset="0.74" stop-color="#08190F"/>
<stop offset="0.87" stop-color="#020E04"/>
<stop offset="1" stop-color="#000A00"/>
</radialGradient>
<radialGradient id="paint36_radial_22_12415" cx="0" cy="0" r="1" gradientUnits="userSpaceOnUse" gradientTransform="translate(244.749 159.434) scale(213.207 213.149)">
<stop offset="0.33" stop-color="white"/>
<stop offset="1"/>
</radialGradient>
<radialGradient id="paint37_radial_22_12415" cx="0" cy="0" r="1" gradientUnits="userSpaceOnUse" gradientTransform="translate(182.645 54.0817) scale(279.774 279.697)">
<stop offset="0.33" stop-color="white"/>
<stop offset="1"/>
</radialGradient>
<radialGradient id="paint38_radial_22_12415" cx="0" cy="0" r="1" gradientUnits="userSpaceOnUse" gradientTransform="translate(227.817 210.827) scale(225.616 225.554)">
<stop offset="0.33" stop-color="white"/>
<stop offset="1"/>
</radialGradient>
<radialGradient id="paint39_radial_22_12415" cx="0" cy="0" r="1" gradientUnits="userSpaceOnUse" gradientTransform="translate(246.216 167.623) scale(170.725 170.678)">
<stop offset="0.33" stop-color="white"/>
<stop offset="1"/>
</radialGradient>
<radialGradient id="paint40_radial_22_12415" cx="0" cy="0" r="1" gradientUnits="userSpaceOnUse" gradientTransform="translate(174.576 281.958) scale(288.331 288.252)">
<stop stop-color="#B3FFF2"/>
<stop offset="0.11" stop-color="#ADFCF1"/>
<stop offset="0.27" stop-color="#9BF2EF"/>
<stop offset="0.46" stop-color="#7DE2EB"/>
<stop offset="0.66" stop-color="#54CCE5"/>
<stop offset="0.88" stop-color="#21B0DE"/>
<stop offset="1" stop-color="#009FD9"/>
</radialGradient>
<clipPath id="clip0_22_12415">
<rect width="456" height="357" fill="white"/>
</clipPath>
</defs>
</svg>
