<svg width="442" height="235" viewBox="0 0 442 235" fill="none" xmlns="http://www.w3.org/2000/svg">
<g clip-path="url(#clip0_21_12362)">
<path fill-rule="evenodd" clip-rule="evenodd" d="M5.22202 28.7222L31.3321 17.4895L60.2011 5.07439C63.6251 3.75312 67.4182 3.75312 70.8422 5.07439C88.134 13.5975 105.327 22.1698 122.718 30.6436L168.09 53.3553L176.465 54.6362V59.218C176.277 59.8046 175.957 60.3403 175.53 60.7844C175.103 61.2284 174.58 61.5689 174.002 61.7799L145.576 75.9193L117.151 90.0094C115.475 90.7507 113.663 91.1336 111.83 91.1336C109.998 91.1336 108.185 90.7507 106.51 90.0094L54.2401 62.6174L1.92131 35.1761C0.640434 34.4863 0 33.6488 0 32.8113V28.1803L5.22202 28.9193V28.7222Z" fill="url(#paint0_linear_21_12362)"/>
<path fill-rule="evenodd" clip-rule="evenodd" d="M2.51249 25.8155L31.3322 13.4004L60.2011 0.985333C63.6187 -0.369867 67.4246 -0.369867 70.8422 0.985333L122.718 26.5545L174.544 52.1237C177.302 53.4539 177.056 55.8186 174.002 57.3459L145.576 71.436L117.151 85.5754C115.469 86.2937 113.659 86.664 111.83 86.664C110.001 86.664 108.191 86.2937 106.51 85.5754L54.2401 58.282L1.92131 30.8899C-0.886757 29.412 -0.591167 27.1457 2.51249 25.9633V25.8155Z" fill="#1D1D1B"/>
<path fill-rule="evenodd" clip-rule="evenodd" d="M49.1166 8.47376L63.1077 2.46328C63.8101 2.17058 64.5636 2.0199 65.3246 2.0199C66.0856 2.0199 66.839 2.17058 67.5415 2.46328L82.3208 9.7547L97.1001 17.0461C98.2332 17.6373 98.1346 18.5733 96.8045 19.1645L82.9119 25.4214C81.4716 25.9895 79.8692 25.9895 78.4289 25.4214L63.6496 17.9329L48.8703 10.4937C47.7372 9.95177 47.8357 9.01568 49.1658 8.42449L49.1166 8.47376ZM27.2925 17.9329L41.2835 11.8731C42.7075 11.3081 44.2934 11.3081 45.7173 11.8731L60.4967 19.3616L75.276 26.8008C76.409 27.392 76.3105 28.3281 75.276 28.9193L61.3834 35.2253C59.9431 35.7935 58.3407 35.7935 56.9003 35.2253L42.121 27.6383L27.3417 20.0021C26.2086 19.4109 26.3072 18.4748 27.6373 17.9329H27.2925ZM5.41908 27.3427L19.4102 21.3323C20.8455 20.7383 22.4579 20.7383 23.8932 21.3323L38.6725 28.9685L53.4518 36.5555C54.5849 37.196 54.4864 38.132 53.2055 38.7232L39.2637 45.0293C37.8284 45.6233 36.216 45.6233 34.7806 45.0293L20.0013 37.2453L5.22202 29.4612C4.08894 28.87 4.18747 27.9339 5.46835 27.3427H5.41908ZM42.8107 47.0492L56.7033 40.7432C58.1562 40.1517 59.7827 40.1517 61.2356 40.7432C66.1621 43.305 71.0885 45.6698 76.0149 48.3795L90.7942 56.0157C91.9766 56.6069 91.8781 57.5922 90.5479 58.2327L76.7046 64.7851C76.0022 65.0778 75.2487 65.2285 74.4877 65.2285C73.7268 65.2285 72.9733 65.0778 72.2708 64.7851L57.4915 57.001L42.7122 49.217C41.5299 48.6258 41.6284 47.6404 42.7122 47.0492H42.8107ZM64.5363 37.196L78.4781 30.8899C79.9135 30.296 81.5259 30.296 82.9612 30.8899L97.7405 38.3784L112.52 45.8176C113.702 46.4088 113.604 47.3941 112.52 47.9853L98.6273 54.5377C97.9277 54.8415 97.1731 54.9982 96.4104 54.9982C95.6477 54.9982 94.8931 54.8415 94.1935 54.5377L79.4142 46.9507L64.6349 39.3637C63.4525 38.7233 63.551 37.7872 64.6349 37.196H64.5363ZM86.3112 27.3427L100.204 21.0367C101.639 20.4427 103.251 20.4427 104.687 21.0367L119.466 28.3281L134.245 35.6195C135.379 36.1614 135.28 37.1467 134.245 37.7379L120.402 44.2903C119.694 44.5953 118.931 44.7527 118.161 44.7527C117.39 44.7527 116.627 44.5953 115.919 44.2903L101.14 36.8511L86.3605 29.4119C85.1781 28.8207 85.2766 27.8847 86.6068 27.2935L86.3112 27.3427ZM123.506 46.0146L137.349 39.4622C138.049 39.1585 138.803 39.0018 139.566 39.0018C140.329 39.0018 141.083 39.1585 141.783 39.4622L156.562 46.7537L171.342 54.045C172.524 54.6362 172.425 55.6215 171.342 56.262L157.547 63.0608C156.848 63.3645 156.093 63.5212 155.331 63.5212C154.568 63.5212 153.813 63.3645 153.114 63.0608L138.334 55.6216L123.555 48.1823C122.373 47.5912 122.521 46.6058 123.555 46.0146H123.506ZM101.829 56.065L115.722 49.5126C116.422 49.2088 117.176 49.052 117.939 49.052C118.702 49.052 119.456 49.2088 120.156 49.5126L134.935 57.001L149.714 64.4402C150.848 65.0314 150.749 66.0167 149.714 66.6572L135.92 73.456C135.221 73.7597 134.466 73.9164 133.704 73.9164C132.941 73.9164 132.186 73.7597 131.487 73.456L116.707 65.8197L101.829 58.2819C100.647 57.6908 100.746 56.7054 101.829 56.065ZM80.2024 66.3616L94.0457 59.7599C95.481 59.166 97.0934 59.166 98.5288 59.7599L113.308 67.3962L128.087 75.0324C129.22 75.6236 129.122 76.609 128.087 77.2495L114.293 84.0975C113.594 84.4012 112.839 84.5579 112.076 84.5579C111.314 84.5579 110.559 84.4012 109.86 84.0975L95.0803 76.3626L80.3009 68.5786C79.1186 67.9381 79.2171 66.9528 80.3009 66.3616H80.2024Z" fill="url(#paint1_linear_21_12362)"/>
<path fill-rule="evenodd" clip-rule="evenodd" d="M295.241 7.6855C308.986 3.79347 327.46 16.0607 338.249 36.9496C349.038 57.8385 348.102 80.0576 337.116 88.9255L294.01 123.412L242.184 22.9088L295.241 7.73474V7.6855Z" fill="url(#paint2_linear_21_12362)"/>
<path style="mix-blend-mode:multiply" fill-rule="evenodd" clip-rule="evenodd" d="M246.962 32.0723L313.223 10.2966C307.794 7.23365 301.418 6.30278 295.34 7.68553L242.184 22.8595L247.11 32.0723H246.962Z" fill="url(#paint3_linear_21_12362)"/>
<path style="mix-blend-mode:multiply" fill-rule="evenodd" clip-rule="evenodd" d="M345.59 60.7945L283.763 103.459L294.01 123.166L337.116 88.6792C343.964 83.2106 346.969 72.6677 345.59 60.5482V60.7945Z" fill="url(#paint4_linear_21_12362)"/>
<path style="mix-blend-mode:screen" fill-rule="evenodd" clip-rule="evenodd" d="M268.294 73.456L337.904 36.3585C334.022 28.8687 328.757 22.182 322.386 16.652L252.677 43.305L268.294 73.6037V73.456Z" fill="url(#paint5_radial_21_12362)"/>
<g style="mix-blend-mode:screen">
<path fill-rule="evenodd" clip-rule="evenodd" d="M239.425 24.7317C256.125 16.1101 281.201 31.1855 295.389 58.4298C309.577 85.674 307.656 114.79 290.955 123.412C274.255 132.034 249.228 116.958 234.991 89.7139C220.754 62.4696 222.774 33.3532 239.425 24.7317Z" fill="#E6E6E6"/>
</g>
<path fill-rule="evenodd" clip-rule="evenodd" d="M236.715 24.7809C254.007 15.9129 279.772 31.4811 294.305 59.6121C308.838 87.7432 306.523 117.796 289.379 126.713C272.235 135.63 246.322 120.013 231.838 91.8815C217.354 63.7505 219.571 33.6981 236.765 24.7809H236.715Z" fill="url(#paint6_linear_21_12362)"/>
<path style="mix-blend-mode:multiply" fill-rule="evenodd" clip-rule="evenodd" d="M296.079 67.1006C283.024 41.7284 259.82 27.6876 244.253 35.718C228.685 43.7484 226.665 70.7956 239.72 96.1677C248.933 114.002 263.17 126.22 276.225 129.127C280.702 129.568 285.211 128.731 289.231 126.713C301.153 120.554 305.932 104.444 303.025 85.7725C301.482 79.288 299.149 73.0172 296.079 67.1006Z" fill="url(#paint7_linear_21_12362)"/>
<path fill-rule="evenodd" clip-rule="evenodd" d="M244.253 35.718C256.717 29.8553 275.585 42.1719 286.62 63.5535C297.655 84.935 296.473 107.893 284.255 114.445L229.917 143.365L187.944 62.3711L244.45 35.718H244.253Z" fill="url(#paint8_linear_21_12362)"/>
<path style="mix-blend-mode:multiply" fill-rule="evenodd" clip-rule="evenodd" d="M192.427 71.3868L263.023 37.6394C260.266 35.8652 257.129 34.7665 253.868 34.4327C250.606 34.0988 247.312 34.5392 244.253 35.718L187.747 62.3711L192.673 71.3868H192.427Z" fill="url(#paint9_linear_21_12362)"/>
<path style="mix-blend-mode:multiply" fill-rule="evenodd" clip-rule="evenodd" d="M294.207 89.4182L221.345 127.255L229.72 143.414L284.108 114.445H284.403C291.596 110.553 294.897 101.094 294.256 89.566L294.207 89.4182Z" fill="url(#paint10_linear_21_12362)"/>
<path style="mix-blend-mode:screen" fill-rule="evenodd" clip-rule="evenodd" d="M212.231 109.617L289.724 70.4507C288.837 68.1845 287.803 65.869 286.62 63.5535C283.292 57.0428 278.989 51.0785 273.861 45.8668L198.24 82.6195L212.231 109.617Z" fill="url(#paint11_radial_21_12362)"/>
<path fill-rule="evenodd" clip-rule="evenodd" d="M219.226 33.6488C235.484 25.9633 260.067 42.0241 274.452 69.9088C288.837 97.7935 287.605 127.895 271.348 136.27L200.358 173.811L145.576 68.1352L219.226 33.6488Z" fill="url(#paint12_linear_21_12362)"/>
<path style="mix-blend-mode:multiply" fill-rule="evenodd" clip-rule="evenodd" d="M150.158 77.0524L239.77 34.1415C236.572 32.5752 233.077 31.7079 229.518 31.5975C225.959 31.4871 222.417 32.136 219.128 33.501L145.478 67.9874L150.059 76.8554L150.158 77.0524Z" fill="url(#paint13_linear_21_12362)"/>
<path style="mix-blend-mode:multiply" fill-rule="evenodd" clip-rule="evenodd" d="M284.354 103.262L189.372 152.775L200.358 173.811L271.447 136.123H271.841C281.25 131.196 285.536 118.535 284.452 103.459L284.354 103.262Z" fill="url(#paint14_linear_21_12362)"/>
<path style="mix-blend-mode:screen" fill-rule="evenodd" clip-rule="evenodd" d="M175.43 125.925L276.718 74.5399C276.028 72.9141 275.24 71.3375 274.452 69.6132C268.896 58.4946 261.017 48.6994 251.347 40.891L155.528 87.4968L175.233 125.925H175.43Z" fill="url(#paint15_radial_21_12362)"/>
<g style="mix-blend-mode:screen">
<path fill-rule="evenodd" clip-rule="evenodd" d="M148.138 68.1352C164.888 59.6122 189.914 75.9686 203.955 104.691C217.995 133.413 215.827 163.81 199.028 172.136C182.229 180.462 157.252 164.303 143.212 135.581C129.171 106.859 131.339 76.4612 148.138 68.1352Z" fill="#E6E6E6"/>
</g>
<path fill-rule="evenodd" clip-rule="evenodd" d="M145.576 68.1352C162.375 59.5136 188.19 76.1164 203.216 105.331C218.241 134.546 216.862 165.19 200.063 173.861C183.263 182.531 157.449 165.879 142.374 136.714C127.299 107.548 128.777 76.8061 145.576 68.1352Z" fill="url(#paint16_linear_21_12362)"/>
<path style="mix-blend-mode:multiply" fill-rule="evenodd" clip-rule="evenodd" d="M199.915 118.14C185.727 90.6006 161.341 74.9339 145.724 83.0629C137.842 87.152 133.556 96.2662 132.965 107.696C134.582 117.808 137.826 127.59 142.571 136.665C157.646 165.83 183.461 182.482 200.26 173.811C203.821 171.934 206.789 169.102 208.832 165.633C211.738 152.775 208.832 135.137 200.112 118.042L199.915 118.14Z" fill="url(#paint17_linear_21_12362)"/>
<path fill-rule="evenodd" clip-rule="evenodd" d="M147.054 82.3732C159.025 76.1656 178.239 89.4675 189.865 111.933C201.491 134.398 201.245 157.849 189.224 164.057L170.8 174.452L128.087 91.5859L147.251 82.3732H147.054Z" fill="url(#paint18_linear_21_12362)"/>
<path style="mix-blend-mode:multiply" fill-rule="evenodd" clip-rule="evenodd" d="M132.62 100.799L165.873 84.5901C163.248 82.743 160.217 81.5549 157.035 81.1262C153.854 80.6974 150.617 81.0406 147.596 82.1268L130.354 90.4036L128.432 91.3397L133.359 100.552L132.62 100.799Z" fill="url(#paint19_linear_21_12362)"/>
<path style="mix-blend-mode:multiply" fill-rule="evenodd" clip-rule="evenodd" d="M198.141 138.487L162.031 157.898L170.8 174.452L189.421 164.204L190.013 163.86C196.762 159.918 199.57 150.311 198.338 138.487H198.141Z" fill="url(#paint20_linear_21_12362)"/>
<path style="mix-blend-mode:screen" fill-rule="evenodd" clip-rule="evenodd" d="M154.592 143.365L194.397 122.328C190.517 111.497 184.465 101.572 176.613 93.1625L138.531 112.475L154.592 143.562V143.365Z" fill="url(#paint21_radial_21_12362)"/>
<path fill-rule="evenodd" clip-rule="evenodd" d="M127.89 91.5859C140.009 85.2798 159.469 98.7788 171.243 121.688C183.017 144.596 182.771 168.195 170.603 174.452C158.434 180.709 139.024 167.259 127.201 144.35C115.377 121.441 115.722 97.8427 127.89 91.5859Z" fill="url(#paint22_linear_21_12362)"/>
<path style="mix-blend-mode:multiply" fill-rule="evenodd" clip-rule="evenodd" d="M166.76 126.762C156.907 108.386 143.31 95.0839 130.846 90.4529C129.817 90.7054 128.824 91.0861 127.89 91.586C115.722 97.8428 115.426 121.491 127.201 144.35C138.975 167.21 158.434 180.709 170.603 174.452C173.881 172.676 176.402 169.77 177.697 166.274C177.21 152.457 173.463 138.952 166.76 126.861V126.762Z" fill="url(#paint23_linear_21_12362)"/>
<path fill-rule="evenodd" clip-rule="evenodd" d="M100.253 72.7662C157.35 92.1279 186.416 148.686 168.09 208.002L100.253 72.7662Z" fill="#173664"/>
<path fill-rule="evenodd" clip-rule="evenodd" d="M102.421 74.2935C151.685 90.9454 176.662 139.719 160.897 190.808L102.421 74.2935Z" fill="#1D375E"/>
<path fill-rule="evenodd" clip-rule="evenodd" d="M70.2017 72.5199C94.8339 60.1048 132.915 85.674 155.084 129.669C177.253 173.664 175.233 219.383 150.552 231.847C125.87 244.311 87.8384 218.742 65.6694 174.747C43.5004 130.753 45.5203 84.9843 70.2017 72.5199Z" fill="#387CE1"/>
<path fill-rule="evenodd" clip-rule="evenodd" d="M71.0393 76.5598C94.7847 64.5881 131.339 89.1719 152.67 131.492C174.002 173.811 172.031 217.806 148.286 229.778C124.54 241.749 87.9862 217.166 66.6547 174.846C45.3233 132.526 47.2938 88.5315 71.0393 76.5598Z" fill="url(#paint24_radial_21_12362)"/>
<path style="mix-blend-mode:multiply" fill-rule="evenodd" clip-rule="evenodd" d="M65.1768 90.7484C88.4788 79.023 124.294 103.114 145.182 144.596C160.356 174.698 163.508 205.687 155.035 224.9C172.08 208.445 171.637 169.279 152.572 131.295C131.24 88.9748 94.6861 64.3909 70.9407 76.3626C66.3667 78.9825 62.4331 82.5875 59.4252 86.9164C56.4173 91.2452 54.4105 96.1892 53.5504 101.39C56.3367 96.7965 60.3221 93.0494 65.0782 90.5513L65.1768 90.7484Z" fill="url(#paint25_radial_21_12362)"/>
<path style="mix-blend-mode:screen" fill-rule="evenodd" clip-rule="evenodd" d="M54.3879 140.606C56.9931 152.498 61.1159 164.005 66.6547 174.846C84.8333 210.909 113.998 233.965 136.955 232.783C145.675 196.129 121.584 133.413 81.6311 124.397C70.4973 121.934 60.2503 125.826 54.3879 140.606Z" fill="url(#paint26_radial_21_12362)"/>
<path d="M58.8709 159.13C58.8585 159.305 58.8116 159.476 58.7329 159.632C58.6543 159.789 58.5454 159.928 58.4127 160.043C58.2799 160.157 58.1258 160.244 57.9593 160.299C57.7928 160.354 57.617 160.375 57.4423 160.362C57.265 160.356 57.0909 160.314 56.9309 160.237C56.7709 160.161 56.6285 160.052 56.5128 159.918C56.397 159.783 56.3104 159.627 56.2584 159.457C56.2064 159.288 56.1901 159.109 56.2107 158.933L61.1371 80.9445C61.1624 80.5873 61.3256 80.2539 61.5922 80.0149C61.8588 79.7759 62.208 79.6499 62.5658 79.6635C62.9229 79.6889 63.2563 79.8521 63.4953 80.1187C63.7343 80.3853 63.8603 80.7345 63.8466 81.0923L58.9202 159.13H58.8709Z" fill="url(#paint27_linear_21_12362)"/>
<path d="M73.798 169.919C73.4897 170.104 73.1216 170.161 72.772 170.078C72.4223 169.995 72.1188 169.779 71.926 169.476C71.8291 169.329 71.7635 169.164 71.7333 168.99C71.7031 168.817 71.709 168.639 71.7506 168.468C71.7923 168.297 71.8687 168.136 71.9751 167.996C72.0816 167.856 72.2158 167.739 72.3694 167.653L148.434 121.146C148.734 120.964 149.095 120.908 149.436 120.991C149.778 121.074 150.073 121.289 150.256 121.589C150.441 121.897 150.498 122.266 150.415 122.615C150.332 122.965 150.116 123.268 149.813 123.461L73.798 169.919Z" fill="url(#paint28_linear_21_12362)"/>
<path d="M73.9458 190.463C73.7841 190.386 73.6403 190.276 73.5239 190.14C73.4074 190.003 73.3209 189.844 73.2698 189.672C73.2187 189.501 73.2043 189.32 73.2274 189.142C73.2505 188.964 73.3106 188.794 73.4039 188.641C73.4866 188.484 73.5997 188.345 73.7366 188.233C73.8735 188.121 74.0316 188.037 74.2013 187.986C74.3711 187.936 74.5493 187.92 74.7254 187.939C74.9014 187.958 75.0719 188.013 75.2267 188.099L150.158 229.088C150.468 229.274 150.697 229.57 150.798 229.917C150.898 230.265 150.863 230.638 150.7 230.96C150.613 231.113 150.497 231.247 150.358 231.354C150.219 231.461 150.06 231.54 149.891 231.586C149.721 231.632 149.545 231.644 149.371 231.621C149.197 231.598 149.029 231.541 148.877 231.453L73.9458 190.463Z" fill="url(#paint29_linear_21_12362)"/>
<path fill-rule="evenodd" clip-rule="evenodd" d="M57.4915 157.8C62.418 155.336 69.8569 160.608 74.4878 169.574C79.1186 178.541 78.9708 187.754 74.1922 190.217L64.8319 195.144L47.885 162.234L57.4915 157.8Z" fill="url(#paint30_linear_21_12362)"/>
<path style="mix-blend-mode:multiply" fill-rule="evenodd" clip-rule="evenodd" d="M50.1019 166.372L65.6202 159.081C64.5598 158.239 63.3122 157.665 61.9829 157.408C60.6537 157.15 59.2821 157.217 57.9842 157.603H57.5901L47.9835 162.037L50.1019 166.175V166.372Z" fill="url(#paint31_linear_21_12362)"/>
<path style="mix-blend-mode:multiply" fill-rule="evenodd" clip-rule="evenodd" d="M77.8377 180.216L61.5312 188.542L64.9305 195.144L74.2907 190.217C75.7306 189.062 76.8173 187.527 77.427 185.785C78.0367 184.043 78.1449 182.164 77.7392 180.364L77.8377 180.216Z" fill="url(#paint32_linear_21_12362)"/>
<path style="mix-blend-mode:screen" fill-rule="evenodd" clip-rule="evenodd" d="M57.8364 181.448L75.8671 172.432C75.5022 171.453 75.0744 170.498 74.5863 169.574C73.3046 166.904 71.6454 164.432 69.6598 162.234L52.4666 170.461L57.8364 181.448Z" fill="url(#paint33_radial_21_12362)"/>
<path fill-rule="evenodd" clip-rule="evenodd" d="M47.9835 162.234C52.91 159.771 60.4967 165.091 65.1768 174.205C69.8569 183.32 69.7584 192.631 65.1768 195.144C60.5952 197.656 52.5651 192.286 47.6387 183.172C42.7122 174.058 43.1064 164.746 47.9343 162.234H47.9835Z" fill="url(#paint34_linear_21_12362)"/>
<path style="mix-blend-mode:screen" fill-rule="evenodd" clip-rule="evenodd" d="M61.679 81.4864L57.4915 153.07L63.6003 81.9298C63.6003 80.0577 62.0239 80.304 61.9253 81.4864H61.679Z" fill="url(#paint35_radial_21_12362)"/>
<path style="mix-blend-mode:screen" fill-rule="evenodd" clip-rule="evenodd" d="M147.498 121.934L74.7833 166.914L148.68 123.313C150.109 122.476 149.271 120.998 147.695 121.934H147.498Z" fill="url(#paint36_radial_21_12362)"/>
<path d="M227.01 138.34C226.687 138.178 226.398 137.954 226.161 137.681C225.924 137.408 225.744 137.09 225.629 136.747C225.515 136.404 225.469 136.042 225.495 135.681C225.52 135.32 225.617 134.968 225.779 134.645C225.94 134.321 226.164 134.033 226.437 133.796C226.711 133.559 227.028 133.378 227.371 133.264C227.714 133.149 228.076 133.103 228.437 133.129C228.798 133.155 229.15 133.251 229.474 133.413L252.135 145.138C252.767 145.474 253.24 146.045 253.453 146.728C253.665 147.411 253.599 148.15 253.268 148.784C253.112 149.1 252.894 149.381 252.626 149.61C252.359 149.839 252.048 150.012 251.712 150.118C251.376 150.224 251.022 150.261 250.671 150.226C250.321 150.192 249.981 150.087 249.672 149.917L227.01 138.192V138.34Z" fill="url(#paint37_linear_21_12362)"/>
<path d="M267.801 117.401C267.165 117.083 266.679 116.528 266.449 115.855C266.218 115.183 266.262 114.446 266.57 113.805C266.897 113.165 267.461 112.679 268.142 112.449C268.823 112.219 269.567 112.263 270.215 112.573L292.877 123.905C293.427 124.242 293.838 124.765 294.037 125.38C294.236 125.994 294.209 126.659 293.961 127.255C293.633 127.894 293.069 128.381 292.388 128.611C291.707 128.841 290.963 128.796 290.315 128.486L267.653 117.155L267.801 117.401Z" fill="url(#paint38_linear_21_12362)"/>
<path fill-rule="evenodd" clip-rule="evenodd" d="M241.445 153.169L269.131 138.389L298.296 123.067C300.174 122.239 302.204 121.812 304.257 121.812C306.309 121.812 308.34 122.239 310.218 123.067L374.754 154.844L434.167 184.404L441.951 185.635V189.971C441.96 190.681 441.76 191.378 441.374 191.974C440.988 192.57 440.435 193.039 439.783 193.321L410.717 210.613L381.651 227.856C379.789 228.745 377.753 229.206 375.69 229.206C373.627 229.206 371.591 228.745 369.729 227.856L305.144 193.961L240.459 160.066C239.808 159.806 239.225 159.4 238.755 158.879C238.285 158.358 237.941 157.736 237.75 157.061C237.701 156.817 237.701 156.566 237.75 156.322V152.38L241.494 153.021L241.445 153.169Z" fill="url(#paint39_linear_21_12362)"/>
<path fill-rule="evenodd" clip-rule="evenodd" d="M239.77 149.622L269.328 134.3L298.493 118.978C300.371 118.15 302.401 117.722 304.454 117.722C306.506 117.722 308.537 118.15 310.415 118.978L374.951 150.804L439.438 182.581C442.887 184.256 443.084 187.162 439.98 189.035L410.914 206.278L381.848 223.521C379.994 224.434 377.954 224.908 375.887 224.908C373.82 224.908 371.781 224.434 369.926 223.521L305.144 189.823L240.459 155.928C237.06 154.154 236.765 151.297 239.918 149.622H239.77Z" fill="#1D1D1B"/>
<path fill-rule="evenodd" clip-rule="evenodd" d="M380.075 174.6L394.214 166.668C394.991 166.329 395.829 166.154 396.677 166.154C397.525 166.154 398.363 166.329 399.14 166.668L417.466 175.782L435.842 184.847C437.271 185.537 437.369 186.768 435.842 187.557L422.048 195.636C421.28 196.007 420.438 196.2 419.585 196.2C418.732 196.2 417.89 196.007 417.122 195.636L398.697 186.374C392.588 183.27 386.479 180.167 380.321 177.112C378.892 176.373 378.794 175.191 380.321 174.452L380.075 174.6ZM358.004 187.163L372.143 179.132C372.911 178.761 373.753 178.569 374.606 178.569C375.459 178.569 376.301 178.761 377.07 179.132L395.445 188.394L413.821 197.656C415.249 198.395 415.348 199.627 414.067 200.366L399.928 208.741C399.156 209.099 398.316 209.284 397.465 209.284C396.614 209.284 395.774 209.099 395.002 208.741L376.626 199.331L358.251 189.872C356.773 189.133 356.723 187.951 358.251 187.163H358.004ZM335.983 199.775L350.073 191.695C350.846 191.344 351.686 191.162 352.536 191.162C353.386 191.162 354.225 191.344 354.999 191.695L373.523 201.154L391.898 210.613C393.327 211.352 393.425 212.584 392.144 213.372L378.006 221.698C377.237 222.069 376.395 222.262 375.542 222.262C374.689 222.262 373.847 222.069 373.079 221.698L354.704 211.845L336.328 202.238C334.85 201.45 334.751 200.267 336.328 199.479L335.983 199.775ZM289.724 175.683L303.813 167.899C304.585 167.539 305.425 167.352 306.277 167.352C307.128 167.352 307.969 167.539 308.74 167.899L327.116 177.359L345.491 186.768C346.969 187.557 347.068 188.739 345.491 189.478L331.352 197.558C330.583 197.925 329.741 198.116 328.889 198.116C328.037 198.116 327.195 197.925 326.426 197.558L308.05 187.704L289.625 178.098C288.147 177.359 288.049 176.127 289.625 175.437L289.724 175.683ZM311.794 163.515L325.933 155.78C326.705 155.422 327.546 155.237 328.396 155.237C329.247 155.237 330.088 155.422 330.86 155.78L349.285 165.042L367.857 174.304C369.335 175.043 369.384 176.225 367.857 176.964L353.718 185.044C352.946 185.402 352.106 185.587 351.255 185.587C350.404 185.587 349.564 185.402 348.792 185.044C342.683 181.891 336.574 178.738 330.416 175.634L312.041 166.175C310.612 165.436 310.464 164.254 311.794 163.515ZM333.865 151.395L348.151 143.66C348.925 143.309 349.765 143.128 350.615 143.128C351.464 143.128 352.304 143.309 353.078 143.66L371.404 152.775L389.78 161.741C391.208 162.431 391.307 163.613 389.78 164.401C384.853 167.062 380.321 169.722 375.641 172.432C374.866 172.777 374.026 172.955 373.178 172.955C372.329 172.955 371.49 172.777 370.714 172.432L352.29 163.17L333.963 153.957C332.485 153.218 332.387 152.036 333.963 151.297L333.865 151.395ZM287.704 128.24L301.843 120.752C302.621 120.418 303.459 120.246 304.306 120.246C305.153 120.246 305.991 120.418 306.769 120.752L325.145 129.817L343.521 138.882C344.949 139.621 345.048 140.803 343.521 141.493L329.382 149.228C328.608 149.579 327.768 149.76 326.918 149.76C326.069 149.76 325.229 149.579 324.455 149.228L306.08 140.015L287.704 130.753C286.275 130.063 286.177 128.881 287.704 128.191V128.24ZM265.584 139.916L279.772 132.428C280.548 132.083 281.387 131.904 282.236 131.904C283.084 131.904 283.924 132.083 284.699 132.428L303.074 141.69L321.45 150.952C322.879 151.691 322.977 152.873 321.696 153.612L307.558 161.347C306.781 161.686 305.942 161.861 305.094 161.861C304.247 161.861 303.408 161.686 302.631 161.347L284.108 151.888L265.683 142.429C264.303 141.69 264.205 140.557 265.683 139.867L265.584 139.916ZM243.514 151.543L257.653 144.104C258.43 143.765 259.268 143.59 260.116 143.59C260.964 143.59 261.802 143.765 262.579 144.104C268.688 147.306 274.846 150.41 280.955 153.563L299.33 163.022C300.759 163.761 300.858 164.943 299.33 165.682L285.192 173.417C284.418 173.768 283.578 173.95 282.728 173.95C281.879 173.95 281.039 173.768 280.265 173.417L261.889 163.564L243.465 153.957C242.036 153.169 241.937 151.986 243.465 151.297L243.514 151.543Z" fill="url(#paint40_linear_21_12362)"/>
<path style="mix-blend-mode:screen" d="M227.404 136.369C227.244 136.291 227.1 136.181 226.983 136.046C226.865 135.911 226.776 135.753 226.721 135.583C226.666 135.413 226.646 135.234 226.662 135.055C226.677 134.877 226.729 134.704 226.813 134.546C226.896 134.389 227.009 134.251 227.146 134.138C227.283 134.026 227.441 133.942 227.611 133.892C227.78 133.841 227.959 133.825 228.135 133.844C228.311 133.864 228.481 133.918 228.636 134.004L249.327 144.695L246.42 146.222L227.404 136.369Z" fill="url(#paint41_radial_21_12362)"/>
<path style="mix-blend-mode:screen" d="M268.195 115.283C268.034 115.205 267.891 115.095 267.774 114.96C267.656 114.825 267.567 114.667 267.512 114.497C267.457 114.327 267.437 114.148 267.452 113.969C267.468 113.791 267.52 113.618 267.604 113.46C267.687 113.303 267.8 113.165 267.937 113.053C268.074 112.94 268.232 112.856 268.402 112.806C268.571 112.755 268.749 112.739 268.926 112.759C269.102 112.778 269.272 112.832 269.427 112.918L289.773 123.461L286.916 124.988L268.195 115.135V115.283Z" fill="url(#paint42_radial_21_12362)"/>
</g>
<defs>
<linearGradient id="paint0_linear_21_12362" x1="0" y1="47.6897" x2="176.465" y2="47.6897" gradientUnits="userSpaceOnUse">
<stop stop-color="#373E42"/>
<stop offset="0.05" stop-color="#33373D"/>
<stop offset="0.14" stop-color="#31343B"/>
<stop offset="1" stop-color="#222529"/>
</linearGradient>
<linearGradient id="paint1_linear_21_12362" x1="30.002" y1="-63.0115" x2="130.014" y2="116.61" gradientUnits="userSpaceOnUse">
<stop stop-color="#2C7AED"/>
<stop offset="1" stop-color="#8CABD8"/>
</linearGradient>
<linearGradient id="paint2_linear_21_12362" x1="278.196" y1="5.27145" x2="327.808" y2="106.906" gradientUnits="userSpaceOnUse">
<stop stop-color="#A3B0BD"/>
<stop offset="0.37" stop-color="#E1E9F2"/>
<stop offset="1" stop-color="#8E9DAB"/>
</linearGradient>
<linearGradient id="paint3_linear_21_12362" x1="273.368" y1="7.63627" x2="282.039" y2="25.5197" gradientUnits="userSpaceOnUse">
<stop stop-color="#756C80"/>
<stop offset="1" stop-color="#FCFCFF"/>
</linearGradient>
<linearGradient id="paint4_linear_21_12362" x1="312.238" y1="77.0524" x2="326.969" y2="107.301" gradientUnits="userSpaceOnUse">
<stop stop-color="#FCFCFF"/>
<stop offset="1" stop-color="#756C80"/>
</linearGradient>
<radialGradient id="paint5_radial_21_12362" cx="0" cy="0" r="1" gradientUnits="userSpaceOnUse" gradientTransform="translate(266.323 66.7065) scale(94.2427 94.2463)">
<stop stop-color="white"/>
<stop offset="1"/>
</radialGradient>
<linearGradient id="paint6_linear_21_12362" x1="237.848" y1="24.2389" x2="288.101" y2="127.253" gradientUnits="userSpaceOnUse">
<stop stop-color="#BCC5CF"/>
<stop offset="1" stop-color="#717D87"/>
</linearGradient>
<linearGradient id="paint7_linear_21_12362" x1="225.68" y1="6.94649" x2="341.754" y2="212.186" gradientUnits="userSpaceOnUse">
<stop stop-color="#756C80"/>
<stop offset="1" stop-color="#FCFCFF"/>
</linearGradient>
<linearGradient id="paint8_linear_21_12362" x1="227.454" y1="43.0094" x2="267.459" y2="124.987" gradientUnits="userSpaceOnUse">
<stop stop-color="#387CE1"/>
<stop offset="0.37" stop-color="#4F94FB"/>
<stop offset="1" stop-color="#1455B5"/>
</linearGradient>
<linearGradient id="paint9_linear_21_12362" x1="223.02" y1="45.1772" x2="227.75" y2="54.8332" gradientUnits="userSpaceOnUse">
<stop stop-color="#756C80"/>
<stop offset="1" stop-color="#FCFCFF"/>
</linearGradient>
<linearGradient id="paint10_linear_21_12362" x1="257.357" y1="107.4" x2="266.225" y2="125.579" gradientUnits="userSpaceOnUse">
<stop stop-color="#FCFCFF"/>
<stop offset="1" stop-color="#756C80"/>
</linearGradient>
<radialGradient id="paint11_radial_21_12362" cx="0" cy="0" r="1" gradientUnits="userSpaceOnUse" gradientTransform="translate(244.006 77.7421) scale(81.1877 81.1908)">
<stop stop-color="#387CE1"/>
<stop offset="1"/>
</radialGradient>
<linearGradient id="paint12_linear_21_12362" x1="191.244" y1="41.827" x2="251.104" y2="145.531" gradientUnits="userSpaceOnUse">
<stop stop-color="#A3B0BD"/>
<stop offset="0.37" stop-color="#E1E9F2"/>
<stop offset="1" stop-color="#8E9DAB"/>
</linearGradient>
<linearGradient id="paint13_linear_21_12362" x1="190.358" y1="46.3595" x2="195.087" y2="56.0156" gradientUnits="userSpaceOnUse">
<stop stop-color="#756C80"/>
<stop offset="1" stop-color="#FCFCFF"/>
</linearGradient>
<linearGradient id="paint14_linear_21_12362" x1="235.237" y1="126.269" x2="248.54" y2="149.326" gradientUnits="userSpaceOnUse">
<stop stop-color="#FCFCFF"/>
<stop offset="1" stop-color="#756C80"/>
</linearGradient>
<radialGradient id="paint15_radial_21_12362" cx="0" cy="0" r="1" gradientUnits="userSpaceOnUse" gradientTransform="translate(192.131 97.9413) scale(89.4641 89.4675)">
<stop stop-color="white"/>
<stop offset="1"/>
</radialGradient>
<linearGradient id="paint16_linear_21_12362" x1="147.448" y1="69.1205" x2="203.662" y2="184.303" gradientUnits="userSpaceOnUse">
<stop stop-color="#BCC5CF"/>
<stop offset="1" stop-color="#717D87"/>
</linearGradient>
<linearGradient id="paint17_linear_21_12362" x1="206.91" y1="192.927" x2="155.771" y2="99.2731" gradientUnits="userSpaceOnUse">
<stop stop-color="#FCFCFF"/>
<stop offset="1" stop-color="#756C80"/>
</linearGradient>
<linearGradient id="paint18_linear_21_12362" x1="144.788" y1="81.782" x2="191.592" y2="162.823" gradientUnits="userSpaceOnUse">
<stop stop-color="#A3B0BD"/>
<stop offset="0.37" stop-color="#E1E9F2"/>
<stop offset="1" stop-color="#8E9DAB"/>
</linearGradient>
<linearGradient id="paint19_linear_21_12362" x1="144.542" y1="83.457" x2="149.074" y2="92.7682" gradientUnits="userSpaceOnUse">
<stop stop-color="#756C80"/>
<stop offset="1" stop-color="#FCFCFF"/>
</linearGradient>
<linearGradient id="paint20_linear_21_12362" x1="179.421" y1="147.848" x2="188.929" y2="164.401" gradientUnits="userSpaceOnUse">
<stop stop-color="#FCFCFF"/>
<stop offset="1" stop-color="#756C80"/>
</linearGradient>
<radialGradient id="paint21_radial_21_12362" cx="0" cy="0" r="1" gradientUnits="userSpaceOnUse" gradientTransform="translate(147.941 133.265) scale(54.4371 54.4392)">
<stop stop-color="white"/>
<stop offset="1"/>
</radialGradient>
<linearGradient id="paint22_linear_21_12362" x1="111.387" y1="57.3459" x2="177.011" y2="188.54" gradientUnits="userSpaceOnUse">
<stop stop-color="#BCC5CF"/>
<stop offset="1" stop-color="#717D87"/>
</linearGradient>
<linearGradient id="paint23_linear_21_12362" x1="123.457" y1="89.0242" x2="173.019" y2="186.964" gradientUnits="userSpaceOnUse">
<stop stop-color="#756C80"/>
<stop offset="1" stop-color="#FCFCFF"/>
</linearGradient>
<radialGradient id="paint24_radial_21_12362" cx="0" cy="0" r="1" gradientUnits="userSpaceOnUse" gradientTransform="translate(92.9126 211.549) scale(139.073 139.079)">
<stop stop-color="#387CE1"/>
<stop offset="1" stop-color="#0C52B9"/>
</radialGradient>
<radialGradient id="paint25_radial_21_12362" cx="0" cy="0" r="1" gradientUnits="userSpaceOnUse" gradientTransform="translate(48.5747 187.655) scale(147.645 147.651)">
<stop offset="0.73" stop-color="#FCFCFF"/>
<stop offset="1" stop-color="#756C80"/>
</radialGradient>
<radialGradient id="paint26_radial_21_12362" cx="0" cy="0" r="1" gradientUnits="userSpaceOnUse" gradientTransform="translate(66.704 227.117) scale(104.785 104.789)">
<stop stop-color="#387CE1"/>
<stop offset="1"/>
</radialGradient>
<linearGradient id="paint27_linear_21_12362" x1="62.615" y1="74.8355" x2="57.639" y2="164.204" gradientUnits="userSpaceOnUse">
<stop stop-color="#BCC5CF"/>
<stop offset="1" stop-color="#717D87"/>
</linearGradient>
<linearGradient id="paint28_linear_21_12362" x1="156.513" y1="117.549" x2="69.6087" y2="171.148" gradientUnits="userSpaceOnUse">
<stop stop-color="#BCC5CF"/>
<stop offset="1" stop-color="#717D87"/>
</linearGradient>
<linearGradient id="paint29_linear_21_12362" x1="151.685" y1="231.847" x2="-15.0779" y2="139.084" gradientUnits="userSpaceOnUse">
<stop stop-color="#90969E"/>
<stop offset="1" stop-color="#2F3438"/>
</linearGradient>
<linearGradient id="paint30_linear_21_12362" x1="57.2452" y1="157.701" x2="73.5035" y2="190.955" gradientUnits="userSpaceOnUse">
<stop stop-color="#A3B0BD"/>
<stop offset="0.37" stop-color="#E1E9F2"/>
<stop offset="1" stop-color="#8E9DAB"/>
</linearGradient>
<linearGradient id="paint31_linear_21_12362" x1="55.718" y1="158.44" x2="57.8858" y2="162.825" gradientUnits="userSpaceOnUse">
<stop stop-color="#756C80"/>
<stop offset="1" stop-color="#FCFCFF"/>
</linearGradient>
<linearGradient id="paint32_linear_21_12362" x1="69.6106" y1="184.207" x2="73.01" y2="191.202" gradientUnits="userSpaceOnUse">
<stop stop-color="#FCFCFF"/>
<stop offset="1" stop-color="#756C80"/>
</linearGradient>
<radialGradient id="paint33_radial_21_12362" cx="0" cy="0" r="1" gradientUnits="userSpaceOnUse" gradientTransform="translate(57.0974 170.018) scale(34.6821 34.6834)">
<stop stop-color="white"/>
<stop offset="1"/>
</radialGradient>
<linearGradient id="paint34_linear_21_12362" x1="47.0968" y1="158.933" x2="67.8876" y2="202.927" gradientUnits="userSpaceOnUse">
<stop stop-color="#BCC5CF"/>
<stop offset="1" stop-color="#717D87"/>
</linearGradient>
<radialGradient id="paint35_radial_21_12362" cx="0" cy="0" r="1" gradientUnits="userSpaceOnUse" gradientTransform="translate(43.6975 79.7128) scale(59.4621 59.4644)">
<stop stop-color="white"/>
<stop offset="1"/>
</radialGradient>
<radialGradient id="paint36_radial_21_12362" cx="0" cy="0" r="1" gradientUnits="userSpaceOnUse" gradientTransform="translate(138.827 117.746) scale(66.5069 66.5095)">
<stop stop-color="white"/>
<stop offset="1"/>
</radialGradient>
<linearGradient id="paint37_linear_21_12362" x1="225.532" y1="141.837" x2="253.613" y2="141.837" gradientUnits="userSpaceOnUse">
<stop stop-color="#52585E"/>
<stop offset="1" stop-color="#232D36"/>
</linearGradient>
<linearGradient id="paint38_linear_21_12362" x1="266.274" y1="120.505" x2="294.355" y2="120.505" gradientUnits="userSpaceOnUse">
<stop stop-color="#52585E"/>
<stop offset="1" stop-color="#232D36"/>
</linearGradient>
<linearGradient id="paint39_linear_21_12362" x1="237.701" y1="175.683" x2="441.951" y2="175.683" gradientUnits="userSpaceOnUse">
<stop stop-color="#353A40"/>
<stop offset="0.59" stop-color="#373B42"/>
<stop offset="0.61" stop-color="#3A3E45"/>
<stop offset="0.63" stop-color="#424950"/>
<stop offset="0.65" stop-color="#515A62"/>
<stop offset="0.67" stop-color="#6F7E87"/>
<stop offset="0.69" stop-color="#616B71"/>
<stop offset="0.72" stop-color="#555A5E"/>
<stop offset="0.74" stop-color="#4C4E50"/>
<stop offset="0.78" stop-color="#474747"/>
<stop offset="0.83" stop-color="#454545"/>
<stop offset="1" stop-color="#292929"/>
</linearGradient>
<linearGradient id="paint40_linear_21_12362" x1="301.153" y1="112.721" x2="403.727" y2="262.93" gradientUnits="userSpaceOnUse">
<stop stop-color="#0D336B"/>
<stop offset="1" stop-color="#8CABD8"/>
</linearGradient>
<radialGradient id="paint41_radial_21_12362" cx="0" cy="0" r="1" gradientUnits="userSpaceOnUse" gradientTransform="translate(220.064 154.351) scale(26.455 26.4561)">
<stop stop-color="white"/>
<stop offset="1"/>
</radialGradient>
<radialGradient id="paint42_radial_21_12362" cx="0" cy="0" r="1" gradientUnits="userSpaceOnUse" gradientTransform="translate(264.599 131.689) scale(24.7307 24.7316)">
<stop stop-color="white"/>
<stop offset="1"/>
</radialGradient>
<clipPath id="clip0_21_12362">
<rect width="442" height="235" fill="white"/>
</clipPath>
</defs>
</svg>
