<svg width="421" height="456" viewBox="0 0 421 456" fill="none" xmlns="http://www.w3.org/2000/svg">
<path fill-rule="evenodd" clip-rule="evenodd" d="M248.618 20.0407C248.618 20.0407 230.286 9.81377 211.856 4.79733L208.598 10.2018L194.26 12.419V24.0926C194.26 24.0926 214.659 26.0216 228.68 31.426L228.277 39.1419L237.291 44.7348L248.618 20.0407Z" fill="url(#paint0_linear_10_2051)"/>
<path fill-rule="evenodd" clip-rule="evenodd" d="M243.254 24.7633H229.209L228.288 39.1419L231.276 40.9933L243.254 24.7633Z" fill="url(#paint1_linear_10_2051)"/>
<path opacity="0.8" fill-rule="evenodd" clip-rule="evenodd" d="M208.603 10.2018L204.851 20.0407L226.182 30.517L194.266 24.0926V12.419L208.603 10.2018Z" fill="url(#paint2_linear_10_2051)"/>
<path fill-rule="evenodd" clip-rule="evenodd" d="M361.91 320.816C362.918 321.165 363.977 321.42 365.059 321.581C368.518 322.185 372.248 321.881 376.024 320.933C379.725 320.007 383.455 318.411 387.081 316.304C400.642 308.527 412.562 293.827 413.811 280.302C414.266 275.164 414.145 270.508 413.667 266.389C412.13 252.826 406.864 244.999 406.864 244.999L391.403 252.687C391.403 252.687 400.636 260.492 400.734 274.011C400.734 275.097 400.688 276.234 400.567 277.392C399.606 286.815 395.3 297.186 387.852 304.176C384.847 307.003 381.336 309.27 377.325 310.706C375.235 311.449 372.973 311.981 370.596 312.213C370.164 312.258 369.756 312.308 369.324 312.33C358.555 313.001 351.297 296.122 351.297 296.122L343.63 301.515C343.613 301.51 342.364 314.17 361.91 320.816Z" fill="url(#paint3_linear_10_2051)"/>
<path fill-rule="evenodd" clip-rule="evenodd" d="M319.645 357.86C336.475 380.62 356.091 388.325 361.116 386.407C366.118 384.483 382.033 363.647 385.757 330.267C386.309 325.289 386.741 320.639 387.081 316.31C387.415 311.936 387.679 307.884 387.852 304.176C388.163 297.048 388.238 291.233 388.186 286.86C388.14 280.679 387.852 277.392 387.852 277.392L379.345 282.58C379.345 282.58 379.155 290.174 378.263 300.778C377.998 303.855 377.687 307.214 377.325 310.711C376.939 314.021 376.53 317.474 376.024 320.944C372.801 343.493 366.55 367.5 354.578 366.735C337.437 365.67 323.254 338.953 323.254 338.953L319.645 357.86Z" fill="url(#paint4_linear_10_2051)"/>
<path fill-rule="evenodd" clip-rule="evenodd" d="M406.864 244.999L391.403 252.687C391.403 252.687 400.636 260.492 400.734 274.011L413.667 266.395C412.13 252.82 406.864 244.999 406.864 244.999Z" fill="url(#paint5_linear_10_2051)"/>
<path fill-rule="evenodd" clip-rule="evenodd" d="M379.339 282.569C379.339 282.569 379.149 290.163 378.257 300.767L388.186 286.854C388.14 280.674 387.852 277.387 387.852 277.387L379.339 282.569Z" fill="url(#paint6_linear_10_2051)"/>
<path fill-rule="evenodd" clip-rule="evenodd" d="M361.91 320.816C362.918 321.165 363.977 321.42 365.059 321.581L370.59 312.202C370.159 312.247 369.75 312.297 369.318 312.319C358.549 312.989 351.291 296.111 351.291 296.111L343.624 301.504C343.613 301.51 342.364 314.17 361.91 320.816Z" fill="url(#paint7_linear_10_2051)"/>
<path fill-rule="evenodd" clip-rule="evenodd" d="M45.5633 242.105V242.144H45.6036C45.6036 242.183 45.6036 242.183 45.6036 242.222L45.7244 242.338C45.7244 242.338 45.7244 242.338 45.7244 242.377C45.7244 242.416 45.7647 242.455 45.805 242.532C45.8453 242.532 45.8453 242.571 45.8856 242.61V242.649C46.0468 242.876 46.1619 243.109 46.323 243.336C46.4842 243.602 46.5993 243.835 46.7605 244.062C46.7605 244.062 46.7202 244.062 46.7605 244.101C46.8814 244.217 46.9217 244.328 46.9965 244.406C47.3131 244.905 47.6699 245.398 48.0268 245.897C48.2225 246.202 48.4239 246.473 48.6599 246.778V246.817C48.7808 246.972 48.8556 247.122 48.9765 247.277C49.178 247.543 49.3737 247.776 49.5348 248.003C49.5751 248.081 49.6154 248.158 49.696 248.23C53.115 252.632 56.7642 256.262 59.3888 258.673C59.55 258.829 59.7457 258.978 59.9069 259.134C61.4149 260.475 62.4912 261.351 62.8481 261.622C62.9287 261.7 62.969 261.739 62.969 261.739L69.2083 304.32V304.359L70.3998 312.624L73.2604 332.058L91.2705 455.185H118.104L111.79 412.01L96.7328 309.026L89.3423 258.718C89.3826 258.679 89.3423 258.679 89.3423 258.679L89.2617 258.03C96.0536 249.655 99.3114 242.726 100.347 240.393C100.428 240.237 100.509 240.088 100.509 239.971C100.589 239.855 100.629 239.744 100.629 239.666C100.67 239.628 100.67 239.628 100.67 239.589L96.6579 231.285C85.4858 224.639 58.4276 227.089 51.2155 231.285L50.1046 233.353L45.4942 242C45.4942 242 45.4942 242 45.5345 242.039C45.523 242.072 45.523 242.072 45.5633 242.105Z" fill="url(#paint8_linear_10_2051)"/>
<path fill-rule="evenodd" clip-rule="evenodd" d="M297.456 455.174H351.631C342.49 403.513 329.764 346.303 329.764 346.303L296.374 363.226L270.41 376.374C271.008 378.946 271.757 381.745 272.597 384.711C278.123 404.35 288.224 431.605 297.456 455.174Z" fill="url(#paint9_linear_10_2051)"/>
<path fill-rule="evenodd" clip-rule="evenodd" d="M215.211 351.181C215.211 351.181 210.048 339.23 215.211 330.262C215.211 330.262 256.947 343.992 273.668 380.243L215.211 351.181Z" fill="#6B3B7C"/>
<path fill-rule="evenodd" clip-rule="evenodd" d="M387.852 143.761C387.852 143.761 367.718 113.224 340.073 98.5631L319.639 124.798L387.852 143.761Z" fill="url(#paint10_linear_10_2051)"/>
<path fill-rule="evenodd" clip-rule="evenodd" d="M73.2547 332.035C73.2547 332.035 100.888 369.866 111.802 411.993L96.7098 308.81L68.4082 315.561L73.2547 332.035Z" fill="url(#paint11_linear_10_2051)"/>
<path fill-rule="evenodd" clip-rule="evenodd" d="M361.91 128.85C361.91 128.85 401.775 143.706 413.794 177.274C413.794 177.274 415.008 225.748 375.137 244.921L361.91 128.85Z" fill="url(#paint12_radial_10_2051)"/>
<path fill-rule="evenodd" clip-rule="evenodd" d="M47.3937 265.048L50.9968 276.25L54.7957 277.78L61.8178 304.797L57.806 305.096C58.4046 312.945 64.2238 315.606 64.2238 315.606C64.2238 315.606 65.3749 315.678 67.7118 315.584C67.7118 315.584 67.7809 315.584 67.9305 315.584C68.0514 315.584 68.2183 315.562 68.414 315.562C70.5782 315.445 73.6288 315.19 77.5716 314.658C77.6694 314.636 77.7903 314.614 77.9112 314.614C77.9802 314.614 78.0551 314.591 78.1299 314.569C79.5228 314.386 81.0366 314.154 82.6482 313.876C94.3096 311.886 102.264 305.656 103.202 304.869C103.225 304.847 103.277 304.825 103.3 304.802C103.3 304.802 103.421 304.847 103.64 304.941C135.66 317.003 157.538 317.768 166.649 317.374C167.133 317.352 167.61 317.33 168.094 317.28C168.525 317.258 168.934 317.235 169.274 317.186C169.993 317.141 170.523 317.069 170.885 317.025C171.052 317.003 171.248 316.981 171.415 316.953L176.221 304.797L166.655 252.892L166.004 249.417C166.004 249.417 156.893 247.937 148.622 247.704C147.396 247.659 146.17 247.659 145.013 247.682C142.463 247.726 140.184 247.959 138.451 248.447C138.451 248.447 138.451 248.447 138.428 248.469C128.43 251.296 117.511 260.575 114.916 262.681C112.32 264.81 101.09 272.381 101.09 272.381L103.3 259.832C98.684 255.409 91.4719 253.696 91.4719 253.696L88.0587 260.408C74.4519 265.824 61.012 261.196 61.012 261.196L60.0277 259.067L47.3937 265.048Z" fill="url(#paint13_linear_10_2051)"/>
<path fill-rule="evenodd" clip-rule="evenodd" d="M351.636 455.174C342.496 403.513 329.77 346.303 329.77 346.303L296.38 363.226L272.603 384.711C278.128 404.344 288.224 431.599 297.456 455.174H351.636Z" fill="url(#paint14_linear_10_2051)"/>
<path fill-rule="evenodd" clip-rule="evenodd" d="M213.461 178.621C221.18 211.264 206.249 231.662 201.754 236.889C200.983 237.771 200.528 238.231 200.528 238.231C200.528 238.231 200.868 239.506 201.656 241.795C204.54 249.943 213.461 270.918 234.81 292.636C234.81 292.636 232.139 296.083 228.945 300.601C227.31 302.918 225.508 305.534 223.874 308.078C216.616 319.397 209.858 337.501 209.858 337.501L214.52 348.958C214.52 348.958 212.454 336.575 215.263 334.441C215.263 334.441 251.922 348.77 276.879 384.356L298.009 380.997C298.009 380.997 322.84 365.948 332.458 340.089C332.458 340.089 332.36 339.79 332.193 339.28C332.118 339.164 332.072 339.003 332.026 338.842C330.489 334.652 325.102 320.855 318.034 313.073C318.034 313.073 378.925 254.433 389.36 215.072C399.767 175.716 367.315 131.727 361.905 128.834C360.777 128.229 358.083 126.794 353.731 124.965C337.074 117.925 296.42 105.17 229.687 112.049C229.687 112.049 212.184 115.846 195.837 124.155L195.739 124.2L191.054 126.722L190.91 126.816C189.805 127.464 188.7 128.135 187.618 128.828C187.618 128.828 195.572 134.316 203.51 150.152C207.067 157.369 210.652 166.704 213.461 178.621Z" fill="url(#paint15_linear_10_2051)"/>
<path fill-rule="evenodd" clip-rule="evenodd" d="M214.307 165.296C214.307 165.296 225.082 198.493 220.017 232.449C215.931 259.854 205.691 251.479 205.691 251.479L195.831 231.673L214.307 165.296Z" fill="#6B3B7C"/>
<path fill-rule="evenodd" clip-rule="evenodd" d="M201.662 241.8C204.546 249.949 213.467 270.923 234.816 292.641C234.816 292.641 232.145 296.089 228.95 300.606C228.95 300.606 268.994 337.152 279.982 342.384L332.469 340.106C332.469 340.106 332.371 339.807 332.205 339.297C332.159 339.158 332.107 339.02 332.038 338.859C330.524 334.508 325.136 320.107 318.045 313.089L372.133 186.891C372.133 186.891 378.648 150.706 353.789 125.053C354.606 126.306 368.403 147.974 366.987 173.322C366.987 173.322 311.685 173.555 275.049 167.629L229.215 124.987L195.849 124.177L195.751 124.222L191.065 126.744L190.922 126.838C190.922 126.838 217.243 138.689 243.305 181.52C243.305 181.52 238.401 213.93 229.221 223.192C229.221 223.192 226.262 169.087 203.642 143.761L203.521 150.174L201.766 236.895L201.662 241.8Z" fill="url(#paint16_linear_10_2051)"/>
<path fill-rule="evenodd" clip-rule="evenodd" d="M149.157 292.065C161.78 308.272 176.204 304.797 176.204 304.797C197.84 286.577 207.792 244.927 209.547 236.756C209.766 235.831 209.858 235.343 209.858 235.343L149.347 244.417C149.157 245.62 148.892 246.706 148.605 247.704C148.242 248.862 147.81 249.882 147.379 250.758C146.176 253.191 144.95 254.439 144.95 254.439C144.95 254.439 136.535 275.857 149.157 292.065Z" fill="url(#paint17_linear_10_2051)"/>
<path fill-rule="evenodd" clip-rule="evenodd" d="M229.209 98.1031C231.011 104.284 232.887 107.848 232.887 107.848L335.946 108.89C335.946 108.89 357.127 91.8727 361.306 69.5565C361.933 66.1752 362.169 62.6831 361.905 59.0913C359.815 31.9138 337.552 8.15641 304.519 2.97368C271.44 -2.25893 251.007 10.1962 251.007 10.1962L248.601 20.0351C248.601 20.0351 238.096 25.822 229.992 51.5915C223.799 71.2748 226.372 88.1035 229.209 98.1031Z" fill="url(#paint18_linear_10_2051)"/>
<path fill-rule="evenodd" clip-rule="evenodd" d="M267.653 455.174C271.503 422.248 276.879 384.367 276.879 384.367C251.928 350.521 218.774 342.373 218.774 342.373C204.643 371.48 207.988 419.338 213.496 455.179H267.653V455.174Z" fill="url(#paint19_linear_10_2051)"/>
<path fill-rule="evenodd" clip-rule="evenodd" d="M273.668 407.642C273.668 407.642 241.602 412.154 208.753 396.528C208.753 396.528 208.92 410.403 209.185 414.765C209.185 414.765 229.992 427.203 271.728 422.32L273.668 407.642Z" fill="url(#paint20_radial_10_2051)"/>
<path fill-rule="evenodd" clip-rule="evenodd" d="M337.039 380.249C337.039 380.249 318.937 398.202 277.069 399.261L279.89 407.781C279.89 407.781 308.841 417.442 339.883 394.017L337.039 380.249Z" fill="url(#paint21_radial_10_2051)"/>
<path fill-rule="evenodd" clip-rule="evenodd" d="M212.92 264.798L209.858 267.465L220.023 285.984C220.023 285.984 234.7 295.917 252.331 299.198L260.043 191.276L279.976 182.429C279.976 182.429 243.029 127.974 212.92 111.478L190.927 115.242V126.827L195.837 124.166C195.837 124.166 226.044 136.267 248.883 177.651C264.781 213.559 264.337 239.744 253.666 280.474C253.666 280.485 229.204 280.369 212.92 264.798Z" fill="url(#paint22_radial_10_2051)"/>
<path fill-rule="evenodd" clip-rule="evenodd" d="M391.403 186.886C391.403 186.886 408.596 205.056 413.799 230.138C413.799 230.138 362.112 234.384 301.209 226.662C301.209 226.662 271.48 202.739 248.883 177.662C248.883 177.657 316.52 191.093 391.403 186.886Z" fill="url(#paint23_linear_10_2051)"/>
<path fill-rule="evenodd" clip-rule="evenodd" d="M252.336 299.193L279.982 312.319C279.982 312.319 280.005 312.274 280.028 312.202C280.534 311.116 284.811 301.715 289.45 286.716C292.552 276.738 295.799 264.261 298.199 250.093C298.245 249.954 298.274 249.816 298.297 249.677C299.523 242.41 300.53 234.7 301.204 226.662L248.871 177.651C248.871 177.651 251.611 199.851 253.004 229.118C253.004 229.14 253.004 229.14 253.004 229.14C254.069 250.691 254.38 276.045 252.336 299.193Z" fill="url(#paint24_linear_10_2051)"/>
<path fill-rule="evenodd" clip-rule="evenodd" d="M279.982 312.319C283.251 312.712 286.422 313.034 289.502 313.317C289.502 313.317 289.669 313.339 289.985 313.361C293.013 313.638 295.971 313.871 298.809 314.076C299.264 314.098 299.724 314.148 300.202 314.17C335.278 316.415 356.022 312.712 357.968 312.341C358.014 312.319 358.066 312.319 358.112 312.319C378.447 294.077 394.028 269.116 403.45 251.523C403.473 251.501 403.496 251.479 403.496 251.456V251.434C410.202 238.907 413.811 230.138 413.811 230.138C350.899 232.455 301.209 226.662 301.209 226.662C301.042 233.491 299.937 241.435 298.303 249.677C298.28 249.816 298.256 249.954 298.205 250.093C295.73 262.476 292.098 275.491 288.731 286.394C284.402 300.423 280.482 311.005 280.028 312.208C280.005 312.274 279.982 312.319 279.982 312.319Z" fill="url(#paint25_linear_10_2051)"/>
<path fill-rule="evenodd" clip-rule="evenodd" d="M353.749 124.987C353.749 124.987 374.13 148.65 372.127 186.886H391.403C391.403 186.886 391.973 151.471 367.718 125.569L353.749 121.157V124.987Z" fill="url(#paint26_radial_10_2051)"/>
<path fill-rule="evenodd" clip-rule="evenodd" d="M248.883 177.657C248.883 177.657 279.976 212.772 301.209 226.657C301.209 226.657 349.299 233.602 413.799 230.132C413.799 230.132 411.25 203.947 391.403 186.88C391.403 186.886 296.317 184.219 248.883 177.657Z" fill="url(#paint27_linear_10_2051)"/>
<path fill-rule="evenodd" clip-rule="evenodd" d="M301.209 226.662C301.209 226.662 319.64 256.761 327.254 261.001C334.869 265.247 373.549 263.318 378.85 261.001C384.151 258.685 413.805 230.132 413.805 230.132C413.805 230.132 340.476 230.52 301.209 226.662Z" fill="url(#paint28_linear_10_2051)"/>
<path fill-rule="evenodd" clip-rule="evenodd" d="M289.502 313.317C289.502 313.317 289.669 313.339 289.985 313.361C291.114 313.499 294.147 313.799 298.809 314.076C299.264 314.098 299.724 314.148 300.202 314.17C311.955 314.797 332.561 315.14 357.968 312.341C358.014 312.319 358.066 312.319 358.112 312.319C358.112 312.319 360.08 303.589 361.214 296.97C361.767 293.727 362.106 290.995 361.91 290.047C361.312 287.131 320.44 285.973 317.124 286.854C316.14 287.131 313.158 289.703 309.526 293.129C301.255 300.956 289.502 313.317 289.502 313.317Z" fill="url(#paint29_linear_10_2051)"/>
<path fill-rule="evenodd" clip-rule="evenodd" d="M294.101 101.396C294.101 101.396 307.817 80.8088 301.209 50.1337C294.596 19.4586 264.769 4.79733 264.769 4.79733C264.769 4.79733 301.209 -10.058 336.067 12.5132C368.466 33.4936 362.02 68.653 362.02 68.653C362.02 68.653 352.292 93.7795 327.352 107.842L294.101 101.396Z" fill="url(#paint30_linear_10_2051)"/>
<path fill-rule="evenodd" clip-rule="evenodd" d="M100.676 239.589C100.676 239.589 75.8333 262.548 45.4827 242C45.4827 242 54.0014 256.223 62.9632 261.75C62.9632 261.75 75.2289 265.924 88.053 260.425C88.053 260.425 98.3732 246.917 100.676 239.589Z" fill="url(#paint31_linear_10_2051)"/>
<path fill-rule="evenodd" clip-rule="evenodd" d="M229.209 98.1031C231.011 104.284 232.887 107.848 232.887 107.848L335.946 108.89C335.946 108.89 357.127 91.8727 361.306 69.5565C359.332 71.1972 352.074 74.3235 325.729 72.1285C290.993 69.235 264.763 55.2998 264.763 55.2998L255.266 64.0966L229.209 98.1031Z" fill="url(#paint32_linear_10_2051)"/>
<path opacity="0.5" fill-rule="evenodd" clip-rule="evenodd" d="M239.495 104.356L248.871 102.526C248.871 102.526 265.748 83.7023 264.763 55.2998C263.779 26.8697 251.013 10.2018 251.013 10.2018L248.607 20.0407L239.495 104.356Z" fill="#89618B"/>
<path fill-rule="evenodd" clip-rule="evenodd" d="M248.618 20.0406C248.618 20.0406 254.23 36.5367 255.83 50.4275C257.43 64.3183 249.32 96.6342 239.501 104.35L232.893 107.848C232.893 107.848 221.439 88.1921 224.726 61.7187C228.087 34.7075 248.618 20.0406 248.618 20.0406Z" fill="url(#paint33_radial_10_2051)"/>
<path fill-rule="evenodd" clip-rule="evenodd" d="M347.262 122.448L340.073 110.087C340.073 110.087 287.585 93.1531 239.507 104.345L220.023 114.655C220.023 114.655 283.642 104.539 347.262 122.448Z" fill="url(#paint34_radial_10_2051)"/>
<path opacity="0.8" fill-rule="evenodd" clip-rule="evenodd" d="M56.4591 269.05V276.877L62.4682 280.047L66.5319 305.096L64.1259 306.809L67.7061 315.584C67.7061 315.584 67.7751 315.584 67.9248 315.584C68.0456 315.584 68.2125 315.561 68.4082 315.561C69.8012 315.517 73.1914 315.351 77.5658 314.658C77.6637 314.636 77.7845 314.614 77.9054 314.614C77.9745 314.614 78.0493 314.591 78.1241 314.569C85.4571 313.366 95.3341 310.706 103.197 304.869C103.22 304.847 103.271 304.825 103.294 304.802C103.294 304.802 103.415 304.847 103.634 304.941C107.191 306.443 138.612 319.297 166.643 317.374C167.127 317.352 167.605 317.33 168.088 317.28C168.497 317.28 168.882 317.235 169.268 317.186C169.821 317.141 170.35 317.091 170.88 317.025C171.047 317.003 171.242 316.98 171.409 316.953L176.215 304.797C197.852 286.577 207.803 244.927 209.559 236.756C213.07 233.791 216.172 230.343 218.693 226.269C218.693 226.269 222.228 203.698 217.83 179.297C217.83 179.297 158.62 192.307 134.077 173.322L134.054 173.388C130.065 196.098 131.843 229.09 145.019 247.682C142.469 247.726 140.189 247.959 138.457 248.447C138.457 248.447 138.457 248.447 138.434 248.469C137.927 249.234 126.364 266.478 136.27 286.577C136.27 286.577 122.928 292.691 110.115 291.3C94.9197 289.631 101.101 272.387 101.101 272.387L103.312 259.837C103.289 259.837 75.3786 272.248 56.4591 269.05Z" fill="url(#paint35_linear_10_2051)"/>
<path fill-rule="evenodd" clip-rule="evenodd" d="M304.812 10.2018C304.812 10.2018 294.993 16.9587 281.904 10.2018C281.904 10.2018 290.388 -0.2191 304.812 10.2018Z" fill="white"/>
<path opacity="0.8" fill-rule="evenodd" clip-rule="evenodd" d="M318.195 363.425L301.209 372.799H277.489C277.489 372.799 243.467 344.463 215.464 336.941L209.858 337.506L215.211 351.181C215.211 351.181 250.725 368.17 272.66 411.866L276.868 384.373L298.009 381.002C298.009 381.008 311.742 371.762 318.195 363.425Z" fill="url(#paint36_linear_10_2051)"/>
<path opacity="0.5" fill-rule="evenodd" clip-rule="evenodd" d="M252.336 299.193L279.982 312.319C283.251 312.712 286.422 313.034 289.502 313.317C289.502 313.317 289.669 313.339 289.985 313.361C291.114 313.499 294.147 313.799 298.809 314.076C299.264 314.098 299.724 314.148 300.202 314.17C335.278 316.415 356.022 312.712 357.968 312.341C358.014 312.319 358.066 312.319 358.112 312.319C378.447 294.077 394.028 269.116 403.45 251.523C402.247 253.469 383.063 284.814 370.59 293.794C368.501 295.274 365.255 296.338 361.214 296.965C348.281 299.071 327.076 297.175 309.526 293.123C301.785 291.366 294.768 289.166 289.456 286.71C289.214 286.616 288.972 286.499 288.736 286.383C286.768 285.435 285.035 284.46 283.642 283.445C269.846 273.446 256.527 238.741 253.016 229.135C254.069 250.691 254.38 276.045 252.336 299.193Z" fill="url(#paint37_linear_10_2051)"/>
<path opacity="0.5" fill-rule="evenodd" clip-rule="evenodd" d="M190.927 115.248C190.927 115.248 230.096 128.64 256.037 177.651L278.9 180.883C278.9 180.883 248.739 133.484 212.92 111.489L190.927 115.248Z" fill="url(#paint38_linear_10_2051)"/>
<path opacity="0.5" fill-rule="evenodd" clip-rule="evenodd" d="M353.749 121.157C353.749 121.157 373.273 138.246 378.257 171.892L390.321 174.419C390.321 174.419 386.747 147.369 367.718 125.569L353.749 121.157Z" fill="url(#paint39_linear_10_2051)"/>
<path opacity="0.5" fill-rule="evenodd" clip-rule="evenodd" d="M209.858 267.465C209.858 267.465 226.688 280.857 240.209 282.553V294.376C240.209 294.376 228.53 290.612 220.023 285.984L209.858 267.465Z" fill="url(#paint40_linear_10_2051)"/>
<path fill-rule="evenodd" clip-rule="evenodd" d="M248.883 177.657C248.883 177.657 285.398 214.551 306.021 227.139C306.021 227.139 322.799 255.37 326.702 258.247C330.604 261.123 366.544 262.853 378.85 258.346C384.37 256.323 410.513 233.275 410.513 233.275C410.513 233.275 383.616 258.879 378.85 261.001C374.084 263.124 337.655 265.752 327.255 261.001C319.651 257.526 301.209 226.662 301.209 226.662C301.209 226.662 264.625 200.904 248.883 177.657Z" fill="url(#paint41_linear_10_2051)"/>
<path opacity="0.5" fill-rule="evenodd" clip-rule="evenodd" d="M361.623 294.376C361.623 294.376 362.515 289.077 362.411 288.007C362.313 286.943 322.143 284.149 316.232 285.402C310.321 286.655 291.793 310.867 291.793 310.867C291.793 310.867 313.239 289.26 316.151 287.564C319.064 285.868 358.491 287.248 361.91 290.041C362.78 290.762 361.623 294.376 361.623 294.376Z" fill="url(#paint42_linear_10_2051)"/>
<path fill-rule="evenodd" clip-rule="evenodd" d="M251.013 10.2018V27.0082C251.013 27.0082 238.413 35.7274 229.209 54.607C220.006 73.4865 229.209 98.1086 229.209 98.1086C229.209 98.1086 217.364 69.9279 229.209 45.3224C238.701 25.6058 248.612 20.0351 248.612 20.0351L251.013 10.2018Z" fill="url(#paint43_radial_10_2051)"/>
<path fill-rule="evenodd" clip-rule="evenodd" d="M212.92 111.489L197.708 118.235L199.791 126.278L192.717 132.409C192.717 132.409 155.73 143.556 144.886 158.472C134.042 173.388 134.946 227.76 142.204 243.208C142.204 243.208 120.47 201.891 140.184 152.901C140.184 152.901 149.307 140.662 187.623 128.85L190.927 126.827V115.248L212.92 111.489Z" fill="url(#paint44_radial_10_2051)"/>
<path fill-rule="evenodd" clip-rule="evenodd" d="M146.032 253.064L136.114 252.687L103.801 274.831L101.078 272.387C101.078 272.387 126.364 251.429 138.434 248.447L144.996 247.682L147.378 250.763L146.032 253.064Z" fill="url(#paint45_radial_10_2051)"/>
<path fill-rule="evenodd" clip-rule="evenodd" d="M205.691 251.484L219.568 270.574L216.178 271.977L225.031 288.467L220.023 285.984L209.858 267.465L212.92 264.798L205.691 251.484Z" fill="url(#paint46_radial_10_2051)"/>
<path fill-rule="evenodd" clip-rule="evenodd" d="M208.753 421.306C209.168 432.846 210.526 444.47 212.253 455.174H220.012C219.085 448.799 218.175 441.992 217.324 434.864C212.506 394.461 217.324 353.193 217.324 353.193L215.211 351.187C213.133 342.246 215.263 334.458 215.263 334.458L215.211 330.267C217.985 324.78 228.945 300.612 228.945 300.612C215.292 316.033 209.858 337.512 209.858 337.512L214.854 352.339C214.854 352.339 207.021 372.804 208.753 421.306Z" fill="url(#paint47_radial_10_2051)"/>
<path fill-rule="evenodd" clip-rule="evenodd" d="M303.126 455.174L279.89 407.775C283.66 420.269 290.406 438.157 297.157 455.174H303.126Z" fill="url(#paint48_radial_10_2051)"/>
<path fill-rule="evenodd" clip-rule="evenodd" d="M45.5633 242.105V242.144C45.5633 242.144 45.6036 242.183 45.6036 242.222C45.6439 242.261 45.6842 242.338 45.7245 242.377C45.7245 242.416 45.7648 242.455 45.8051 242.532C46.0065 242.876 46.3231 243.413 46.7605 244.062C46.7605 244.062 46.7202 244.062 46.7605 244.101C48.5851 247.083 52.0386 251.595 56.4131 256.307C56.4937 256.423 56.5742 256.501 56.6491 256.573C57.5642 257.376 58.4737 258.102 59.3888 258.679C59.5903 258.834 59.8263 258.945 60.022 259.061L59.9011 259.139L59.5846 259.255V259.294L47.3879 265.07L51.0026 276.278L54.7784 277.769L61.8121 304.814L57.8002 305.118C57.8002 305.118 59.0723 312.042 63.3201 315.063C63.3201 315.063 63.3201 315.063 63.3604 315.063C63.5561 315.218 63.7575 315.329 63.9935 315.484L64.2295 315.6L70.7854 315.445L73.1683 331.858L91.259 455.174H100.906L77.5831 314.641L70.7912 313.339L70.394 312.613L66.5434 305.113L69.2026 304.348V304.309L62.9632 276.882L56.9657 275.43L56.4476 269.039L61.0178 261.195L62.9632 261.733C62.9632 261.733 62.9229 261.694 62.8423 261.617C61.4897 260.275 50.8069 249.605 49.2586 244.323L55.0202 235.332C55.0202 235.332 53.9898 233.879 52.8329 231.274H51.204L50.0932 233.342L45.4827 241.989C45.4827 241.989 45.4827 241.989 45.523 242.028C45.523 242.072 45.523 242.072 45.5633 242.105Z" fill="url(#paint49_radial_10_2051)"/>
<path fill-rule="evenodd" clip-rule="evenodd" d="M118.116 455.174L106.241 374.013C106.241 374.013 99.7661 405.602 99.6798 412.054C99.6165 416.511 102.984 440.18 105.7 455.174H118.116Z" fill="url(#paint50_radial_10_2051)"/>
<path d="M96.6522 231.28C96.6522 231.28 89.4344 235.01 74.3195 235.343C59.2047 235.675 51.204 231.28 51.204 231.28C51.204 231.28 57.8348 226.585 75.5858 226.585C93.3426 226.59 96.6522 231.28 96.6522 231.28Z" fill="#105DCF"/>
<path fill-rule="evenodd" clip-rule="evenodd" d="M103.519 163.594L82.7115 231.89C82.7115 231.89 77.9745 232.954 67.4931 232.084L14.7983 173.383L103.519 163.594Z" fill="url(#paint51_linear_10_2051)"/>
<path fill-rule="evenodd" clip-rule="evenodd" d="M91.1667 193.643L103.519 163.594L100.353 139.027L104.284 137.359L98.9658 95.7029L64.4135 85.3985L48.3777 100.065C48.3777 100.065 23.6909 102.948 0.00553894 118.385L15.1319 174.674L43.8996 182.141L47.3704 190.156L87.0627 203.177L86.1591 193.826L91.1667 193.643Z" fill="url(#paint52_linear_10_2051)"/>
<path fill-rule="evenodd" clip-rule="evenodd" d="M17.8547 109.1L37.8677 104.145L49.1261 172.707L15.1264 174.674L0 118.385C0 118.385 12.9161 111.312 17.8547 109.1Z" fill="#ACFFE0"/>
<path fill-rule="evenodd" clip-rule="evenodd" d="M64.4079 85.3985L71.3783 135.142L52.3552 146.483L48.3721 100.065L64.4079 85.3985Z" fill="#ACFFE0"/>
<path fill-rule="evenodd" clip-rule="evenodd" d="M87.0514 203.171L86.401 196.409L55.0489 185.195L47.3649 190.156L87.0514 203.171Z" fill="url(#paint53_linear_10_2051)"/>
<path fill-rule="evenodd" clip-rule="evenodd" d="M49.1204 172.707L59.4176 178.987L43.8941 182.141L15.1264 174.674L49.1204 172.707Z" fill="url(#paint54_linear_10_2051)"/>
<path fill-rule="evenodd" clip-rule="evenodd" d="M81.969 151.865L57.9096 156.294L59.4176 178.987L82.6482 172.906L81.969 151.865Z" fill="#ACFFE0"/>
<path fill-rule="evenodd" clip-rule="evenodd" d="M40.4924 101.523L38.4376 108.923L17.8546 109.1L26.6553 104.927L40.4924 101.523Z" fill="#5C72E5"/>
<path fill-rule="evenodd" clip-rule="evenodd" d="M17.8547 109.1L3.75282 117.72L14.3781 171.892L0 118.385C0 118.385 7.70709 112.498 17.8547 109.1Z" fill="#5C72E5"/>
<path fill-rule="evenodd" clip-rule="evenodd" d="M64.4079 85.3984L56.4591 96.7561L48.3721 100.065L64.4079 85.3984Z" fill="#5C72E5"/>
<path fill-rule="evenodd" clip-rule="evenodd" d="M82.6482 172.906L91.1669 193.643L86.1478 193.826L59.4176 178.987L82.6482 172.906Z" fill="url(#paint55_linear_10_2051)"/>
<path fill-rule="evenodd" clip-rule="evenodd" d="M104.279 137.359L100.347 139.027L81.969 151.865L52.3552 146.483L71.3783 135.142L104.279 137.359Z" fill="url(#paint56_linear_10_2051)"/>
<path fill-rule="evenodd" clip-rule="evenodd" d="M144.996 247.682C145.738 248.768 146.532 249.788 147.379 250.758C148.271 251.8 149.18 252.77 150.164 253.674C150.164 253.674 157.043 254.001 166.632 252.886C179.375 251.407 196.948 247.399 209.542 236.751C213.053 233.785 216.155 230.337 218.676 226.263C218.676 226.263 222.21 203.692 217.813 179.292C214.377 160.329 206.105 140.236 187.618 128.845C187.618 128.845 154.683 137.525 142.204 151.416C138.693 155.329 135.809 163.339 134.054 173.316L134.031 173.383C130.042 196.104 131.826 229.09 144.996 247.682Z" fill="url(#paint57_radial_10_2051)"/>
<path d="M395.346 191.342C409.514 191.342 421 177.822 421 161.144C421 144.466 409.514 130.945 395.346 130.945C381.178 130.945 369.692 144.466 369.692 161.144C369.692 177.822 381.178 191.342 395.346 191.342Z" fill="url(#paint58_radial_10_2051)"/>
<path d="M176.584 225.421C218.548 225.421 252.567 195.209 252.567 157.94C252.567 120.671 218.548 90.4592 176.584 90.4592C134.619 90.4592 100.601 120.671 100.601 157.94C100.601 195.209 134.619 225.421 176.584 225.421Z" fill="url(#paint59_radial_10_2051)"/>
<defs>
<linearGradient id="paint0_linear_10_2051" x1="200.233" y1="44.393" x2="253.325" y2="-13.8299" gradientUnits="userSpaceOnUse">
<stop stop-color="#93CBFF"/>
<stop offset="1" stop-color="#91C7FE"/>
</linearGradient>
<linearGradient id="paint1_linear_10_2051" x1="230.486" y1="29.5739" x2="250.065" y2="39.8713" gradientUnits="userSpaceOnUse">
<stop stop-color="#91C7FE"/>
<stop offset="1" stop-color="#7289EB"/>
</linearGradient>
<linearGradient id="paint2_linear_10_2051" x1="210.225" y1="30.5167" x2="210.225" y2="10.2005" gradientUnits="userSpaceOnUse">
<stop stop-color="#81A6F4"/>
<stop offset="1" stop-color="white"/>
<stop offset="1" stop-color="#7289EB"/>
</linearGradient>
<linearGradient id="paint3_linear_10_2051" x1="378.848" y1="321.892" x2="378.848" y2="244.997" gradientUnits="userSpaceOnUse">
<stop stop-color="#91C7FE"/>
<stop offset="1" stop-color="#91C7FE"/>
</linearGradient>
<linearGradient id="paint4_linear_10_2051" x1="353.922" y1="386.686" x2="353.922" y2="277.386" gradientUnits="userSpaceOnUse">
<stop stop-color="#91C7FE"/>
<stop offset="1" stop-color="#8BBAFA"/>
</linearGradient>
<linearGradient id="paint5_linear_10_2051" x1="402.536" y1="274.006" x2="402.536" y2="244.997" gradientUnits="userSpaceOnUse">
<stop stop-color="white"/>
<stop offset="1" stop-color="#8BBAFA"/>
</linearGradient>
<linearGradient id="paint6_linear_10_2051" x1="383.22" y1="300.768" x2="383.22" y2="277.386" gradientUnits="userSpaceOnUse">
<stop stop-color="white"/>
<stop offset="1" stop-color="#93CBFF"/>
</linearGradient>
<linearGradient id="paint7_linear_10_2051" x1="357.093" y1="321.581" x2="357.093" y2="296.115" gradientUnits="userSpaceOnUse">
<stop stop-color="white"/>
<stop offset="1" stop-color="#93CBFF"/>
</linearGradient>
<linearGradient id="paint8_linear_10_2051" x1="81.7929" y1="480.443" x2="81.7929" y2="227.164" gradientUnits="userSpaceOnUse">
<stop stop-color="#81A6F4"/>
<stop offset="1" stop-color="#81A6F4"/>
</linearGradient>
<linearGradient id="paint9_linear_10_2051" x1="311.024" y1="663.058" x2="311.024" y2="346.306" gradientUnits="userSpaceOnUse">
<stop stop-color="#BDA2D9"/>
<stop offset="1" stop-color="#AB9CE5"/>
</linearGradient>
<linearGradient id="paint10_linear_10_2051" x1="353.746" y1="143.758" x2="353.746" y2="98.56" gradientUnits="userSpaceOnUse">
<stop stop-color="#91C7FE"/>
<stop offset="1" stop-color="#81A6F4"/>
</linearGradient>
<linearGradient id="paint11_linear_10_2051" x1="90.1023" y1="411.993" x2="90.1023" y2="308.81" gradientUnits="userSpaceOnUse">
<stop stop-color="white"/>
<stop offset="1" stop-color="#8BBAFA"/>
</linearGradient>
<radialGradient id="paint12_radial_10_2051" cx="0" cy="0" r="1" gradientUnits="userSpaceOnUse" gradientTransform="translate(387.854 186.884) rotate(180) scale(46.3936 44.6782)">
<stop stop-color="#76FFFF"/>
<stop offset="0.1458" stop-color="#77FBFF"/>
<stop offset="0.3003" stop-color="#7AEEFF"/>
<stop offset="0.4588" stop-color="#7ED9FF"/>
<stop offset="0.6201" stop-color="#84BBFF"/>
<stop offset="0.7835" stop-color="#8D95FF"/>
<stop offset="0.9464" stop-color="#9667FF"/>
<stop offset="1" stop-color="#9A56FF"/>
</radialGradient>
<linearGradient id="paint13_linear_10_2051" x1="24.0916" y1="266.642" x2="214.786" y2="302.499" gradientUnits="userSpaceOnUse">
<stop stop-color="#91C7FE"/>
<stop offset="1" stop-color="#7289EB"/>
</linearGradient>
<linearGradient id="paint14_linear_10_2051" x1="312.117" y1="634.188" x2="312.117" y2="346.306" gradientUnits="userSpaceOnUse">
<stop stop-color="white"/>
<stop offset="1" stop-color="#8BBAFA"/>
</linearGradient>
<linearGradient id="paint15_linear_10_2051" x1="289.513" y1="384.366" x2="289.513" y2="110.092" gradientUnits="userSpaceOnUse">
<stop stop-color="#93CBFF"/>
<stop offset="1" stop-color="#8BBAFA"/>
</linearGradient>
<linearGradient id="paint16_linear_10_2051" x1="281.905" y1="342.382" x2="281.905" y2="124.172" gradientUnits="userSpaceOnUse">
<stop stop-color="#93CBFF"/>
<stop offset="1" stop-color="white"/>
</linearGradient>
<linearGradient id="paint17_linear_10_2051" x1="176.03" y1="305.109" x2="176.03" y2="235.344" gradientUnits="userSpaceOnUse">
<stop stop-color="#E7AED9"/>
<stop offset="1" stop-color="#D1BDE5"/>
</linearGradient>
<linearGradient id="paint18_linear_10_2051" x1="294.1" y1="108.893" x2="294.1" y2="1.69385" gradientUnits="userSpaceOnUse">
<stop stop-color="#81A6F4"/>
<stop offset="1" stop-color="#8BBAFA"/>
</linearGradient>
<linearGradient id="paint19_linear_10_2051" x1="242.817" y1="678.106" x2="242.817" y2="342.37" gradientUnits="userSpaceOnUse">
<stop stop-color="#93CBFF"/>
<stop offset="1" stop-color="#93CBFF"/>
</linearGradient>
<radialGradient id="paint20_radial_10_2051" cx="0" cy="0" r="1" gradientUnits="userSpaceOnUse" gradientTransform="translate(241.375 417.612) rotate(180) scale(48.9149 47.1062)">
<stop offset="0.0223" stop-color="#523E63"/>
<stop offset="0.9944" stop-color="#3E1B40"/>
</radialGradient>
<radialGradient id="paint21_radial_10_2051" cx="0" cy="0" r="1" gradientUnits="userSpaceOnUse" gradientTransform="translate(308.635 403.346) rotate(180) scale(47.5526 45.7943)">
<stop offset="0.0223" stop-color="#452F57"/>
<stop offset="0.9944" stop-color="#2E0C35"/>
</radialGradient>
<radialGradient id="paint22_radial_10_2051" cx="0" cy="0" r="1" gradientUnits="userSpaceOnUse" gradientTransform="translate(236.947 135.746) rotate(180) scale(88.5023 85.2299)">
<stop offset="0.0223" stop-color="#523E63"/>
<stop offset="0.9944" stop-color="#3E1B40"/>
</radialGradient>
<linearGradient id="paint23_linear_10_2051" x1="331.34" y1="231.299" x2="331.34" y2="177.659" gradientUnits="userSpaceOnUse">
<stop stop-color="#FFC7B3"/>
<stop offset="1" stop-color="#FFEFC9"/>
</linearGradient>
<linearGradient id="paint24_linear_10_2051" x1="275.041" y1="312.32" x2="275.041" y2="177.651" gradientUnits="userSpaceOnUse">
<stop stop-color="#93CBFF"/>
<stop offset="1" stop-color="#91C7FE"/>
</linearGradient>
<linearGradient id="paint25_linear_10_2051" x1="346.896" y1="314.891" x2="346.896" y2="226.662" gradientUnits="userSpaceOnUse">
<stop stop-color="#81A6F4"/>
<stop offset="1" stop-color="#81A6F4"/>
</linearGradient>
<radialGradient id="paint26_radial_10_2051" cx="0" cy="0" r="1" gradientUnits="userSpaceOnUse" gradientTransform="translate(373.208 129.653) rotate(180) scale(31.4705 30.3069)">
<stop offset="0.0223" stop-color="#523E63"/>
<stop offset="0.9944" stop-color="#3E1B40"/>
</radialGradient>
<linearGradient id="paint27_linear_10_2051" x1="329.111" y1="224.592" x2="335.825" y2="157.368" gradientUnits="userSpaceOnUse">
<stop stop-color="#93CBFF"/>
<stop offset="1" stop-color="#8BBAFA"/>
</linearGradient>
<linearGradient id="paint28_linear_10_2051" x1="359.337" y1="275.354" x2="356.94" y2="209.171" gradientUnits="userSpaceOnUse">
<stop stop-color="#8BBAFA"/>
<stop offset="1" stop-color="#81A6F4"/>
</linearGradient>
<linearGradient id="paint29_linear_10_2051" x1="321.844" y1="341.478" x2="326.159" y2="294.676" gradientUnits="userSpaceOnUse">
<stop stop-color="#8BBAFA"/>
<stop offset="1" stop-color="#7289EB"/>
</linearGradient>
<linearGradient id="paint30_linear_10_2051" x1="245.432" y1="84.4789" x2="458.647" y2="-43.3895" gradientUnits="userSpaceOnUse">
<stop stop-color="#81A6F4"/>
<stop offset="1" stop-color="#8BBAFA"/>
</linearGradient>
<linearGradient id="paint31_linear_10_2051" x1="100.676" y1="251.426" x2="45.4845" y2="251.426" gradientUnits="userSpaceOnUse">
<stop stop-color="#81A6F4"/>
<stop offset="1" stop-color="#7289EB"/>
</linearGradient>
<linearGradient id="paint32_linear_10_2051" x1="295.258" y1="108.893" x2="295.258" y2="55.2986" gradientUnits="userSpaceOnUse">
<stop stop-color="#91C7FE"/>
<stop offset="1" stop-color="#93CBFF"/>
</linearGradient>
<radialGradient id="paint33_radial_10_2051" cx="0" cy="0" r="1" gradientUnits="userSpaceOnUse" gradientTransform="translate(240.168 88.7797) rotate(180) scale(37.5481 36.1597)">
<stop offset="0.0223" stop-color="#523ECA"/>
<stop offset="0.9944" stop-color="#3E1B40"/>
</radialGradient>
<radialGradient id="paint34_radial_10_2051" cx="0" cy="0" r="1" gradientUnits="userSpaceOnUse" gradientTransform="translate(283.963 117.69) rotate(180) scale(94.5405 91.0448)">
<stop offset="0.0223" stop-color="#523E63"/>
<stop offset="0.9944" stop-color="#3E1B40"/>
</radialGradient>
<linearGradient id="paint35_linear_10_2051" x1="195.715" y1="285.868" x2="101.181" y2="211.897" gradientUnits="userSpaceOnUse">
<stop stop-color="#7289EB"/>
<stop offset="1" stop-color="white"/>
</linearGradient>
<linearGradient id="paint36_linear_10_2051" x1="264.026" y1="411.87" x2="264.026" y2="336.944" gradientUnits="userSpaceOnUse">
<stop stop-color="#8BBAFA"/>
<stop offset="1" stop-color="white"/>
</linearGradient>
<linearGradient id="paint37_linear_10_2051" x1="327.892" y1="314.891" x2="327.892" y2="229.139" gradientUnits="userSpaceOnUse">
<stop stop-color="#8BBAFA"/>
<stop offset="1" stop-color="#81A6F4"/>
</linearGradient>
<linearGradient id="paint38_linear_10_2051" x1="234.912" y1="180.882" x2="234.912" y2="111.487" gradientUnits="userSpaceOnUse">
<stop/>
<stop offset="1" stop-color="#B09BA0"/>
</linearGradient>
<linearGradient id="paint39_linear_10_2051" x1="372.033" y1="174.422" x2="372.033" y2="121.159" gradientUnits="userSpaceOnUse">
<stop/>
<stop offset="1" stop-color="#B09BA0"/>
</linearGradient>
<linearGradient id="paint40_linear_10_2051" x1="240.207" y1="280.922" x2="209.857" y2="280.922" gradientUnits="userSpaceOnUse">
<stop/>
<stop offset="1" stop-color="#B09BA0"/>
</linearGradient>
<linearGradient id="paint41_linear_10_2051" x1="388.472" y1="261.44" x2="261.231" y2="161.876" gradientUnits="userSpaceOnUse">
<stop stop-color="#93CBFF"/>
<stop offset="1" stop-color="#91C7FE"/>
</linearGradient>
<linearGradient id="paint42_linear_10_2051" x1="327.105" y1="310.874" x2="327.105" y2="285.09" gradientUnits="userSpaceOnUse">
<stop stop-color="#91C7FE"/>
<stop offset="1" stop-color="#81A6F4"/>
</linearGradient>
<radialGradient id="paint43_radial_10_2051" cx="0" cy="0" r="1" gradientUnits="userSpaceOnUse" gradientTransform="translate(237.478 54.1524) rotate(180) scale(33.6611 32.4166)">
<stop stop-color="#93CBFF"/>
<stop offset="0.1362" stop-color="#91C7FE"/>
<stop offset="0.2766" stop-color="#8BBAFA"/>
<stop offset="0.4191" stop-color="#81A6F4"/>
<stop offset="0.5629" stop-color="#7289EB"/>
<stop offset="0.7078" stop-color="#6064E0"/>
<stop offset="0.8536" stop-color="#4936D3"/>
<stop offset="0.9977" stop-color="#2E01C3"/>
<stop offset="1" stop-color="#2E00C3"/>
</radialGradient>
<radialGradient id="paint44_radial_10_2051" cx="0" cy="0" r="1" gradientUnits="userSpaceOnUse" gradientTransform="translate(172.417 177.347) rotate(180) scale(56.2021 54.124)">
<stop stop-color="#93CBFF"/>
<stop offset="0.1362" stop-color="#91C7FE"/>
<stop offset="0.2766" stop-color="#8BBAFA"/>
<stop offset="0.4191" stop-color="#81A6F4"/>
<stop offset="0.5629" stop-color="#7289EB"/>
<stop offset="0.7078" stop-color="#6064E0"/>
<stop offset="0.8536" stop-color="#4936D3"/>
<stop offset="0.9977" stop-color="#2E01C3"/>
<stop offset="1" stop-color="#2E00C3"/>
</radialGradient>
<radialGradient id="paint45_radial_10_2051" cx="0" cy="0" r="1" gradientUnits="userSpaceOnUse" gradientTransform="translate(124.227 261.257) rotate(180) scale(19.1655 18.4568)">
<stop stop-color="#93CBFF"/>
<stop offset="0.1362" stop-color="#91C7FE"/>
<stop offset="0.2766" stop-color="#8BBAFA"/>
<stop offset="0.4191" stop-color="#81A6F4"/>
<stop offset="0.5629" stop-color="#7289EB"/>
<stop offset="0.7078" stop-color="#6064E0"/>
<stop offset="0.8536" stop-color="#4936D3"/>
<stop offset="0.9977" stop-color="#2E01C3"/>
<stop offset="1" stop-color="#2E00C3"/>
</radialGradient>
<radialGradient id="paint46_radial_10_2051" cx="0" cy="0" r="1" gradientUnits="userSpaceOnUse" gradientTransform="translate(215.362 269.975) rotate(180) scale(15.2006 14.6386)">
<stop stop-color="#93CBFF"/>
<stop offset="0.1362" stop-color="#91C7FE"/>
<stop offset="0.2766" stop-color="#8BBAFA"/>
<stop offset="0.4191" stop-color="#81A6F4"/>
<stop offset="0.5629" stop-color="#7289EB"/>
<stop offset="0.7078" stop-color="#6064E0"/>
<stop offset="0.8536" stop-color="#4936D3"/>
<stop offset="0.9977" stop-color="#2E01C3"/>
<stop offset="1" stop-color="#2E00C3"/>
</radialGradient>
<radialGradient id="paint47_radial_10_2051" cx="0" cy="0" r="1" gradientUnits="userSpaceOnUse" gradientTransform="translate(223.494 470.722) rotate(180) scale(125.358 120.723)">
<stop stop-color="#93CBFF"/>
<stop offset="0.1362" stop-color="#91C7FE"/>
<stop offset="0.2766" stop-color="#8BBAFA"/>
<stop offset="0.4191" stop-color="#81A6F4"/>
<stop offset="0.5629" stop-color="#7289EB"/>
<stop offset="0.7078" stop-color="#6064E0"/>
<stop offset="0.8536" stop-color="#4936D3"/>
<stop offset="0.9977" stop-color="#2E01C3"/>
<stop offset="1" stop-color="#2E00C3"/>
</radialGradient>
<radialGradient id="paint48_radial_10_2051" cx="0" cy="0" r="1" gradientUnits="userSpaceOnUse" gradientTransform="translate(314.711 515.739) rotate(180) scale(83.0073 79.9381)">
<stop stop-color="#93CBFF"/>
<stop offset="0.1362" stop-color="#91C7FE"/>
<stop offset="0.2766" stop-color="#8BBAFA"/>
<stop offset="0.4191" stop-color="#81A6F4"/>
<stop offset="0.5629" stop-color="#7289EB"/>
<stop offset="0.7078" stop-color="#6064E0"/>
<stop offset="0.8536" stop-color="#4936D3"/>
<stop offset="0.9977" stop-color="#2E01C3"/>
<stop offset="1" stop-color="#2E00C3"/>
</radialGradient>
<radialGradient id="paint49_radial_10_2051" cx="0" cy="0" r="1" gradientUnits="userSpaceOnUse" gradientTransform="translate(89.3613 456.169) rotate(180) scale(168.015 161.802)">
<stop stop-color="#93CBFF"/>
<stop offset="0.1362" stop-color="#91C7FE"/>
<stop offset="0.2766" stop-color="#8BBAFA"/>
<stop offset="0.4191" stop-color="#81A6F4"/>
<stop offset="0.5629" stop-color="#7289EB"/>
<stop offset="0.7078" stop-color="#6064E0"/>
<stop offset="0.8536" stop-color="#4936D3"/>
<stop offset="0.9977" stop-color="#2E01C3"/>
<stop offset="1" stop-color="#2E00C3"/>
</radialGradient>
<radialGradient id="paint50_radial_10_2051" cx="0" cy="0" r="1" gradientUnits="userSpaceOnUse" gradientTransform="translate(110.264 423.94) rotate(180) scale(37.4157 36.0322)">
<stop stop-color="#2E00C3"/>
<stop offset="0.2304" stop-color="#2E00C3"/>
<stop offset="0.4876" stop-color="#105DCF"/>
<stop offset="0.7567" stop-color="#81A6F4"/>
<stop offset="1" stop-color="#81A6F4"/>
</radialGradient>
<linearGradient id="paint51_linear_10_2051" x1="59.1536" y1="232.424" x2="59.1536" y2="163.594" gradientUnits="userSpaceOnUse">
<stop/>
<stop offset="0.116" stop-color="#001422"/>
<stop offset="0.3493" stop-color="#003A5F"/>
<stop offset="0.5628" stop-color="#005890"/>
<stop offset="0.7491" stop-color="#006DB4"/>
<stop offset="0.9012" stop-color="#007AC9"/>
<stop offset="1" stop-color="#007FD1"/>
</linearGradient>
<linearGradient id="paint52_linear_10_2051" x1="1.02898" y1="146.801" x2="104.486" y2="143.047" gradientUnits="userSpaceOnUse">
<stop stop-color="#200969"/>
<stop offset="0.185" stop-color="#250A69"/>
<stop offset="0.3917" stop-color="#320F6A"/>
<stop offset="0.6088" stop-color="#48166C"/>
<stop offset="0.8317" stop-color="#671F6E"/>
<stop offset="1" stop-color="#842870"/>
</linearGradient>
<linearGradient id="paint53_linear_10_2051" x1="87.0529" y1="194.185" x2="47.3621" y2="194.185" gradientUnits="userSpaceOnUse">
<stop stop-color="#090D4C"/>
<stop offset="1" stop-color="#180033"/>
</linearGradient>
<linearGradient id="paint54_linear_10_2051" x1="59.419" y1="177.424" x2="15.1247" y2="177.424" gradientUnits="userSpaceOnUse">
<stop stop-color="#090D4C"/>
<stop offset="1" stop-color="#180033"/>
</linearGradient>
<linearGradient id="paint55_linear_10_2051" x1="91.1639" y1="183.366" x2="59.419" y2="183.366" gradientUnits="userSpaceOnUse">
<stop stop-color="#090D4C"/>
<stop offset="1" stop-color="#180033"/>
</linearGradient>
<linearGradient id="paint56_linear_10_2051" x1="104.28" y1="143.503" x2="52.3524" y2="143.503" gradientUnits="userSpaceOnUse">
<stop stop-color="#090D4C"/>
<stop offset="1" stop-color="#180033"/>
</linearGradient>
<radialGradient id="paint57_radial_10_2051" cx="0" cy="0" r="1" gradientUnits="userSpaceOnUse" gradientTransform="translate(164.17 222.847) rotate(180) scale(55.3794 72.6111)">
<stop stop-color="#76FFFF"/>
<stop offset="0.1458" stop-color="#77FBFF"/>
<stop offset="0.3003" stop-color="#7AEEFF"/>
<stop offset="0.4588" stop-color="#7ED9FF"/>
<stop offset="0.6201" stop-color="#84BBFF"/>
<stop offset="0.7835" stop-color="#8D95FF"/>
<stop offset="0.9464" stop-color="#9667FF"/>
<stop offset="1" stop-color="#9A56FF"/>
</radialGradient>
<radialGradient id="paint58_radial_10_2051" cx="0" cy="0" r="1" gradientUnits="userSpaceOnUse" gradientTransform="translate(395.348 161.143) rotate(180) scale(25.6549 30.1974)">
<stop stop-color="#93CBFF"/>
<stop offset="0.101" stop-color="#91C7FE"/>
<stop offset="0.2337" stop-color="#7289EB"/>
<stop offset="0.883" stop-color="#000404"/>
<stop offset="1"/>
</radialGradient>
<radialGradient id="paint59_radial_10_2051" cx="0" cy="0" r="1" gradientUnits="userSpaceOnUse" gradientTransform="translate(176.582 157.941) rotate(180) scale(75.9799 67.483)">
<stop stop-color="#93CBFF"/>
<stop offset="0.101" stop-color="#91C7FE"/>
<stop offset="0.883" stop-color="#000404"/>
<stop offset="1"/>
</radialGradient>
</defs>
</svg>
