<svg width="599" height="167" viewBox="0 0 599 167" fill="none" xmlns="http://www.w3.org/2000/svg">
<path d="M85.6 0.200025C39.4 -0.299975 1.69999 35.1 0.599994 81.6C-0.600006 130.9 39.6 167.6 83.7 166.8C129.6 167.1 167.3 130.3 167.5 84.8C167.9 38.6 131 0.700025 85.6 0.200025ZM115 94.8C114.8 95.5 114.6 96.3 114.4 97C113.6 99.7 112.6 102.1 111.3 104.4C107.7 110.6 103.4 115 98.3 117.8C98 118 97.7 118.1 97.5 118.3C92 121.2 83.6 122.7 72.4 122.7H51.9V44.4H72.4C83.6 44.4 92 45.9 97.5 48.8C97.9 49 98.3 49.2 98.6 49.4C103.6 52.2 107.8 56.6 111.3 62.7C112.7 65.2 113.8 67.8 114.6 70.7C114.7 71.2 114.9 71.7 115 72.3C115.8 75.8 116.2 79.6 116.3 83.7C116.2 87.6 115.8 91.4 115 94.8Z" fill="#FBAA19"/>
<path d="M101.4 83.5C101.1 99.9 92.1 108.1 74.5 108.1H66.7V59H74.5C92.2 58.9 101.1 67.1 101.4 83.5Z" fill="#FBAA19"/>
<path d="M215.7 43.6L240.6 109.4L265.2 43.6H278.8L246.1 125.7H235L201.9 43.6H215.7Z" fill="white"/>
<path d="M314.5 126.8C309.8 126.8 305.5 126 301.7 124.3C297.8 122.6 294.6 120.4 291.8 117.5C289.1 114.6 286.9 111.3 285.4 107.6C283.9 103.8 283.1 99.8 283.1 95.6C283.1 91.4 283.9 87.3 285.4 83.5C286.9 79.7 289 76.3 291.8 73.4C294.5 70.5 297.8 68.2 301.7 66.6C305.6 64.9 309.9 64.1 314.6 64.1C319.3 64.1 323.6 64.9 327.4 66.6C331.2 68.3 334.5 70.6 337.2 73.4C339.9 76.2 342 79.5 343.4 83.2C344.8 86.9 345.5 90.8 345.5 94.9C345.5 95.8 345.5 96.7 345.4 97.5C345.3 98.3 345.2 99 345.2 99.5H296.8C297 102.2 297.7 104.6 298.7 106.8C299.7 109 301.1 110.8 302.7 112.4C304.4 114 306.2 115.2 308.4 116C310.5 116.8 312.7 117.3 315 117.3C316.7 117.3 318.4 117.1 320 116.7C321.7 116.3 323.2 115.7 324.6 114.9C326 114.1 327.2 113.1 328.3 112C329.4 110.8 330.2 109.6 330.8 108.2L341.7 111.3C339.6 115.8 336.2 119.6 331.4 122.5C326.5 125.4 320.9 126.8 314.5 126.8ZM332.9 90.9C332.7 88.4 332 86 331 83.8C330 81.6 328.6 79.8 327 78.3C325.4 76.8 323.5 75.6 321.3 74.8C319.1 74 316.9 73.5 314.5 73.5C312.1 73.5 309.9 73.9 307.7 74.8C305.6 75.6 303.7 76.8 302.1 78.3C300.5 79.8 299.2 81.6 298.2 83.8C297.2 86 296.6 88.3 296.4 90.9H332.9Z" fill="white"/>
<path d="M359.5 125.7V82.1H351.4V72.3H359.5V64.3C359.5 56.8 361.2 50.9 364.7 46.6C368.2 42.3 372.9 40.1 378.8 40.1C381.3 40.1 383.7 40.4 386.1 41.1C388.5 41.8 390.7 42.7 392.8 43.8L390 53.3C388.9 52.6 387.6 52 386 51.6C384.4 51.1 382.9 50.9 381.4 50.9C378.4 50.9 376.1 52 374.5 54.3C372.9 56.5 372.1 59.8 372.1 64V72.3H387.5V82.1H372.1V125.7H359.5Z" fill="white"/>
<path d="M400.1 125.7V43.6H429.2C435.8 43.6 441.6 44.7 446.6 46.8C451.6 49 455.7 51.9 459.1 55.6C462.5 59.3 465 63.6 466.7 68.6C468.4 73.6 469.2 78.9 469.2 84.5C469.2 90.7 468.3 96.4 466.4 101.4C464.5 106.4 461.8 110.8 458.4 114.3C454.9 117.9 450.7 120.7 445.8 122.6C440.9 124.6 435.4 125.5 429.3 125.5H400.1V125.7ZM456 84.5C456 80.2 455.4 76.2 454.2 72.6C453 69 451.3 65.9 448.9 63.3C446.6 60.7 443.8 58.7 440.5 57.2C437.2 55.7 433.4 55 429.2 55H413V114.2H429.2C433.5 114.2 437.3 113.4 440.7 111.9C444.1 110.4 446.9 108.3 449.1 105.7C451.4 103 453.1 99.9 454.2 96.3C455.4 92.7 456 88.8 456 84.5Z" fill="white"/>
<path d="M508.8 126.8C504.1 126.8 499.8 126 496 124.3C492.1 122.6 488.9 120.4 486.1 117.5C483.4 114.6 481.2 111.3 479.7 107.6C478.2 103.8 477.4 99.8 477.4 95.6C477.4 91.4 478.2 87.3 479.7 83.5C481.2 79.7 483.3 76.3 486.1 73.4C488.8 70.5 492.1 68.2 496 66.6C499.9 64.9 504.2 64.1 508.9 64.1C513.6 64.1 517.9 64.9 521.7 66.6C525.5 68.3 528.8 70.6 531.5 73.4C534.2 76.2 536.3 79.5 537.7 83.2C539.1 86.9 539.8 90.8 539.8 94.9C539.8 95.8 539.8 96.7 539.7 97.5C539.6 98.3 539.5 99 539.5 99.5H491.1C491.3 102.2 492 104.6 493 106.8C494 109 495.4 110.8 497 112.4C498.7 114 500.5 115.2 502.7 116C504.8 116.8 507 117.3 509.3 117.3C511 117.3 512.7 117.1 514.3 116.7C516 116.3 517.5 115.7 518.9 114.9C520.3 114.1 521.5 113.1 522.6 112C523.7 110.8 524.5 109.6 525.1 108.2L536 111.3C533.9 115.8 530.5 119.6 525.7 122.5C520.8 125.4 515.2 126.8 508.8 126.8ZM527.2 90.9C527 88.4 526.3 86 525.3 83.8C524.3 81.6 522.9 79.8 521.3 78.3C519.7 76.8 517.8 75.6 515.6 74.8C513.4 74 511.2 73.5 508.8 73.5C506.4 73.5 504.2 73.9 502 74.8C499.9 75.6 498 76.8 496.4 78.3C494.8 79.8 493.5 81.6 492.5 83.8C491.5 86 490.9 88.3 490.7 90.9H527.2Z" fill="white"/>
<path d="M553.8 82.1H545.7V72.3H553.8V64.3C553.8 61.1 554.3 58.1 555.3 55.2C556.3 52.3 557.8 49.7 559.8 47.5C561.8 45.3 564.2 43.5 567.1 42.1C570 40.8 573.4 40.1 577.3 40.1C581.6 40.1 585.5 40.8 588.9 42.1C592.3 43.4 595.3 45 597.9 46.8L592.6 56.3C590.8 54.8 588.7 53.5 586.1 52.5C583.6 51.5 580.9 51 578 51C576 51 574.3 51.4 572.9 52.1C571.5 52.8 570.3 53.8 569.4 55C568.5 56.2 567.8 57.6 567.3 59.2C566.8 60.7 566.6 62.3 566.6 63.9V72.2H598.3V125.6H585.6V82H566.6V125.6H553.9L553.8 82.1Z" fill="white"/>
</svg>
