<svg width="168" height="167" viewBox="0 0 168 167" fill="none" xmlns="http://www.w3.org/2000/svg">
<path d="M85.6 0.200025C39.4 -0.299975 1.69999 35.1 0.599994 81.6C-0.600006 130.9 39.6 167.6 83.7 166.8C129.6 167.1 167.3 130.3 167.5 84.8C167.9 38.6 131 0.700025 85.6 0.200025ZM115 94.8C114.8 95.5 114.6 96.3 114.4 97C113.6 99.7 112.6 102.1 111.3 104.4C107.7 110.6 103.4 115 98.3 117.8C98 118 97.7 118.1 97.5 118.3C92 121.2 83.6 122.7 72.4 122.7H51.9V44.4H72.4C83.6 44.4 92 45.9 97.5 48.8C97.9 49 98.3 49.2 98.6 49.4C103.6 52.2 107.8 56.6 111.3 62.7C112.7 65.2 113.8 67.8 114.6 70.7C114.7 71.2 114.9 71.7 115 72.3C115.8 75.8 116.2 79.6 116.3 83.7C116.2 87.6 115.8 91.4 115 94.8Z" fill="#FBAA19"/>
<path d="M101.4 83.5C101.1 99.9 92.1 108.1 74.5 108.1H66.7V59H74.5C92.2 58.9 101.1 67.1 101.4 83.5Z" fill="#FBAA19"/>
</svg>
