<?xml version="1.0" encoding="utf-8"?>
<!-- Generator: Adobe Illustrator 26.0.1, SVG Export Plug-In . SVG Version: 6.00 Build 0)  -->
<svg version="1.1" id="Layer_1" xmlns="http://www.w3.org/2000/svg" xmlns:xlink="http://www.w3.org/1999/xlink" x="0px" y="0px"
	 viewBox="0 0 1080 1080" style="enable-background:new 0 0 1080 1080;" xml:space="preserve">
<style type="text/css">
	.st0{fill:#1A0E27;}
	.st1{fill:#FBAA19;}
	.st2{fill:#FFFFFF;}
</style>
<rect x="0.4" y="-0.5" class="st0" width="1080" height="1080"/>
<g>
	<g>
		<path class="st1" d="M541.9,399c-46.2-0.5-83.9,34.9-85,81.4c-1.2,49.3,39,86,83.1,85.2c45.9,0.3,83.6-36.5,83.8-82
			C624.2,437.5,587.3,399.5,541.9,399z M571.3,493.7c-0.2,0.7-0.4,1.5-0.6,2.2c-0.8,2.7-1.8,5.1-3.1,7.4c-3.6,6.2-7.9,10.6-13,13.4
			c-0.3,0.2-0.6,0.3-0.8,0.5c-5.5,2.9-13.9,4.4-25.1,4.4h-20.5v-78.3h20.5c11.2,0,19.6,1.5,25.1,4.4c0.4,0.2,0.8,0.4,1.1,0.6
			c5,2.8,9.2,7.2,12.7,13.3c1.4,2.5,2.5,5.1,3.3,8c0.1,0.5,0.3,1,0.4,1.6c0.8,3.5,1.2,7.3,1.3,11.4
			C572.5,486.4,572.1,490.2,571.3,493.7z"/>
		<g>
			<g>
				<path class="st1" d="M557.7,482.3c-0.3,16.4-9.3,24.6-26.9,24.6H523v-49.1h7.8C548.5,457.8,557.4,466,557.7,482.3z"/>
			</g>
		</g>
	</g>
	<g>
		<path class="st2" d="M356,596.7l24.9,65.8l24.6-65.8h13.6l-32.7,82.1h-11.1l-33.1-82.1H356z"/>
		<path class="st2" d="M454.9,680c-4.7,0-9-0.8-12.8-2.5c-3.9-1.7-7.1-3.9-9.9-6.8c-2.7-2.9-4.9-6.2-6.4-9.9
			c-1.5-3.8-2.3-7.8-2.3-12s0.8-8.3,2.3-12.1s3.6-7.2,6.4-10.1c2.7-2.9,6-5.2,9.9-6.8c3.9-1.7,8.2-2.5,12.9-2.5
			c4.7,0,9,0.8,12.8,2.5s7.1,4,9.8,6.8c2.7,2.8,4.8,6.1,6.2,9.8c1.4,3.7,2.1,7.6,2.1,11.7c0,0.9,0,1.8-0.1,2.6s-0.2,1.5-0.2,2h-48.4
			c0.2,2.7,0.9,5.1,1.9,7.3s2.4,4,4,5.6c1.7,1.6,3.5,2.8,5.7,3.6c2.1,0.8,4.3,1.3,6.6,1.3c1.7,0,3.4-0.2,5-0.6
			c1.7-0.4,3.2-1,4.6-1.8s2.6-1.8,3.7-2.9c1.1-1.2,1.9-2.4,2.5-3.8l10.9,3.1c-2.1,4.5-5.5,8.3-10.3,11.2
			C466.9,678.5,461.3,680,454.9,680z M473.2,644c-0.2-2.5-0.9-4.9-1.9-7.1c-1-2.2-2.4-4-4-5.5s-3.5-2.7-5.7-3.5s-4.4-1.3-6.8-1.3
			s-4.6,0.4-6.8,1.3c-2.1,0.8-4,2-5.6,3.5s-2.9,3.3-3.9,5.5s-1.6,4.5-1.8,7.1H473.2z"/>
		<path class="st2" d="M499.8,678.8v-43.6h-8.1v-9.8h8.1v-8c0-7.5,1.7-13.4,5.2-17.7s8.2-6.5,14.1-6.5c2.5,0,4.9,0.3,7.3,1
			c2.4,0.7,4.6,1.6,6.7,2.7l-2.8,9.5c-1.1-0.7-2.4-1.3-4-1.7c-1.6-0.5-3.1-0.7-4.6-0.7c-3,0-5.3,1.1-6.9,3.4
			c-1.6,2.2-2.4,5.5-2.4,9.7v8.3h15.4v9.8h-15.4v43.6H499.8z"/>
		<path class="st2" d="M540.4,678.8v-82.1h29.1c6.6,0,12.4,1.1,17.4,3.2c5,2.2,9.1,5.1,12.5,8.8s5.9,8,7.6,13
			c1.7,5,2.5,10.3,2.5,15.9c0,6.2-0.9,11.9-2.8,16.9c-1.9,5-4.6,9.4-8,12.9c-3.5,3.6-7.7,6.4-12.6,8.3c-4.9,2-10.4,2.9-16.5,2.9
			h-29.2V678.8z M596.3,637.7c0-4.3-0.6-8.3-1.8-11.9c-1.2-3.6-2.9-6.7-5.3-9.3c-2.3-2.6-5.1-4.6-8.4-6.1c-3.3-1.5-7.1-2.2-11.3-2.2
			h-16.2v59.2h16.2c4.3,0,8.1-0.8,11.5-2.3s6.2-3.6,8.4-6.2c2.3-2.7,4-5.8,5.1-9.4C595.8,645.8,596.3,641.9,596.3,637.7z"/>
		<path class="st2" d="M649.2,680c-4.7,0-9-0.8-12.8-2.5c-3.9-1.7-7.1-3.9-9.9-6.8c-2.7-2.9-4.9-6.2-6.4-9.9
			c-1.5-3.8-2.3-7.8-2.3-12s0.8-8.3,2.3-12.1s3.6-7.2,6.4-10.1c2.7-2.9,6-5.2,9.9-6.8c3.9-1.7,8.2-2.5,12.9-2.5s9,0.8,12.8,2.5
			s7.1,4,9.8,6.8s4.8,6.1,6.2,9.8s2.1,7.6,2.1,11.7c0,0.9,0,1.8-0.1,2.6s-0.2,1.5-0.2,2h-48.5c0.2,2.7,0.9,5.1,1.9,7.3s2.4,4,4,5.6
			c1.7,1.6,3.5,2.8,5.7,3.6c2.1,0.8,4.3,1.3,6.6,1.3c1.7,0,3.4-0.2,5-0.6c1.7-0.4,3.2-1,4.6-1.8c1.4-0.8,2.6-1.8,3.7-2.9
			c1.1-1.2,1.9-2.4,2.5-3.8l10.9,3.1c-2.1,4.5-5.5,8.3-10.3,11.2C661.2,678.5,655.6,680,649.2,680z M667.6,644
			c-0.2-2.5-0.9-4.9-1.9-7.1c-1-2.2-2.4-4-4-5.5s-3.5-2.7-5.7-3.5s-4.4-1.3-6.8-1.3c-2.4,0-4.6,0.4-6.8,1.3c-2.1,0.8-4,2-5.6,3.5
			s-2.9,3.3-3.9,5.5s-1.6,4.5-1.8,7.1H667.6z"/>
		<path class="st2" d="M694.1,635.2H686v-9.8h8.1v-8c0-3.2,0.5-6.2,1.5-9.1c1-2.9,2.5-5.5,4.5-7.7s4.4-4,7.3-5.4
			c2.9-1.3,6.3-2,10.2-2c4.3,0,8.2,0.7,11.6,2c3.4,1.3,6.4,2.9,9,4.7l-5.3,9.5c-1.8-1.5-3.9-2.8-6.5-3.8c-2.5-1-5.2-1.5-8.1-1.5
			c-2,0-3.7,0.4-5.1,1.1c-1.4,0.7-2.6,1.7-3.5,2.9s-1.6,2.6-2.1,4.2c-0.5,1.5-0.7,3.1-0.7,4.7v8.3h31.7v53.4h-12.7v-43.6h-19v43.6
			h-12.7v-43.5H694.1z"/>
	</g>
</g>
</svg>
