<?xml version="1.0" encoding="utf-8"?>
<!-- Generator: Adobe Illustrator 26.0.1, SVG Export Plug-In . SVG Version: 6.00 Build 0)  -->
<svg version="1.1" id="Layer_1" xmlns="http://www.w3.org/2000/svg" xmlns:xlink="http://www.w3.org/1999/xlink" x="0px" y="0px"
	 viewBox="0 0 1080 1080" style="enable-background:new 0 0 1080 1080;" xml:space="preserve">
<style type="text/css">
	.st0{fill:#1A0E27;}
	.st1{fill:#FBAA19;}
</style>
<rect x="0.4" y="-0.5" class="st0" width="1080" height="1080"/>
<g>
	<path class="st1" d="M543.4,378.1c-89.4-0.9-162.6,67.6-164.7,157.7c-2.3,95.5,75.5,166.6,161.1,165
		c88.9,0.5,161.9-70.8,162.4-158.8C702.7,452.5,631.2,379,543.4,378.1z M600.2,561.5c-0.3,1.4-0.7,2.8-1.1,4.2
		c-1.5,5.1-3.5,9.9-6,14.3c-6.9,11.9-15.3,20.6-25.2,26c-0.5,0.3-1.1,0.6-1.6,0.9c-10.7,5.7-26.9,8.5-48.7,8.5h-39.7V463.6h39.7
		c21.8,0,38,2.8,48.7,8.5c0.7,0.4,1.5,0.8,2.2,1.2c9.7,5.5,17.8,14,24.6,25.7c2.7,4.8,4.8,9.9,6.3,15.5c0.3,1,0.5,2,0.8,3
		c1.6,6.8,2.4,14.1,2.6,22C602.6,547.4,601.8,554.7,600.2,561.5z"/>
	<g>
		<g>
			<path class="st1" d="M574,539.5c-0.6,31.7-18,47.6-52,47.6h-15v-95.2h15C556,491.9,573.3,507.7,574,539.5z"/>
		</g>
	</g>
</g>
</svg>
